<svg xmlns="http://www.w3.org/2000/svg" xmlns:xlink="http://www.w3.org/1999/xlink" width="500" zoomAndPan="magnify" viewBox="0 0 375 374.999991" height="500" preserveAspectRatio="xMidYMid meet" version="1.0"><defs><clipPath id="id1"><path d="M 77.8125 0 L 297.5625 0 L 297.5625 375 L 77.8125 375 Z M 77.8125 0 " clip-rule="nonzero"/></clipPath></defs><g clip-path="url(#id1)"><path fill="#99a799" d="M 294.089844 48.820312 C 290.46875 60.425781 277.679688 64.695312 267.464844 68.601562 C 262.003906 70.703125 256.632812 73.007812 251.984375 76.601562 C 247.683594 80.128906 243.816406 84.078125 240.378906 88.449219 C 238.128906 85.890625 237.972656 81.875 234.382812 80.207031 C 230.644531 78.46875 228.246094 81.542969 226.835938 84.601562 C 222.921875 93.121094 222.855469 102.683594 217.464844 110.59375 C 214.878906 114.375 211.914062 117.863281 209.398438 121.691406 C 206.785156 125.679688 204.488281 129.839844 202.5 134.175781 C 198.589844 142.75 195.980469 151.703125 194.675781 161.039062 C 194.628906 161.273438 194.628906 161.507812 194.675781 161.742188 C 193.132812 163.851562 191.707031 166.042969 190.398438 168.304688 C 187.816406 171.699219 186.023438 175.464844 185.015625 179.605469 C 184.953125 179.878906 184.953125 180.148438 185.015625 180.417969 C 185.015625 180.527344 184.949219 180.625 184.910156 180.742188 C 183.097656 186.613281 182.144531 192.621094 182.042969 198.761719 C 181.140625 195.636719 180.140625 192.527344 179.039062 189.433594 C 173.234375 173.25 165.476562 157.882812 158.761719 142.078125 C 159 141.886719 159.160156 141.644531 159.25 141.355469 C 159.339844 141.066406 159.339844 140.777344 159.253906 140.484375 C 158.21875 136.492188 157.839844 132.4375 158.117188 128.320312 C 158.394531 124.203125 159.316406 120.238281 160.878906 116.417969 C 161.820312 114.128906 162.886719 111.902344 164.078125 109.734375 C 172.726562 104.292969 183.644531 103.921875 193.253906 100.945312 C 198.140625 99.59375 202.578125 97.359375 206.574219 94.242188 C 208.960938 92.289062 213.6875 87.972656 211.394531 84.523438 C 210.566406 83.273438 209.144531 82.746094 207.84375 82.160156 C 207.265625 81.90625 205.945312 81.515625 205.59375 80.949219 C 204.527344 79.257812 207.285156 77.6875 208.53125 76.972656 C 213.46875 74.042969 218.910156 72.011719 223.65625 68.75 C 232.464844 62.691406 236.457031 52.925781 238.558594 42.785156 C 239.800781 36.726562 240.515625 30.574219 241.554688 24.480469 C 242.835938 16.996094 244.488281 9.582031 246.445312 2.238281 C 246.539062 1.878906 246.511719 1.527344 246.363281 1.183594 C 246.21875 0.84375 245.984375 0.582031 245.660156 0.398438 C 245.335938 0.21875 244.988281 0.152344 244.617188 0.207031 C 244.25 0.257812 243.9375 0.417969 243.675781 0.683594 C 229.429688 12.726562 215.125 24.820312 199.300781 34.792969 C 192.140625 39.316406 184.554688 43.273438 179.039062 49.875 C 175 54.695312 172.164062 60.132812 170.523438 66.199219 L 167.050781 58.6875 C 166.445312 57.386719 164.398438 57.789062 164.066406 59.066406 C 159.871094 75.367188 157.863281 91.929688 158.050781 108.757812 C 158.03125 109.320312 158.257812 109.75 158.734375 110.046875 C 158.691406 110.367188 158.742188 110.667969 158.886719 110.953125 C 159.027344 111.242188 159.238281 111.460938 159.515625 111.621094 C 159.058594 112.597656 158.625 113.527344 158.207031 114.484375 C 155.761719 120.195312 154.644531 126.152344 154.859375 132.359375 C 152.902344 127.238281 151.074219 122.015625 149.527344 116.730469 C 147.960938 102.710938 156.992188 89.867188 157.285156 75.9375 C 157.460938 68.046875 154.691406 60.542969 153.226562 52.875 C 151.726562 45.0625 151.894531 37.011719 148.871094 29.5 C 145.75 21.792969 140.652344 15.191406 135.574219 8.683594 C 135.472656 8.585938 135.359375 8.5 135.234375 8.429688 C 135.113281 8.359375 134.980469 8.304688 134.84375 8.269531 C 134.707031 8.234375 134.566406 8.214844 134.425781 8.214844 C 134.285156 8.214844 134.144531 8.234375 134.007812 8.269531 C 133.871094 8.304688 133.738281 8.359375 133.617188 8.429688 C 133.492188 8.5 133.378906 8.585938 133.277344 8.683594 C 133.175781 8.785156 133.089844 8.894531 133.019531 9.019531 C 132.945312 9.140625 132.890625 9.269531 132.851562 9.40625 C 129.527344 29.058594 127.84375 48.847656 127.804688 68.777344 C 127.804688 77.785156 127.472656 87.484375 130.738281 96.039062 C 133.820312 104.136719 139.820312 110.546875 145.71875 116.71875 C 145.878906 116.890625 146.070312 117.023438 146.289062 117.109375 L 146.386719 117.441406 C 146.433594 117.890625 146.484375 118.332031 146.550781 118.78125 C 146.597656 119.160156 146.769531 119.464844 147.070312 119.699219 C 153.578125 140.582031 164.15625 160.726562 172.238281 180.632812 C 179.996094 199.730469 184.871094 219.257812 184.773438 239.972656 C 184.773438 243.207031 184.625 246.429688 184.429688 249.65625 C 182.644531 244.242188 180.320312 239.074219 177.460938 234.144531 C 176.550781 232.578125 175.574219 231.066406 174.527344 229.589844 C 174.78125 229.398438 174.96875 229.15625 175.09375 228.867188 C 175.21875 228.574219 175.257812 228.269531 175.21875 227.953125 C 175.179688 227.636719 175.0625 227.355469 174.867188 227.101562 C 174.671875 226.851562 174.429688 226.664062 174.136719 226.542969 C 174.121094 226.253906 174.03125 225.992188 173.871094 225.753906 C 162.636719 209.097656 160.660156 188.585938 155.28125 169.722656 C 152.707031 160.753906 149.292969 151.847656 143.773438 144.257812 C 137.101562 135.074219 127.628906 129.019531 118.265625 122.882812 L 80.40625 98.074219 C 80.085938 97.894531 79.742188 97.828125 79.378906 97.878906 C 79.015625 97.929688 78.703125 98.082031 78.445312 98.339844 C 78.183594 98.601562 78.027344 98.910156 77.976562 99.273438 C 77.925781 99.636719 77.988281 99.980469 78.164062 100.300781 C 85.238281 111.570312 86.972656 124.867188 88.65625 137.800781 C 89.429688 143.847656 90.199219 149.910156 91.484375 155.878906 C 92.539062 160.765625 93.597656 167.816406 97.863281 171.097656 C 100.171875 172.886719 102.882812 172.878906 105.691406 172.945312 C 108.214844 173.003906 113.683594 174.390625 110.222656 177.703125 C 108.597656 179.253906 106.492188 180.183594 105.082031 181.992188 C 104.390625 182.910156 103.917969 183.929688 103.664062 185.054688 C 103.414062 186.175781 103.402344 187.300781 103.636719 188.429688 C 104.691406 194.375 109.917969 199.386719 113.898438 203.578125 C 118.511719 208.460938 123.5625 212.84375 129.046875 216.726562 C 135.386719 221.191406 142.011719 224.539062 149.730469 225.761719 C 156.464844 226.808594 163.34375 226.835938 169.910156 228.59375 C 171.179688 230.285156 172.402344 232.03125 173.527344 233.851562 C 178.1875 241.390625 181.519531 249.472656 183.519531 258.105469 C 183.5625 258.304688 183.644531 258.492188 183.765625 258.660156 C 182.1875 273.488281 179.058594 288.171875 175.542969 302.617188 C 174.253906 307.953125 172.882812 313.253906 171.582031 318.589844 C 170.105469 322.820312 168.960938 327.144531 168.148438 331.550781 C 168.0625 331.984375 168.140625 332.382812 168.382812 332.753906 C 168.074219 334.238281 167.792969 335.722656 167.53125 337.207031 C 165.429688 349.019531 164.558594 360.917969 164.917969 372.910156 C 164.976562 375 168.234375 375.007812 168.175781 372.910156 C 167.828125 362.066406 168.519531 351.289062 170.25 340.578125 C 171.433594 333.367188 173.058594 326.257812 174.800781 319.164062 C 178.714844 308.03125 184.585938 297.9375 191.492188 288.367188 C 191.714844 288.507812 191.953125 288.59375 192.210938 288.625 C 192.46875 288.660156 192.722656 288.632812 192.972656 288.554688 C 193.21875 288.472656 193.4375 288.339844 193.625 288.160156 C 193.8125 287.980469 193.953125 287.769531 194.046875 287.527344 C 195.554688 283.441406 199.605469 281.109375 203.1875 279.039062 C 207.054688 276.835938 211.03125 274.863281 215.125 273.117188 C 223.609375 269.445312 232.394531 266.484375 240.925781 262.929688 C 254.890625 257.070312 269.007812 249.136719 277.269531 236.007812 C 278.882812 233.449219 281.984375 229.171875 280.203125 226.066406 C 278.570312 223.210938 274.109375 221.835938 270.546875 221.0625 C 277.484375 211.296875 283.65625 200.929688 286.574219 189.199219 C 289.792969 176.238281 289.507812 162.746094 289.136719 149.5 C 289.125 149.140625 289.007812 148.820312 288.78125 148.539062 C 288.558594 148.253906 288.273438 148.066406 287.925781 147.972656 C 287.574219 147.878906 287.234375 147.898438 286.898438 148.027344 C 286.5625 148.160156 286.296875 148.375 286.105469 148.679688 C 282.511719 154.796875 278.464844 160.597656 273.964844 166.085938 C 269.464844 171.574219 264.566406 176.679688 259.269531 181.402344 C 253.976562 186.128906 248.34375 190.414062 242.378906 194.265625 C 236.414062 198.113281 230.1875 201.480469 223.695312 204.359375 C 218.550781 206.636719 213.148438 208.558594 209.019531 212.566406 C 201.632812 219.773438 199.871094 230.605469 198.578125 240.375 C 196.621094 255.027344 194.195312 269.582031 190.820312 283.988281 C 186.820312 289.257812 183.171875 294.757812 179.871094 300.488281 C 179.582031 300.976562 179.308594 301.464844 179.046875 301.953125 C 183.246094 284.507812 186.796875 266.835938 187.855469 248.882812 C 188.457031 237.710938 187.8125 226.613281 185.925781 215.582031 C 186.105469 215.511719 186.269531 215.414062 186.414062 215.285156 C 186.558594 215.15625 186.675781 215.003906 186.765625 214.832031 C 186.855469 214.664062 186.914062 214.480469 186.9375 214.289062 C 186.960938 214.097656 186.949219 213.90625 186.90625 213.71875 C 185.757812 208.699219 185.246094 203.617188 185.371094 198.472656 C 185.496094 193.328125 186.25 188.277344 187.636719 183.320312 C 188.921875 178.777344 190.722656 174.449219 193.039062 170.335938 C 195.050781 167.636719 197.484375 165.390625 200.339844 163.597656 C 207.238281 159.289062 215.445312 159.367188 223.136719 157.453125 C 231.160156 155.5 238.648438 151.699219 245.898438 147.8125 C 253.328125 143.828125 260.5625 139.511719 267.601562 134.867188 C 274.019531 130.628906 282.335938 126.175781 284.898438 118.417969 C 284.953125 118.210938 284.96875 118 284.941406 117.789062 C 284.914062 117.574219 284.84375 117.375 284.738281 117.1875 C 284.632812 117 284.496094 116.839844 284.328125 116.707031 C 284.160156 116.574219 283.972656 116.476562 283.765625 116.417969 C 280.332031 115.652344 276.863281 115.136719 273.355469 114.875 C 277.230469 110.339844 280.675781 105.5 283.683594 100.347656 C 286.691406 95.199219 289.214844 89.824219 291.257812 84.222656 C 293.300781 78.621094 294.828125 72.882812 295.839844 67.003906 C 296.851562 61.128906 297.328125 55.210938 297.277344 49.25 C 297.261719 48.855469 297.121094 48.511719 296.855469 48.21875 C 296.585938 47.925781 296.257812 47.753906 295.863281 47.699219 C 295.472656 47.644531 295.105469 47.726562 294.769531 47.9375 C 294.4375 48.148438 294.207031 48.445312 294.089844 48.820312 Z M 207.179688 85.421875 C 207.589844 85.617188 208.578125 85.902344 208.734375 86.398438 C 209.105469 87.472656 206.867188 89.574219 206.21875 90.238281 C 202.601562 94.007812 197.71875 96.234375 192.796875 97.769531 C 184.292969 100.425781 175.183594 101.207031 167.082031 104.675781 C 169.039062 101.433594 171.152344 98.25 173.109375 95.054688 C 175.066406 91.859375 177.128906 88.449219 179.15625 85.148438 C 179.488281 85.292969 179.816406 85.277344 180.132812 85.101562 C 181.851562 84.195312 183.640625 83.460938 185.496094 82.894531 C 187.355469 82.328125 189.25 81.9375 191.179688 81.726562 C 193.113281 81.515625 195.046875 81.484375 196.980469 81.636719 C 198.917969 81.789062 200.824219 82.117188 202.699219 82.628906 L 202.980469 82.992188 C 204.105469 84.242188 205.722656 84.691406 207.179688 85.421875 Z M 222.363281 65.738281 C 217.777344 68.972656 212.480469 71.003906 207.628906 73.769531 C 205.386719 75.039062 202.179688 77.335938 201.945312 79.992188 C 198.441406 79.210938 194.902344 78.996094 191.328125 79.351562 C 187.753906 79.703125 184.324219 80.609375 181.042969 82.0625 C 182.855469 79.132812 184.703125 76.289062 186.628906 73.464844 C 191.207031 66.828125 196.410156 60.71875 202.238281 55.140625 C 205.683594 51.800781 209.28125 48.625 212.941406 45.519531 C 220.996094 48.019531 229.039062 43.820312 235.859375 39.660156 C 234.027344 49.523438 230.925781 59.691406 222.363281 65.738281 Z M 236.347656 36.824219 C 236.109375 36.816406 235.890625 36.875 235.691406 37 C 229.625 40.753906 222.453125 45.011719 215.144531 43.632812 C 217.511719 41.679688 219.898438 39.726562 222.285156 37.773438 C 223.910156 36.445312 221.59375 34.148438 219.976562 35.476562 C 214.273438 40.15625 208.578125 44.875 203.175781 49.867188 C 205.09375 43.738281 207.292969 37.707031 209.773438 31.765625 C 220.144531 24.519531 229.957031 16.5 239.644531 8.324219 C 235.285156 15.886719 230.066406 22.804688 223.988281 29.078125 C 222.53125 30.585938 224.832031 32.890625 226.296875 31.386719 C 231.691406 25.824219 236.4375 19.757812 240.535156 13.1875 C 238.941406 21.050781 237.6875 28.933594 236.347656 36.824219 Z M 183.011719 50.296875 C 188.96875 44.003906 197.03125 40.207031 204.195312 35.496094 C 204.898438 35.039062 205.605469 34.519531 206.308594 34.089844 C 203.886719 40.152344 201.75 46.339844 199.898438 52.652344 C 199.863281 52.777344 199.847656 52.910156 199.851562 53.042969 C 194.335938 58.304688 189.363281 64.035156 184.929688 70.234375 C 180.808594 76.09375 177.101562 82.21875 173.382812 88.34375 C 173.46875 82.84375 173.226562 77.355469 172.648438 71.882812 L 172.648438 71.765625 C 173.238281 67.75 174.414062 63.910156 176.183594 60.253906 C 177.949219 56.59375 180.226562 53.285156 183.011719 50.324219 Z M 166.121094 64.402344 L 169.691406 72.109375 C 169.84375 72.429688 170.085938 72.648438 170.417969 72.773438 C 171.0625 79.273438 171.230469 85.785156 170.925781 92.308594 L 170.828125 92.476562 C 167.773438 97.4375 164.488281 102.359375 161.648438 107.488281 L 161.308594 107.722656 C 161.21875 93.105469 162.824219 78.675781 166.121094 64.429688 Z M 153.625 80.546875 C 152.84375 84.929688 151.738281 89.226562 150.308594 93.441406 C 148.902344 97.652344 147.761719 101.933594 146.882812 106.289062 C 144.273438 94.046875 143.441406 81.523438 145.738281 69.070312 C 145.992188 68.976562 146.191406 68.816406 146.335938 68.59375 C 148.507812 65.441406 150.078125 62.015625 151.042969 58.316406 C 151.640625 60.796875 152.277344 63.269531 152.8125 65.757812 C 154 70.648438 154.269531 75.589844 153.625 80.578125 Z M 145.691406 30.878906 C 146.921875 35.410156 145.933594 40.117188 144.710938 44.550781 C 144.253906 46.195312 143.734375 47.835938 143.332031 49.4375 C 142.140625 38.953125 140.59375 28.511719 138.695312 18.121094 C 141.484375 21.894531 143.808594 25.941406 145.660156 30.253906 C 145.609375 30.472656 145.621094 30.691406 145.691406 30.90625 Z M 149.671875 51.390625 C 149.742188 51.839844 149.820312 52.277344 149.898438 52.71875 C 149.785156 52.914062 149.710938 53.128906 149.683594 53.355469 C 149.125 58.140625 147.527344 62.558594 144.898438 66.597656 C 144.820312 66.558594 144.738281 66.527344 144.652344 66.5 C 144.59375 63.765625 144.46875 61.042969 144.261719 58.304688 C 144.351562 51.90625 147.199219 45.785156 148.175781 39.523438 C 148.832031 43.457031 149.085938 47.453125 149.671875 51.390625 Z M 135.035156 16.3125 C 137.578125 29.695312 139.535156 43.167969 140.90625 56.734375 C 140.929688 57.050781 141.039062 57.335938 141.230469 57.589844 C 141.421875 57.84375 141.664062 58.027344 141.960938 58.140625 L 141.960938 58.335938 C 141.957031 58.402344 141.957031 58.472656 141.960938 58.539062 C 142.238281 62.226562 142.371094 65.910156 142.363281 69.589844 C 142.003906 71.757812 141.726562 73.914062 141.523438 76.066406 C 139.273438 74.292969 137.273438 72.277344 135.515625 70.015625 C 133.761719 67.757812 132.308594 65.316406 131.152344 62.703125 C 131.425781 47.152344 132.722656 31.691406 135.035156 16.3125 Z M 133.265625 93.480469 C 130.660156 85.285156 130.992188 76.203125 131.0625 67.675781 C 133.386719 71.609375 136.347656 74.992188 139.9375 77.824219 C 140.132812 77.996094 140.355469 78.097656 140.613281 78.128906 C 140.871094 78.160156 141.117188 78.117188 141.347656 78 C 140.679688 89.105469 141.746094 100.042969 144.546875 110.808594 C 139.820312 105.632812 135.386719 100.132812 133.265625 93.421875 Z M 166.257812 219.101562 C 164.703125 217.292969 163.128906 215.503906 161.550781 213.71875 C 160.183594 212.15625 158.859375 210.574219 157.636719 208.949219 C 157.84375 208.71875 157.960938 208.449219 157.980469 208.140625 C 158.386719 204.460938 158.601562 200.773438 158.636719 197.074219 L 158.871094 198 C 160.640625 205.257812 163.105469 212.269531 166.257812 219.042969 Z M 155.710938 184.851562 C 156.457031 192.085938 156.476562 199.320312 155.769531 206.558594 C 152.273438 201.925781 149.257812 197 146.722656 191.78125 C 144.1875 186.558594 142.183594 181.144531 140.710938 175.535156 C 140.914062 175.492188 141.09375 175.394531 141.242188 175.25 C 141.394531 175.101562 141.492188 174.925781 141.542969 174.722656 C 142.367188 170.347656 142.699219 165.933594 142.535156 161.480469 C 142.367188 157.03125 141.710938 152.652344 140.5625 148.347656 C 140.125 146.746094 139.621094 145.164062 139.046875 143.601562 C 139.222656 143.808594 139.398438 144.003906 139.566406 144.21875 C 148.871094 155.714844 152.433594 170.394531 155.710938 184.792969 Z M 84.007812 104.390625 L 84.308594 104.597656 C 84.386719 104.738281 84.472656 104.867188 84.574219 104.988281 L 111.972656 134.613281 C 116.445312 139.449219 120.945312 144.304688 124.996094 149.480469 C 122.046875 148.398438 119.046875 147.46875 116.003906 146.6875 L 106.367188 143.945312 C 103.394531 143.214844 100.570312 142.109375 97.890625 140.632812 C 96.636719 139.933594 95.539062 139.042969 94.601562 137.957031 C 93.660156 136.875 92.933594 135.660156 92.421875 134.320312 C 92.34375 134.074219 92.199219 133.871094 91.984375 133.722656 C 91.765625 133.574219 91.527344 133.507812 91.265625 133.519531 C 89.9375 123.480469 88.253906 113.449219 84.007812 104.332031 Z M 97.707031 165.816406 C 96.429688 162.875 95.496094 159.832031 94.90625 156.679688 C 93.582031 150.59375 92.570312 144.449219 91.875 138.257812 C 94.488281 141.902344 98.859375 144.042969 103.144531 145.410156 C 109.359375 147.363281 115.738281 148.828125 121.933594 150.859375 C 124.109375 151.519531 126.160156 152.449219 128.085938 153.652344 C 130.363281 156.859375 132.367188 160.226562 134.097656 163.753906 C 135.003906 165.640625 137.824219 163.988281 136.914062 162.101562 C 131.5625 151.066406 123.214844 141.988281 114.964844 133.0625 L 95.320312 111.816406 L 111.355469 122.328125 C 119.90625 127.933594 129.144531 133.226562 136.347656 140.59375 C 136.132812 140.726562 135.984375 140.910156 135.898438 141.144531 C 135.808594 141.378906 135.804688 141.613281 135.875 141.851562 C 137.523438 145.832031 138.710938 149.941406 139.429688 154.183594 C 140.152344 158.429688 140.394531 162.699219 140.152344 166.996094 C 140.066406 168.453125 139.917969 169.925781 139.722656 171.351562 C 139.507812 170.296875 139.3125 169.234375 139.136719 168.160156 C 138.800781 166.097656 135.660156 166.976562 135.992188 169.027344 C 136.925781 174.730469 138.414062 180.285156 140.457031 185.691406 C 134.984375 180.457031 127.871094 177.125 120.671875 174.753906 C 118.273438 173.960938 115.835938 173.257812 113.402344 172.574219 C 111.648438 170.542969 108.195312 169.769531 105.574219 169.703125 C 102.117188 169.566406 99.429688 169.203125 97.726562 165.765625 Z M 114.4375 176.558594 C 114.507812 176.140625 114.53125 175.722656 114.507812 175.300781 C 122.695312 177.632812 130.964844 180.476562 137.5 186.042969 C 139.398438 187.664062 141.074219 189.492188 142.519531 191.523438 C 142.675781 191.753906 142.886719 191.921875 143.148438 192.023438 C 144.414062 194.71875 145.808594 197.347656 147.335938 199.914062 C 142.121094 199.515625 136.882812 199.914062 131.679688 199.914062 C 126.472656 199.914062 121.210938 199.359375 116.503906 197.132812 C 113.941406 195.964844 111.765625 194.289062 109.984375 192.109375 C 109.769531 191.898438 109.511719 191.789062 109.210938 191.777344 C 108.90625 191.765625 108.640625 191.859375 108.410156 192.050781 C 107.4375 190.597656 106.851562 189.003906 106.660156 187.265625 C 106.257812 181.921875 113.65625 181.394531 114.457031 176.511719 Z M 154.183594 223.09375 C 150.582031 222.769531 147.070312 222.023438 143.644531 220.859375 C 140.222656 219.691406 136.988281 218.132812 133.9375 216.1875 C 128.136719 212.449219 122.8125 208.125 117.960938 203.21875 C 116.230469 201.476562 114.566406 199.679688 112.949219 197.835938 C 115.621094 199.472656 118.492188 200.613281 121.5625 201.253906 C 127.433594 202.550781 133.519531 202.230469 139.515625 202.113281 C 142.632812 202.007812 145.742188 202.109375 148.839844 202.425781 C 151.238281 206.1875 153.878906 209.769531 156.765625 213.171875 C 160.027344 217 163.421875 220.691406 166.550781 224.558594 C 162.53125 223.777344 158.351562 223.496094 154.203125 223.046875 Z M 253.316406 253.316406 C 239.507812 261.257812 223.960938 265.332031 209.585938 272.042969 C 206.769531 273.351562 203.558594 274.789062 200.5625 276.535156 C 211.386719 263.351562 223.351562 250.808594 233.414062 237.464844 C 235.921875 238.785156 238.539062 239.84375 241.261719 240.636719 C 243.988281 241.429688 246.761719 241.945312 249.589844 242.179688 C 252.417969 242.414062 255.242188 242.367188 258.058594 242.03125 C 260.878906 241.699219 263.632812 241.085938 266.328125 240.199219 C 268.257812 239.554688 270.128906 238.773438 271.945312 237.855469 C 271.445312 238.507812 270.917969 239.152344 270.378906 239.808594 C 265.453125 245.246094 259.769531 249.734375 253.335938 253.269531 Z M 275.820312 226.652344 C 277.777344 228.027344 277.199219 229.015625 276.40625 230.625 C 275.847656 231.757812 275.234375 232.863281 274.578125 233.9375 C 274.28125 233.863281 274.011719 233.917969 273.765625 234.09375 C 271.46875 235.5 269.058594 236.664062 266.527344 237.578125 C 263.996094 238.496094 261.398438 239.152344 258.734375 239.542969 C 256.070312 239.9375 253.394531 240.058594 250.707031 239.910156 C 248.015625 239.757812 245.371094 239.339844 242.765625 238.65625 C 239.980469 237.917969 237.3125 236.875 234.761719 235.53125 C 235.742188 234.203125 236.71875 232.855469 237.648438 231.496094 C 240.105469 227.929688 242.425781 224.265625 244.546875 220.496094 C 249.792969 219.417969 254.863281 217.796875 259.761719 215.632812 C 264.660156 213.46875 269.269531 210.8125 273.597656 207.660156 C 274.578125 206.957031 275.507812 206.226562 276.4375 205.472656 C 273.355469 211.003906 269.933594 216.308594 266.164062 221.394531 C 266.035156 221.613281 265.960938 221.851562 265.945312 222.101562 C 265.925781 222.355469 265.964844 222.597656 266.0625 222.832031 C 266.15625 223.066406 266.300781 223.269531 266.488281 223.4375 C 266.679688 223.605469 266.894531 223.722656 267.140625 223.789062 C 269.121094 224.117188 271.050781 224.628906 272.933594 225.332031 C 273.972656 225.632812 274.957031 226.054688 275.886719 226.601562 Z M 265.828125 179.636719 C 270.332031 175.261719 274.511719 170.597656 278.375 165.648438 C 273.214844 175.082031 266.691406 183.457031 258.804688 190.773438 C 257.257812 192.207031 259.566406 194.503906 261.101562 193.078125 C 266.480469 188.074219 271.265625 182.554688 275.449219 176.523438 C 279.636719 170.488281 283.132812 164.082031 285.9375 157.296875 C 286.09375 167.710938 285.820312 178.179688 283.316406 188.320312 C 282.289062 192.355469 280.902344 196.261719 279.15625 200.042969 L 279.039062 200.128906 C 275.230469 203.679688 271.089844 206.785156 266.609375 209.445312 C 262.132812 212.105469 257.425781 214.257812 252.484375 215.90625 C 250.375 216.609375 248.242188 217.210938 246.082031 217.714844 C 248.820312 212.59375 251.136719 207.292969 253.03125 201.808594 C 253.707031 199.855469 250.554688 198.96875 249.878906 200.941406 C 249.578125 201.839844 249.253906 202.730469 248.902344 203.617188 C 248.539062 200.03125 249.253906 196.378906 250.015625 192.871094 C 255.613281 188.847656 260.882812 184.433594 265.828125 179.636719 Z M 225.242188 207.164062 C 230.382812 204.890625 235.359375 202.304688 240.171875 199.40625 C 242.589844 197.960938 244.949219 196.476562 247.269531 194.84375 C 246.464844 199.074219 246.023438 203.433594 247.367188 207.542969 C 241.035156 222.546875 231.40625 235.492188 220.945312 247.9375 C 219.167969 241.628906 218.222656 235.199219 218.101562 228.648438 C 217.980469 222.097656 218.695312 215.640625 220.242188 209.273438 C 221.914062 208.578125 223.597656 207.894531 225.242188 207.164062 Z M 200.945312 246.421875 C 202.316406 236.195312 202.902344 224.023438 210.183594 215.945312 C 212.304688 213.691406 214.769531 211.902344 217.570312 210.582031 C 215.382812 220.78125 215.203125 231.015625 217.03125 241.285156 C 217.566406 244.253906 218.269531 247.183594 219.144531 250.074219 C 211.269531 259.355469 203.019531 268.398438 195.425781 277.886719 C 197.703125 267.484375 199.542969 256.996094 200.945312 246.421875 Z M 217.679688 115.792969 C 220.179688 112.707031 222.226562 109.34375 223.8125 105.703125 C 225.207031 101.808594 226.335938 97.839844 227.199219 93.792969 C 227.683594 91.804688 228.28125 89.851562 228.988281 87.933594 C 229.742188 85.929688 231.074219 81.699219 233.792969 83.734375 C 235.339844 84.894531 235.859375 86.945312 236.730469 88.617188 C 237.433594 90.074219 238.445312 91.277344 239.761719 92.222656 C 237.980469 100.648438 236.207031 109.082031 234.441406 117.519531 C 234.007812 119.582031 233.570312 121.644531 233.136719 123.703125 C 229.425781 127.324219 225.644531 130.867188 221.789062 134.332031 C 213.8125 141.460938 205.613281 148.59375 198.765625 156.699219 C 201.710938 141.628906 208.324219 128.070312 217.679688 115.792969 Z M 218.050781 155.15625 C 211.769531 156.269531 205.542969 157.109375 199.96875 160.042969 C 200.800781 159.007812 201.660156 158 202.539062 157.003906 C 208.136719 150.703125 214.457031 145.117188 220.761719 139.519531 C 220.761719 139.832031 220.886719 140.085938 221.132812 140.28125 C 227.550781 146.023438 236.339844 146.003906 244.460938 144.84375 L 242.042969 146.113281 C 234.421875 150.136719 226.601562 153.644531 218.050781 155.15625 Z M 274.449219 126.144531 C 271.023438 128.6875 267.453125 131.03125 263.882812 133.355469 C 259.675781 136.082031 255.390625 138.6875 251.035156 141.167969 C 250.207031 141.417969 249.371094 141.625 248.519531 141.785156 C 246.25 142.242188 243.941406 142.597656 241.671875 142.851562 C 237.277344 143.328125 232.765625 143.339844 228.539062 141.871094 C 226.40625 141.164062 224.496094 140.070312 222.804688 138.589844 C 222.613281 138.414062 222.390625 138.3125 222.128906 138.289062 L 224.085938 136.550781 C 231.914062 129.535156 239.417969 122.191406 246.59375 114.511719 C 249.261719 115.738281 252.050781 116.585938 254.953125 117.046875 C 257.855469 117.511719 260.765625 117.574219 263.6875 117.238281 C 263.839844 117.234375 263.988281 117.203125 264.128906 117.140625 C 264.269531 117.082031 264.394531 116.996094 264.5 116.890625 C 264.609375 116.78125 264.695312 116.65625 264.753906 116.515625 C 264.816406 116.375 264.847656 116.226562 264.851562 116.074219 C 264.847656 115.921875 264.816406 115.773438 264.757812 115.632812 C 264.699219 115.492188 264.613281 115.367188 264.503906 115.257812 C 264.394531 115.148438 264.269531 115.066406 264.128906 115.007812 C 263.988281 114.945312 263.839844 114.914062 263.6875 114.914062 C 261.0625 115.230469 258.4375 115.203125 255.820312 114.832031 C 253.203125 114.460938 250.675781 113.753906 248.246094 112.714844 C 255.9375 104.367188 263.210938 95.660156 270.066406 86.59375 C 271.339844 84.925781 268.5 83.304688 267.25 84.953125 C 257.675781 97.554688 247.296875 109.453125 236.101562 120.648438 L 240.664062 98.941406 L 242.246094 91.429688 C 242.253906 91.355469 242.253906 91.28125 242.246094 91.207031 C 246.160156 86.449219 250.273438 81.613281 255.390625 78.066406 C 260.867188 74.265625 267.230469 72.207031 273.394531 69.773438 C 278.804688 67.695312 284.390625 65.113281 288.910156 61.441406 C 287.074219 64.226562 284.910156 66.722656 282.410156 68.9375 C 279.914062 71.148438 277.171875 73 274.1875 74.492188 C 272.308594 75.46875 273.949219 78.234375 275.828125 77.304688 C 279.601562 75.410156 282.996094 72.988281 286.011719 70.039062 C 289.027344 67.089844 291.523438 63.75 293.5 60.023438 C 292.972656 65.128906 292.042969 70.160156 290.710938 75.113281 C 289.375 80.070312 287.65625 84.890625 285.554688 89.570312 C 283.449219 94.25 280.984375 98.738281 278.164062 103.023438 C 275.339844 107.3125 272.195312 111.351562 268.726562 115.136719 C 268.5 115.375 268.359375 115.652344 268.300781 115.972656 C 268.242188 116.292969 268.273438 116.601562 268.398438 116.902344 C 268.523438 117.203125 268.722656 117.445312 268.988281 117.628906 C 269.257812 117.816406 269.554688 117.910156 269.878906 117.921875 C 273.625 118.015625 277.335938 118.410156 281.015625 119.113281 C 279.566406 122.042969 277.050781 124.222656 274.449219 126.144531 Z M 274.449219 126.144531 " fill-opacity="1" fill-rule="nonzero"/></g></svg>