<svg xmlns="http://www.w3.org/2000/svg" xmlns:xlink="http://www.w3.org/1999/xlink" width="500" zoomAndPan="magnify" viewBox="0 0 375 374.999991" height="500" preserveAspectRatio="xMidYMid meet" version="1.0"><defs><clipPath id="id1"><path d="M 147 1 L 330.75 1 L 330.75 272 L 147 272 Z M 147 1 " clip-rule="nonzero"/></clipPath><clipPath id="id2"><path d="M 37.5 104 L 222 104 L 222 375 L 37.5 375 Z M 37.5 104 " clip-rule="nonzero"/></clipPath></defs><path fill="#e7c793" d="M 233.058594 69.890625 C 232.824219 71.105469 232.597656 72.320312 232.375 73.53125 C 232.792969 72.269531 233.246094 71.035156 233.753906 69.804688 C 233.535156 69.929688 233.300781 69.957031 233.058594 69.890625 Z M 233.058594 69.890625 " fill-opacity="1" fill-rule="nonzero"/><path fill="#e7c793" d="M 233.578125 109.167969 C 233.496094 109.199219 233.410156 109.21875 233.324219 109.226562 L 233.765625 109.824219 C 233.695312 109.609375 233.636719 109.394531 233.578125 109.167969 Z M 233.578125 109.167969 " fill-opacity="1" fill-rule="nonzero"/><g clip-path="url(#id1)"><path fill="#99a799" d="M 330.054688 64.078125 C 326.710938 61.804688 323.722656 59.132812 321.09375 56.066406 C 318.652344 53.09375 316.546875 49.90625 314.773438 46.496094 C 311.589844 40.710938 307.261719 34.078125 299.652344 35.300781 C 297.625 35.6875 295.746094 36.4375 294.011719 37.550781 C 292.296875 38.597656 290.828125 40.136719 289.113281 41.105469 C 288.007812 41.710938 287.671875 41.203125 287.429688 40.125 C 287.183594 39.046875 287.105469 38.167969 286.96875 37.191406 C 286.675781 35.144531 286.378906 33.097656 285.890625 31.09375 C 284.96875 27.316406 283.285156 23.714844 280.152344 21.308594 C 277.515625 19.28125 273.941406 18.058594 270.648438 19.105469 C 269.015625 19.738281 267.550781 20.640625 266.253906 21.816406 C 265.027344 22.796875 263.570312 23.988281 261.902344 23.550781 C 260.09375 23.078125 258.808594 21.230469 257.613281 19.917969 C 256.261719 18.421875 254.832031 16.984375 253.34375 15.632812 C 247.285156 9.976562 240.367188 5.714844 232.589844 2.851562 C 225.410156 0.359375 217.328125 0.125 211.453125 5.445312 C 208.945312 7.707031 207.035156 10.523438 204.675781 12.921875 C 203.542969 14.132812 202.234375 15.109375 200.757812 15.859375 C 198.730469 16.707031 196.625 17.03125 194.4375 16.835938 C 190.140625 16.660156 186.074219 16.09375 181.792969 16.835938 C 177.71875 17.621094 173.890625 19.066406 170.316406 21.171875 C 162.859375 25.417969 156.964844 31.796875 151.636719 38.421875 C 150.246094 40.144531 148.882812 41.894531 147.523438 43.648438 C 147.375 43.804688 147.265625 43.988281 147.199219 44.195312 C 147.132812 44.402344 147.113281 44.613281 147.144531 44.828125 C 147.171875 45.042969 147.246094 45.242188 147.363281 45.425781 C 147.480469 45.605469 147.632812 45.753906 147.816406 45.867188 C 162.011719 55.796875 176 66.015625 189.777344 76.527344 C 196.671875 81.785156 203.511719 87.113281 210.296875 92.515625 C 213.640625 95.164062 216.964844 97.839844 220.265625 100.539062 C 223.390625 102.953125 226.3125 105.589844 229.03125 108.445312 C 234.429688 114.40625 236.945312 122.066406 238.269531 129.855469 C 239.738281 138.5625 239.738281 147.46875 239.601562 156.277344 C 239.308594 174.027344 238.925781 191.777344 238.621094 209.515625 C 238.320312 227.257812 237.945312 245.242188 237.644531 263.109375 L 237.515625 269.707031 C 237.53125 269.882812 237.578125 270.050781 237.65625 270.210938 C 237.734375 270.371094 237.835938 270.511719 237.96875 270.632812 C 238.101562 270.753906 238.25 270.84375 238.414062 270.910156 C 238.582031 270.972656 238.753906 271.007812 238.929688 271.007812 C 239.109375 271.007812 239.28125 270.972656 239.445312 270.910156 C 239.613281 270.84375 239.761719 270.753906 239.890625 270.632812 C 240.023438 270.511719 240.128906 270.371094 240.207031 270.210938 C 240.285156 270.050781 240.332031 269.882812 240.347656 269.707031 L 241.375 215.328125 L 242.402344 161.21875 C 242.492188 156.765625 242.589844 152.3125 242.539062 147.851562 C 242.820312 147.847656 243.0625 147.753906 243.273438 147.566406 C 243.480469 147.378906 243.601562 147.148438 243.636719 146.871094 C 245.820312 133.40625 248.300781 118.417969 257.886719 107.996094 C 263.492188 101.910156 271.238281 98.367188 278.40625 94.492188 L 302.542969 81.351562 L 330.023438 66.527344 C 330.132812 66.464844 330.226562 66.386719 330.316406 66.300781 C 330.402344 66.214844 330.476562 66.117188 330.539062 66.011719 C 330.601562 65.90625 330.648438 65.792969 330.679688 65.671875 C 330.710938 65.554688 330.730469 65.433594 330.730469 65.3125 C 330.734375 65.1875 330.71875 65.066406 330.6875 64.945312 C 330.660156 64.828125 330.613281 64.714844 330.554688 64.605469 C 330.496094 64.5 330.421875 64.398438 330.339844 64.308594 C 330.253906 64.222656 330.160156 64.144531 330.054688 64.078125 Z M 320.621094 59.726562 C 320.488281 59.761719 320.367188 59.824219 320.261719 59.910156 C 308.371094 69.304688 294.117188 74.851562 280.472656 81.105469 C 267.371094 87.125 253.8125 94.648438 246.476562 107.613281 C 243.941406 112.109375 242.367188 116.914062 241.746094 122.035156 C 241.441406 116.664062 241.746094 111.273438 244.058594 106.3125 C 245.71875 102.859375 247.75 99.644531 250.160156 96.664062 C 253.527344 92.332031 257.316406 88.40625 261.523438 84.878906 C 265.730469 81.355469 270.261719 78.3125 275.117188 75.753906 C 281.648438 72.300781 288.632812 69.832031 295.519531 67.179688 C 303.207031 64.246094 310.886719 61.015625 317.566406 56.132812 C 318.519531 57.378906 319.539062 58.578125 320.621094 59.726562 Z M 282.601562 30.015625 C 283.1875 31.941406 283.617188 33.898438 283.894531 35.886719 C 284.054688 37.804688 284.382812 39.695312 284.871094 41.554688 C 285.046875 42.0625 285.300781 42.53125 285.636719 42.953125 C 285.273438 42.835938 284.949219 42.894531 284.65625 43.140625 C 280.054688 46.75 274.429688 48.707031 268.984375 50.664062 C 266.644531 51.515625 264.304688 52.375 262.019531 53.363281 C 263.207031 52.550781 264.363281 51.71875 265.488281 50.839844 C 270.03125 47.277344 274.007812 43.167969 277.429688 38.519531 C 279.339844 35.898438 281.039062 33.148438 282.519531 30.261719 C 282.558594 30.183594 282.585938 30.101562 282.601562 30.015625 Z M 276.203125 22.1875 C 277.609375 22.855469 278.832031 23.765625 279.871094 24.921875 C 280.910156 26.074219 281.683594 27.386719 282.199219 28.851562 C 282.089844 28.761719 281.96875 28.695312 281.832031 28.660156 C 281.695312 28.625 281.558594 28.621094 281.417969 28.648438 C 281.28125 28.675781 281.15625 28.734375 281.042969 28.820312 C 280.929688 28.90625 280.839844 29.011719 280.777344 29.136719 C 278.132812 34.289062 274.824219 38.972656 270.847656 43.1875 C 268.882812 45.265625 266.789062 47.203125 264.558594 48.992188 C 262.296875 50.800781 259.867188 52.347656 257.488281 53.980469 C 254.769531 55.703125 252.433594 57.839844 250.472656 60.390625 C 250.355469 60.539062 250.296875 60.710938 250.296875 60.898438 C 249.632812 61.515625 248.984375 62.152344 248.339844 62.855469 C 249.316406 61.417969 250.367188 60.007812 251.492188 58.667969 C 253.34375 56.464844 255.320312 54.390625 257.289062 52.296875 C 261.160156 48.273438 264.648438 43.945312 267.761719 39.3125 C 271.171875 34.082031 273.957031 28.539062 276.117188 22.679688 C 276.179688 22.539062 276.210938 22.390625 276.203125 22.238281 Z M 253.390625 19.597656 L 253.570312 19.761719 C 254.929688 21.132812 256.15625 22.699219 257.546875 24 C 258.5 24.96875 259.628906 25.660156 260.925781 26.074219 C 260.246094 28.484375 259.195312 30.726562 257.78125 32.796875 C 256.136719 35.332031 254.34375 37.765625 252.550781 40.195312 C 250.992188 42.308594 249.414062 44.402344 247.847656 46.515625 C 250.371094 40.921875 252.046875 35.085938 252.875 29.007812 C 253.285156 25.902344 253.457031 22.78125 253.390625 19.644531 Z M 248.925781 15.535156 C 249.808594 16.257812 250.667969 17.011719 251.503906 17.785156 C 251.386719 17.964844 251.332031 18.160156 251.34375 18.371094 C 251.460938 21.386719 251.351562 24.390625 251.015625 27.390625 C 250.683594 30.386719 250.132812 33.34375 249.359375 36.257812 C 248.589844 39.175781 247.605469 42.015625 246.414062 44.785156 C 245.21875 47.558594 243.828125 50.222656 242.234375 52.789062 C 242.914062 51.015625 243.507812 49.226562 244.007812 47.40625 C 245.097656 43.546875 245.609375 39.613281 245.535156 35.605469 C 245.332031 31.464844 244.714844 27.386719 243.6875 23.371094 C 242.496094 18.910156 241.546875 14.402344 240.835938 9.839844 C 243.675781 11.550781 246.375 13.464844 248.925781 15.582031 Z M 230.582031 5.171875 C 233.582031 6.105469 236.453125 7.339844 239.191406 8.882812 C 238.910156 9.070312 238.785156 9.328125 238.808594 9.664062 C 239.789062 17.765625 242.726562 25.515625 243.410156 33.667969 C 244.039062 41.621094 241.785156 49.324219 238.515625 56.515625 C 237.902344 57.859375 237.246094 59.183594 236.554688 60.488281 C 236.210938 60.890625 235.878906 61.28125 235.527344 61.664062 C 235.378906 61.816406 235.289062 61.996094 235.261719 62.210938 C 235.234375 62.421875 235.269531 62.621094 235.371094 62.808594 C 234.851562 63.785156 234.324219 64.765625 233.792969 65.742188 C 234.195312 63.621094 234.585938 61.484375 234.988281 59.363281 C 236.046875 54.589844 236.808594 49.769531 237.269531 44.898438 C 237.839844 35.515625 233.792969 27.042969 230.941406 18.351562 C 229.601562 14.183594 228.4375 9.261719 230.582031 5.171875 Z M 219.808594 4.46875 C 219.84375 4.382812 219.867188 4.292969 219.886719 4.203125 C 222.570312 3.75 225.238281 3.835938 227.886719 4.457031 L 228.632812 4.644531 C 226.957031 8.167969 227.269531 12.199219 228.191406 15.917969 C 229.289062 20.300781 231.128906 24.488281 232.550781 28.746094 C 234.183594 33.070312 235.121094 37.542969 235.371094 42.160156 C 235.476562 47.171875 234.390625 52.113281 233.410156 57.003906 C 232.386719 62.5625 231.351562 68.125 230.304688 73.6875 C 230.265625 73.90625 230.289062 74.121094 230.378906 74.324219 C 230.46875 74.527344 230.609375 74.6875 230.800781 74.804688 C 230.992188 74.921875 231.199219 74.972656 231.421875 74.957031 C 231.648438 74.941406 231.84375 74.863281 232.019531 74.726562 C 230.921875 78.277344 230.25 81.90625 230.003906 85.617188 C 229.894531 83.179688 230.003906 80.722656 230.070312 78.269531 C 230.324219 72.023438 230.582031 65.871094 229.355469 59.675781 C 226.945312 47.503906 220.542969 36.535156 218.277344 24.3125 C 217.023438 17.738281 217.015625 10.699219 219.765625 4.46875 Z M 233.753906 69.832031 C 233.246094 71.066406 232.773438 72.300781 232.375 73.5625 C 232.597656 72.347656 232.824219 71.132812 233.058594 69.921875 C 233.300781 69.988281 233.535156 69.957031 233.753906 69.832031 Z M 212.429688 9.792969 C 212.484375 9.597656 212.476562 9.40625 212.410156 9.21875 C 212.34375 9.027344 212.230469 8.875 212.070312 8.753906 C 213.402344 7.296875 214.957031 6.128906 216.730469 5.25 C 216.960938 5.136719 217.195312 5.035156 217.4375 4.949219 C 213.195312 16.152344 216.527344 28.433594 220.523438 39.253906 C 222.734375 45.242188 225.175781 51.171875 226.730469 57.375 C 227.519531 60.429688 228.011719 63.53125 228.199219 66.683594 C 228.378906 69.851562 228.199219 73.023438 228.113281 76.195312 C 227.796875 80.558594 227.832031 84.925781 228.21875 89.285156 C 227.21875 86.503906 226.453125 83.660156 225.929688 80.753906 C 224.949219 74.414062 226.761719 68.03125 226.769531 61.730469 C 226.828125 58.636719 226.296875 55.652344 225.175781 52.769531 C 224.03125 50.113281 222.613281 47.617188 220.921875 45.273438 C 219.277344 42.875 217.542969 40.535156 216.113281 38 C 214.640625 35.398438 213.5 32.660156 212.6875 29.78125 C 211.757812 26.519531 211.273438 23.195312 211.230469 19.804688 C 211.1875 16.414062 211.589844 13.074219 212.429688 9.792969 Z M 201.941406 18.402344 C 204.957031 17.003906 207.199219 14.410156 209.296875 11.914062 L 210.082031 10.9375 C 208.957031 16.296875 208.921875 21.667969 209.972656 27.042969 C 211.21875 32.949219 213.601562 38.351562 217.121094 43.257812 C 220.472656 48.148438 224.085938 52.933594 224.636719 59.019531 C 225.105469 64.304688 223.941406 69.53125 223.65625 74.804688 C 223.507812 74.285156 223.371094 73.765625 223.226562 73.257812 C 221.351562 67.253906 219.007812 61.4375 216.191406 55.8125 L 207.574219 37.785156 L 202.832031 27.855469 C 201.511719 25.085938 200.207031 22.199219 200.003906 19.105469 C 200.671875 18.929688 201.324219 18.695312 201.949219 18.402344 Z M 189.796875 19.378906 C 192.527344 19.71875 195.261719 19.777344 198.003906 19.558594 C 198.3125 22.082031 199.023438 24.488281 200.128906 26.777344 C 201.460938 29.714844 202.929688 32.648438 204.339844 35.585938 L 213.046875 53.796875 C 215.839844 59.667969 218.699219 65.460938 220.667969 71.644531 C 221.707031 74.890625 222.53125 78.191406 223.292969 81.507812 C 220.042969 74.296875 215.222656 67.808594 210.089844 61.789062 C 203.019531 53.492188 195.132812 45.839844 189.011719 36.769531 C 185.484375 31.742188 182.875 26.277344 181.175781 20.378906 C 181.128906 20.195312 181.035156 20.039062 180.894531 19.910156 C 183.832031 19.257812 186.804688 19.0625 189.804688 19.332031 Z M 179.257812 20.417969 C 179.199219 20.609375 179.199219 20.800781 179.257812 20.996094 C 182.105469 31.535156 188.628906 40.496094 195.664062 48.667969 C 202.695312 56.839844 210.640625 64.617188 216.664062 73.757812 C 218.730469 76.855469 220.496094 80.117188 221.960938 83.542969 C 217.613281 77.148438 212.6875 71.230469 207.191406 65.792969 C 205.054688 63.683594 202.847656 61.664062 200.558594 59.734375 C 198.152344 57.699219 195.664062 55.820312 193.214844 53.757812 C 190.792969 51.734375 188.582031 49.503906 186.582031 47.0625 C 184.574219 44.585938 182.773438 41.953125 180.816406 39.429688 C 177.113281 34.65625 172.800781 29.929688 171.285156 23.949219 C 173.789062 22.429688 176.445312 21.253906 179.257812 20.417969 Z M 169.460938 25.085938 C 170.890625 30.132812 174.222656 34.382812 177.453125 38.453125 C 181.371094 43.34375 184.730469 48.746094 189.324219 53.042969 C 191.6875 55.253906 194.222656 57.230469 196.78125 59.265625 C 199.136719 61.164062 201.421875 63.144531 203.636719 65.203125 C 208.003906 69.3125 212.035156 73.722656 215.730469 78.445312 C 219.695312 83.527344 223.214844 88.902344 226.289062 94.570312 L 226.289062 94.648438 C 224.703125 91.898438 223.039062 89.199219 221.1875 86.613281 C 217.5 81.421875 213.039062 77.003906 207.808594 73.367188 C 205.125 71.496094 202.332031 69.792969 199.601562 68.003906 C 196.867188 66.210938 193.976562 64.175781 191.265625 62.132812 C 185.964844 58.113281 180.941406 53.773438 176.191406 49.117188 C 171.128906 44.15625 166.503906 38.675781 163.390625 32.257812 C 162.820312 31.09375 161.078125 32.109375 161.644531 33.285156 C 164.523438 38.929688 168.207031 43.988281 172.695312 48.460938 C 177.332031 53.210938 182.265625 57.625 187.503906 61.703125 C 192.773438 65.851562 198.347656 69.53125 203.960938 73.160156 C 206.761719 74.914062 209.417969 76.871094 211.921875 79.03125 C 214.191406 81.070312 216.253906 83.300781 218.113281 85.722656 C 220.976562 89.515625 223.53125 93.507812 225.78125 97.691406 C 218.40625 88.789062 210.082031 80.886719 200.804688 73.980469 C 190.746094 66.613281 179.667969 60.644531 170.097656 52.589844 C 165.015625 48.457031 160.675781 43.65625 157.074219 38.1875 C 156.953125 37.988281 156.785156 37.847656 156.566406 37.769531 C 156.34375 37.691406 156.125 37.691406 155.90625 37.765625 C 159.863281 32.925781 164.390625 28.699219 169.492188 25.085938 Z M 217.457031 94.667969 C 210.644531 89.1875 203.789062 83.78125 196.886719 78.445312 C 183.039062 67.757812 168.964844 57.363281 154.671875 47.257812 C 153.300781 46.28125 151.921875 45.300781 150.53125 44.324219 C 152.007812 42.445312 153.527344 40.527344 155.113281 38.648438 C 155.101562 38.851562 155.15625 39.039062 155.269531 39.207031 C 161.636719 49.214844 171.167969 56.574219 180.902344 63.101562 C 186.289062 66.710938 191.804688 70.136719 197.113281 73.863281 C 202.226562 77.433594 207.058594 81.347656 211.609375 85.605469 C 216.652344 90.386719 221.371094 95.46875 225.761719 100.851562 C 225.867188 100.976562 225.992188 101.0625 226.144531 101.121094 C 226.296875 101.175781 226.453125 101.1875 226.609375 101.160156 C 226.769531 101.136719 226.910156 101.070312 227.035156 100.96875 C 227.160156 100.863281 227.253906 100.738281 227.308594 100.585938 C 227.859375 101.617188 228.40625 102.644531 228.945312 103.671875 C 229.011719 103.8125 229.109375 103.925781 229.238281 104.011719 C 229.347656 104.316406 229.472656 104.609375 229.589844 104.902344 C 225.753906 101.265625 221.726562 97.855469 217.503906 94.667969 Z M 229.808594 99.6875 C 230.164062 99.621094 230.464844 99.457031 230.707031 99.1875 C 230.972656 101 231.265625 102.820312 231.589844 104.621094 C 230.96875 102.996094 230.390625 101.351562 229.855469 99.6875 Z M 234.859375 72.289062 C 238.984375 61.230469 246.410156 51.867188 253.371094 42.492188 C 255.332031 39.78125 257.398438 37.070312 259.25 34.253906 C 260.933594 31.863281 262.144531 29.253906 262.882812 26.425781 C 264.230469 26.347656 265.449219 25.910156 266.535156 25.113281 C 267.824219 24.027344 269.1875 23.046875 270.628906 22.179688 C 271.867188 21.613281 273.152344 21.480469 274.480469 21.777344 C 274.332031 21.902344 274.21875 22.058594 274.148438 22.238281 C 272.230469 27.402344 269.804688 32.320312 266.871094 36.984375 C 263.871094 41.683594 260.453125 46.058594 256.613281 50.105469 C 252.648438 54.351562 248.699219 58.53125 245.535156 63.421875 C 242.375 68.316406 239.453125 73.589844 236.613281 78.757812 C 234.9375 81.820312 233.332031 84.910156 231.863281 88.074219 C 231.976562 82.617188 233.007812 77.339844 234.957031 72.238281 Z M 233.273438 90.117188 C 232.8125 92.238281 232.507812 94.382812 232.363281 96.546875 C 232.207031 95.273438 232.089844 93.992188 232 92.710938 C 232.460938 91.613281 232.980469 90.539062 233.429688 89.453125 C 233.429688 89.628906 233.371094 89.84375 233.324219 90.070312 Z M 237.75 117.332031 C 237.5625 116.859375 237.367188 116.351562 237.164062 115.941406 C 236.125 101.644531 238.894531 86.585938 248.679688 75.566406 C 251.144531 72.875 253.925781 70.558594 257.023438 68.617188 C 260.117188 66.679688 263.417969 65.191406 266.917969 64.148438 C 270.671875 62.953125 274.488281 61.964844 278.152344 60.496094 C 281.378906 59.226562 284.488281 57.714844 287.476562 55.957031 C 294.316406 51.9375 300.261719 46.871094 305.3125 40.761719 C 306.125 39.78125 304.707031 38.335938 303.882812 39.332031 C 299.335938 44.847656 294.035156 49.5 287.976562 53.296875 C 284.96875 55.183594 281.828125 56.816406 278.554688 58.1875 C 274.933594 59.601562 271.25 60.828125 267.507812 61.867188 C 263.695312 62.972656 260.066406 64.503906 256.613281 66.457031 C 253.523438 68.277344 250.742188 70.484375 248.261719 73.070312 C 243.425781 78.210938 239.933594 84.140625 237.789062 90.863281 C 236.152344 95.996094 235.21875 101.257812 235 106.644531 C 232.84375 95.882812 235.871094 84.550781 241.578125 75.144531 C 244.753906 69.746094 248.707031 64.988281 253.429688 60.871094 C 257.90625 57.09375 263.3125 54.941406 268.761719 52.964844 C 274.792969 50.78125 280.925781 48.667969 286.027344 44.65625 C 286.179688 44.558594 286.28125 44.421875 286.339844 44.253906 C 286.394531 44.082031 286.394531 43.914062 286.332031 43.746094 C 286.941406 44.167969 287.617188 44.359375 288.359375 44.3125 C 290.316406 44.207031 291.828125 42.550781 293.316406 41.464844 C 296.378906 39.214844 300.21875 37.0625 304.089844 38.53125 C 307.027344 39.644531 309.046875 42.445312 310.613281 45.097656 C 310.613281 45.097656 310.613281 45.164062 310.679688 45.195312 C 306.070312 50.375 300.605469 54.394531 294.285156 57.25 C 290.914062 58.621094 287.476562 59.800781 283.972656 60.78125 C 280.457031 61.84375 277.179688 63.398438 274.136719 65.449219 C 271.125 67.65625 268.230469 70.011719 265.460938 72.515625 L 256.066406 80.597656 C 250.523438 85.351562 244.871094 90.089844 241.648438 96.800781 C 240.195312 100.011719 239.144531 103.347656 238.492188 106.808594 C 237.84375 110.273438 237.613281 113.761719 237.800781 117.28125 Z M 238.886719 120.453125 C 239.148438 120.46875 239.382812 120.394531 239.589844 120.238281 C 239.589844 121.3125 239.671875 122.378906 239.757812 123.457031 C 239.542969 122.398438 239.257812 121.390625 238.933594 120.402344 Z M 239.75 115.011719 C 239.710938 109.644531 240.667969 104.460938 242.617188 99.460938 C 243.9375 96.238281 245.757812 93.328125 248.074219 90.722656 C 250.5625 88.046875 253.21875 85.550781 256.046875 83.238281 L 265.164062 75.410156 C 268.027344 72.953125 270.828125 70.390625 273.851562 68.128906 C 276.773438 65.917969 279.972656 64.226562 283.441406 63.050781 C 286.839844 61.90625 290.296875 61.09375 293.648438 59.675781 C 297.097656 58.25 300.347656 56.464844 303.398438 54.316406 C 306.453125 52.171875 309.230469 49.71875 311.738281 46.957031 C 313.082031 49.5 314.550781 51.96875 316.144531 54.363281 L 316.273438 54.539062 C 304.070312 63.34375 288.976562 66.535156 275.636719 73.1875 C 269 76.511719 262.949219 80.683594 257.488281 85.703125 C 254.703125 88.261719 252.121094 91.003906 249.738281 93.933594 C 247.277344 96.863281 245.117188 99.996094 243.253906 103.335938 C 241.320312 106.980469 240.167969 110.855469 239.796875 114.960938 Z M 242.078125 138.691406 C 241.980469 137.339844 241.863281 135.980469 241.71875 134.628906 C 241.601562 133.542969 241.460938 132.449219 241.304688 131.363281 L 241.679688 131.363281 C 241.679688 131.46875 241.679688 131.578125 241.679688 131.695312 C 241.695312 131.957031 241.796875 132.183594 241.984375 132.367188 C 242.167969 132.554688 242.394531 132.65625 242.65625 132.671875 C 242.898438 132.664062 243.109375 132.582031 243.292969 132.429688 C 242.941406 134.472656 242.511719 136.558594 242.128906 138.640625 Z M 279.035156 90.851562 C 271.628906 94.855469 263.519531 98.464844 257.378906 104.363281 C 252.257812 109.257812 248.796875 115.597656 246.390625 122.222656 C 245.34375 125.109375 244.460938 128.042969 243.746094 131.03125 C 243.324219 127.453125 243.425781 123.890625 244.046875 120.34375 C 244.667969 116.796875 245.78125 113.410156 247.386719 110.1875 C 250.636719 104.0625 255.035156 98.925781 260.582031 94.765625 C 266.457031 90.167969 273.1875 86.683594 279.957031 83.53125 C 286.722656 80.382812 293.667969 77.464844 300.40625 74.195312 C 307.972656 70.671875 315.070312 66.371094 321.699219 61.300781 C 321.796875 61.222656 321.878906 61.132812 321.945312 61.027344 C 322.621094 61.691406 323.316406 62.335938 324.039062 62.984375 C 324.765625 63.628906 325.804688 64.429688 326.714844 65.117188 Z M 279.035156 90.851562 " fill-opacity="1" fill-rule="nonzero"/></g><g clip-path="url(#id2)"><path fill="#99a799" d="M 220.757812 146.96875 C 210.804688 134.160156 198.308594 119.171875 180.402344 119.707031 C 176.222656 119.835938 171.589844 121.085938 167.601562 119.210938 C 164.59375 117.78125 162.488281 115.011719 160.394531 112.527344 C 158.121094 109.84375 155.699219 107.261719 152.429688 105.832031 C 150.675781 105.128906 148.859375 104.683594 146.976562 104.5 C 145.097656 104.316406 143.230469 104.398438 141.371094 104.746094 C 133.535156 105.960938 126.003906 110.273438 119.753906 115.011719 C 116.429688 117.523438 113.367188 120.320312 110.566406 123.40625 C 109.421875 124.679688 108.167969 126.421875 106.425781 126.878906 C 104.679688 127.339844 103.191406 126.03125 101.9375 125.03125 C 99.148438 122.808594 96.285156 121.460938 92.664062 122.378906 C 90.972656 122.859375 89.4375 123.640625 88.054688 124.722656 C 86.675781 125.804688 85.550781 127.109375 84.679688 128.632812 C 82.585938 132.261719 81.957031 136.460938 81.371094 140.53125 C 81.222656 141.507812 81.125 142.488281 80.898438 143.464844 C 80.675781 144.445312 80.28125 145.003906 79.214844 144.445312 C 77.394531 143.464844 75.886719 141.851562 74.082031 140.785156 C 70.832031 138.828125 66.921875 137.734375 63.238281 139.132812 C 60.183594 140.285156 57.96875 142.714844 56.179688 145.363281 C 54.21875 148.300781 52.761719 151.5 50.871094 154.457031 C 48.691406 157.859375 46.097656 160.917969 43.09375 163.625 C 41.550781 165.007812 39.917969 166.277344 38.195312 167.429688 C 38.089844 167.496094 37.996094 167.570312 37.910156 167.660156 C 37.828125 167.75 37.753906 167.847656 37.695312 167.953125 C 37.636719 168.0625 37.589844 168.171875 37.558594 168.292969 C 37.527344 168.410156 37.511719 168.53125 37.511719 168.652344 C 37.511719 168.777344 37.527344 168.898438 37.558594 169.015625 C 37.589844 169.132812 37.636719 169.246094 37.695312 169.355469 C 37.753906 169.460938 37.828125 169.558594 37.910156 169.648438 C 37.996094 169.734375 38.089844 169.8125 38.195312 169.875 L 86.640625 196.011719 C 90.558594 198.125 94.476562 200.191406 98.394531 202.355469 C 102.03125 204.265625 105.394531 206.578125 108.480469 209.292969 C 113.585938 214.027344 117.003906 220.203125 119.324219 226.699219 C 122.027344 234.273438 123.417969 242.238281 124.710938 250.183594 C 124.746094 250.460938 124.867188 250.691406 125.074219 250.878906 C 125.285156 251.066406 125.527344 251.160156 125.808594 251.164062 C 125.808594 253.375 125.808594 255.574219 125.808594 257.777344 C 126.042969 275.871094 126.484375 293.984375 126.789062 312.035156 L 127.765625 366.15625 L 127.894531 373.007812 C 127.894531 374.828125 130.765625 374.828125 130.726562 373.007812 C 130.390625 355.152344 130.066406 337.292969 129.746094 319.425781 C 129.425781 301.554688 129.097656 283.78125 128.765625 266.09375 C 128.597656 257.394531 128.335938 248.65625 129.109375 239.96875 C 129.832031 231.894531 131.390625 223.460938 135.679688 216.484375 C 139.871094 209.632812 146.796875 204.820312 152.949219 199.847656 C 159.707031 194.414062 166.515625 189.050781 173.378906 183.753906 C 187.09375 173.183594 201.03125 162.898438 215.195312 152.890625 L 220.433594 149.210938 C 220.625 149.097656 220.78125 148.953125 220.902344 148.769531 C 221.027344 148.585938 221.105469 148.386719 221.136719 148.167969 C 221.167969 147.949219 221.148438 147.734375 221.082031 147.527344 C 221.015625 147.316406 220.90625 147.128906 220.757812 146.96875 Z M 212.507812 141.097656 C 212.28125 140.992188 212.050781 140.976562 211.808594 141.050781 C 211.570312 141.121094 211.386719 141.265625 211.257812 141.480469 C 204.890625 151.492188 195.242188 158.75 185.496094 165.230469 C 180.179688 168.769531 174.722656 172.148438 169.539062 175.835938 C 164.464844 179.414062 159.660156 183.328125 155.132812 187.578125 C 150.675781 191.804688 146.480469 196.269531 142.546875 200.984375 C 144.445312 197.5 146.53125 194.140625 148.816406 190.894531 C 150.582031 188.410156 152.542969 186.082031 154.691406 183.917969 C 157.066406 181.621094 159.632812 179.558594 162.390625 177.734375 C 165.09375 175.894531 167.894531 174.191406 170.617188 172.371094 C 173.339844 170.550781 176.222656 168.507812 178.925781 166.441406 C 184.203125 162.417969 189.210938 158.085938 193.949219 153.4375 C 198.972656 148.457031 203.585938 142.9375 206.683594 136.539062 C 207.25 135.375 205.507812 134.355469 204.9375 135.558594 C 202.058594 141.222656 198.351562 146.28125 193.820312 150.738281 C 189.160156 155.476562 184.199219 159.878906 178.945312 163.945312 C 173.644531 168.085938 168.003906 171.648438 162.402344 175.347656 C 159.632812 177.125 157.019531 179.109375 154.566406 181.296875 C 152.324219 183.363281 150.28125 185.617188 148.441406 188.046875 C 146.042969 191.226562 143.863281 194.550781 141.910156 198.019531 L 141.910156 197.921875 C 147.527344 187.570312 154.550781 178.277344 162.976562 170.042969 C 165.152344 167.929688 167.40625 165.898438 169.738281 163.945312 C 172.175781 161.910156 174.710938 160.03125 177.121094 157.929688 C 179.546875 155.835938 181.746094 153.53125 183.722656 151.011719 C 185.683594 148.527344 187.476562 145.933594 189.425781 143.445312 C 193.078125 138.789062 197.171875 134.09375 198.789062 128.300781 C 203.988281 131.910156 208.5625 136.191406 212.507812 141.136719 Z M 196.152344 126.664062 L 197.035156 127.183594 C 195.703125 132.46875 192.136719 136.804688 188.828125 141.011719 C 184.910156 145.953125 181.5 151.304688 176.789062 155.5625 C 174.417969 157.695312 171.890625 159.632812 169.394531 161.648438 C 167.0625 163.546875 164.808594 165.53125 162.636719 167.605469 C 158.328125 171.71875 154.355469 176.136719 150.726562 180.855469 C 149.21875 182.8125 147.785156 184.769531 146.375 186.835938 C 149.65625 179.074219 154.839844 172.15625 160.332031 165.816406 C 167.453125 157.566406 175.269531 149.867188 181.332031 140.757812 C 184.808594 135.695312 187.386719 130.214844 189.070312 124.316406 C 189.136719 124.105469 189.136719 123.894531 189.070312 123.679688 C 191.542969 124.429688 193.902344 125.4375 196.152344 126.703125 Z M 172.027344 122.976562 C 176.261719 123.132812 180.414062 122.144531 184.652344 122.703125 C 185.585938 122.828125 186.511719 123 187.425781 123.222656 C 187.261719 123.359375 187.152344 123.53125 187.101562 123.738281 C 184.242188 134.277344 177.59375 143.183594 170.519531 151.3125 C 163.449219 159.445312 155.621094 167.3125 149.609375 176.492188 C 147.851562 179.179688 146.308594 181.988281 144.984375 184.917969 C 145.582031 182.351562 146.210938 179.808594 146.945312 177.292969 C 148.851562 171.175781 151.246094 165.257812 154.132812 159.535156 C 157.027344 153.46875 159.921875 147.402344 162.820312 141.34375 C 164.449219 137.957031 166.09375 134.570312 167.71875 131.167969 C 169.074219 128.542969 169.933594 125.769531 170.304688 122.839844 C 170.875 122.933594 171.449219 122.992188 172.027344 123.015625 Z M 157.828125 132.546875 C 159.367188 126.488281 159.496094 120.402344 158.207031 114.289062 C 159.519531 115.929688 160.925781 117.488281 162.429688 118.953125 C 164.121094 120.546875 166.082031 121.683594 168.308594 122.359375 C 168.019531 125.042969 167.257812 127.582031 166.023438 129.984375 C 164.632812 132.96875 163.183594 135.921875 161.765625 138.898438 L 153.195312 156.824219 C 150.308594 162.492188 147.824219 168.332031 145.738281 174.339844 C 145.328125 175.601562 144.957031 176.875 144.613281 178.15625 C 144.386719 173.671875 143.535156 169.191406 143.566406 164.691406 C 143.535156 161.625 144.144531 158.6875 145.386719 155.882812 C 146.675781 153.25 148.1875 150.753906 149.933594 148.398438 C 151.6875 146.003906 153.273438 143.5 154.691406 140.894531 C 156.046875 138.238281 157.089844 135.46875 157.828125 132.585938 Z M 155.808594 111.605469 C 155.945312 111.742188 156.074219 111.890625 156.210938 112.035156 C 156.050781 112.15625 155.941406 112.3125 155.875 112.5 C 155.8125 112.691406 155.804688 112.882812 155.859375 113.074219 C 156.414062 115.238281 156.777344 117.433594 156.949219 119.664062 C 157.121094 121.890625 157.097656 124.117188 156.875 126.339844 C 156.65625 128.5625 156.246094 130.75 155.640625 132.902344 C 155.039062 135.054688 154.25 137.136719 153.28125 139.152344 C 151.945312 141.757812 150.414062 144.25 148.6875 146.617188 C 146.96875 148.945312 145.425781 151.386719 144.054688 153.9375 C 142.6875 156.625 141.875 159.472656 141.617188 162.480469 C 141.085938 168.847656 142.890625 175.132812 142.597656 181.5 C 142.429688 185.316406 141.253906 188.910156 140.078125 192.511719 C 140.425781 188.949219 140.496094 185.386719 140.285156 181.816406 C 140.03125 175.472656 139.714844 169.210938 141.027344 162.957031 C 143.625 150.550781 150.207031 139.347656 152.222656 126.753906 C 153.203125 120.53125 153.097656 114.148438 150.890625 108.230469 C 152.761719 109.035156 154.402344 110.175781 155.808594 111.644531 Z M 146.140625 107.222656 C 146.921875 107.253906 147.691406 107.351562 148.453125 107.515625 C 148.46875 107.597656 148.488281 107.675781 148.523438 107.75 C 153.566406 119.140625 149.5 132.019531 145.425781 143.027344 C 143.242188 148.898438 140.902344 154.691406 139.441406 160.765625 C 138.710938 163.777344 138.253906 166.832031 138.070312 169.925781 C 137.90625 173 138.023438 176.082031 138.148438 179.152344 C 138.296875 182.410156 138.460938 185.710938 138.316406 188.9375 C 138.089844 185.21875 137.4375 181.574219 136.355469 178.007812 C 136.535156 178.125 136.730469 178.183594 136.945312 178.183594 C 137.160156 178.183594 137.355469 178.125 137.535156 178.003906 C 137.710938 177.886719 137.84375 177.730469 137.925781 177.53125 C 138.007812 177.335938 138.03125 177.132812 137.992188 176.921875 L 135.230469 162.066406 C 134.320312 157.175781 133.152344 152.222656 132.96875 147.222656 C 132.636719 137.820312 137.148438 129.453125 139.726562 120.65625 C 140.949219 116.519531 141.605469 111.851562 139.726562 107.878906 C 141.835938 107.371094 143.972656 107.164062 146.140625 107.261719 Z M 135.5625 175.621094 C 135.261719 174.777344 134.925781 173.9375 134.582031 173.117188 C 134.925781 173.976562 135.261719 174.816406 135.5625 175.660156 Z M 134.886719 109.472656 C 135.808594 109.101562 136.757812 108.757812 137.707031 108.496094 C 139.617188 112.113281 138.894531 116.421875 137.777344 120.1875 C 136.523438 124.484375 134.769531 128.613281 133.390625 132.859375 C 131.835938 137.234375 131.015625 141.742188 130.929688 146.382812 C 130.929688 151.273438 132.046875 156.078125 132.9375 160.855469 L 134.464844 169.066406 C 133.9375 168.085938 133.410156 167.109375 132.890625 166.128906 C 132.992188 165.941406 133.027344 165.742188 133 165.53125 C 132.96875 165.320312 132.882812 165.136719 132.734375 164.984375 C 132.371094 164.59375 132.027344 164.183594 131.675781 163.78125 C 129.390625 159.398438 127.582031 154.828125 126.238281 150.070312 C 125.183594 146.289062 124.710938 142.4375 124.828125 138.515625 C 125.089844 134.417969 125.742188 130.382812 126.789062 126.410156 C 127.957031 121.976562 128.871094 117.492188 129.53125 112.957031 C 129.550781 112.640625 129.429688 112.390625 129.175781 112.203125 C 131.023438 111.1875 132.929688 110.289062 134.886719 109.511719 Z M 127.433594 113.152344 C 126.453125 121.324219 123.390625 129.132812 122.832031 137.371094 C 122.542969 143.882812 123.636719 150.152344 126.101562 156.1875 C 123.824219 152.527344 121.953125 148.667969 120.492188 144.613281 C 119.027344 140.558594 118.007812 136.394531 117.425781 132.125 C 116.957031 128.679688 116.800781 125.21875 116.953125 121.742188 C 116.96875 121.527344 116.914062 121.328125 116.796875 121.148438 C 120.066406 118.125 123.609375 115.472656 127.433594 113.191406 Z M 114.699219 123.09375 L 114.878906 122.925781 C 114.789062 127.554688 115.207031 132.140625 116.132812 136.675781 C 117.058594 141.210938 118.46875 145.59375 120.363281 149.816406 L 117.101562 145.441406 C 115.054688 142.695312 112.996094 139.925781 111.078125 137.078125 C 109.40625 134.773438 108.164062 132.257812 107.355469 129.53125 C 110.460938 128.59375 112.574219 125.285156 114.71875 123.132812 Z M 88.597656 127.988281 C 89.59375 126.933594 90.753906 126.113281 92.074219 125.519531 C 92.050781 125.679688 92.066406 125.839844 92.125 125.992188 C 94.0625 131.175781 96.488281 136.125 99.402344 140.835938 C 102.3125 145.546875 105.65625 149.929688 109.429688 153.984375 C 113.09375 157.949219 116.855469 161.8125 119.941406 166.207031 C 119.304688 165.550781 118.65625 164.914062 117.980469 164.25 C 117.976562 164.058594 117.914062 163.890625 117.796875 163.742188 C 114.4375 159.035156 109.109375 156.492188 104.621094 153.054688 C 100.027344 149.53125 96.015625 145.429688 92.59375 140.757812 C 90.679688 138.132812 88.976562 135.375 87.492188 132.488281 C 87.425781 132.355469 87.335938 132.25 87.21875 132.160156 C 87.101562 132.074219 86.96875 132.015625 86.824219 131.992188 C 86.683594 131.96875 86.539062 131.976562 86.402344 132.019531 C 86.261719 132.0625 86.136719 132.132812 86.03125 132.234375 C 86.613281 130.660156 87.476562 129.261719 88.617188 128.035156 Z M 84.417969 138.964844 C 84.679688 137.027344 85.09375 135.125 85.660156 133.25 C 85.683594 133.328125 85.710938 133.402344 85.75 133.476562 C 88.402344 138.625 91.699219 143.320312 95.640625 147.566406 C 98.914062 151 102.503906 154.058594 106.414062 156.746094 C 104.730469 156 103.015625 155.328125 101.273438 154.691406 C 95.191406 152.449219 88.785156 150.492188 83.640625 146.429688 C 83.351562 146.175781 83.027344 146.113281 82.664062 146.246094 C 84.121094 144.425781 84.121094 140.972656 84.4375 139.015625 Z M 50.722656 159.425781 C 62.761719 168.234375 77.636719 171.433594 90.878906 177.890625 C 97.488281 181.101562 103.515625 185.171875 108.960938 190.101562 C 114.53125 195.011719 119.1875 200.671875 122.929688 207.082031 C 125.15625 211.03125 126.378906 215.273438 126.601562 219.800781 C 126.6875 221.675781 126.671875 223.554688 126.550781 225.425781 C 126.039062 221.191406 124.867188 217.144531 123.027344 213.292969 C 119.867188 207.007812 115.515625 201.695312 109.96875 197.363281 C 98.117188 187.785156 83.386719 182.773438 69.8125 176.257812 C 62.074219 172.734375 54.820312 168.402344 48.046875 163.261719 C 47.925781 163.164062 47.789062 163.097656 47.636719 163.054688 C 48.714844 161.871094 49.753906 160.679688 50.722656 159.425781 Z M 124.574219 234.351562 C 122.390625 225.347656 119.070312 216.660156 112.820312 209.683594 C 107.296875 203.480469 99.695312 199.820312 92.496094 195.933594 L 67.578125 182.480469 C 58.902344 177.804688 50.226562 173.121094 41.554688 168.4375 C 43.230469 167.179688 44.816406 165.820312 46.316406 164.359375 C 46.378906 164.476562 46.460938 164.578125 46.570312 164.660156 C 58.324219 173.929688 72.222656 179.554688 85.75 185.699219 C 98.695312 191.570312 112.28125 198.714844 119.746094 211.40625 C 121.765625 214.871094 123.191406 218.5625 124.015625 222.488281 C 124.84375 226.414062 125.027344 230.367188 124.574219 234.351562 Z M 126.171875 241.953125 C 125.789062 239.878906 125.378906 237.804688 124.898438 235.75 C 125.082031 235.882812 125.289062 235.957031 125.515625 235.964844 C 125.785156 235.964844 126.015625 235.871094 126.207031 235.679688 C 126.398438 235.488281 126.492188 235.257812 126.492188 234.988281 C 126.492188 234.878906 126.492188 234.773438 126.492188 234.664062 L 126.875 234.664062 C 126.589844 237.0625 126.347656 239.507812 126.171875 241.953125 Z M 126.171875 209.105469 C 124.539062 205.582031 122.511719 202.304688 120.089844 199.273438 C 117.847656 196.339844 115.414062 193.574219 112.789062 190.972656 C 107.515625 185.753906 101.617188 181.367188 95.101562 177.8125 C 88.433594 174.171875 81.253906 171.589844 74.171875 168.878906 C 66.414062 165.941406 58.667969 162.722656 51.90625 157.820312 C 53.082031 156.171875 54.160156 154.464844 55.140625 152.695312 C 55.5625 151.921875 56.011719 151.097656 56.480469 150.257812 C 60.953125 155.179688 66.195312 159.0625 72.210938 161.902344 C 78.753906 164.972656 86.140625 165.882812 92.242188 169.894531 C 95.210938 171.972656 98.035156 174.226562 100.714844 176.65625 L 109.949219 184.59375 C 115.414062 189.300781 121.195312 193.871094 124.535156 200.417969 C 125.910156 203.285156 126.925781 206.277344 127.589844 209.386719 C 128.25 212.496094 128.539062 215.644531 128.453125 218.824219 C 128.265625 215.457031 127.527344 212.21875 126.238281 209.105469 Z M 128.414062 226.964844 C 128.5 225.796875 128.558594 224.632812 128.589844 223.46875 C 128.808594 223.667969 129.070312 223.75 129.363281 223.714844 C 129.039062 224.78125 128.726562 225.867188 128.441406 226.964844 Z M 133.191406 209.996094 C 132.617188 198.460938 129.214844 187.117188 121.605469 178.15625 C 119.191406 175.359375 116.453125 172.933594 113.382812 170.875 C 110.316406 168.820312 107.027344 167.203125 103.523438 166.03125 C 99.714844 164.710938 95.789062 163.769531 92.015625 162.371094 C 88.691406 161.132812 85.488281 159.628906 82.40625 157.859375 C 75.453125 153.875 69.429688 148.789062 64.335938 142.605469 C 63.503906 141.628906 62.085938 143.035156 62.90625 144.035156 C 67.40625 149.476562 72.628906 154.097656 78.578125 157.898438 C 81.496094 159.773438 84.542969 161.402344 87.71875 162.792969 C 91.230469 164.273438 94.820312 165.53125 98.492188 166.558594 C 102.273438 167.585938 105.910156 168.992188 109.402344 170.777344 C 112.519531 172.464844 115.335938 174.554688 117.855469 177.050781 C 120.261719 179.488281 122.359375 182.167969 124.140625 185.09375 C 125.921875 188.019531 127.34375 191.113281 128.402344 194.371094 C 130.960938 202.523438 131.847656 210.851562 131.066406 219.359375 C 130.867188 219.8125 130.667969 220.269531 130.480469 220.742188 C 130.820312 214.441406 129.878906 208.339844 127.660156 202.433594 C 126.375 199.183594 124.621094 196.207031 122.398438 193.507812 C 119.972656 190.726562 117.335938 188.160156 114.484375 185.816406 L 105.199219 177.84375 C 102.261719 175.335938 99.410156 172.742188 96.386719 170.386719 C 93.515625 168.089844 90.367188 166.269531 86.941406 164.925781 C 83.457031 163.613281 79.824219 162.792969 76.34375 161.460938 C 72.742188 160.070312 69.351562 158.273438 66.179688 156.074219 C 63.007812 153.871094 60.140625 151.324219 57.578125 148.4375 C 60.28125 144.003906 63.875 139.933594 69.585938 141.753906 C 71.527344 142.445312 73.3125 143.421875 74.933594 144.691406 C 76.421875 145.785156 77.933594 147.4375 79.890625 147.546875 C 80.613281 147.605469 81.285156 147.441406 81.898438 147.058594 C 81.816406 147.410156 81.925781 147.6875 82.222656 147.890625 C 91.320312 155.03125 103.554688 155.902344 112.890625 162.566406 C 117.914062 166.160156 122.007812 171.207031 125.386719 176.324219 C 128.890625 181.507812 131.386719 187.132812 132.878906 193.203125 C 134.214844 198.777344 134.328125 204.375 133.222656 209.996094 Z M 135.835938 199.867188 C 135.664062 197.414062 135.292969 194.992188 134.722656 192.597656 C 135.230469 193.722656 135.699219 194.847656 136.21875 195.984375 C 136.152344 197.285156 136.035156 198.578125 135.867188 199.867188 Z M 132.703125 184.054688 C 129.921875 178.859375 127.003906 173.703125 123.886719 168.664062 C 122.367188 166.140625 120.6875 163.730469 118.84375 161.433594 C 117.042969 159.203125 115.074219 157.105469 113.113281 155.011719 C 109.203125 150.996094 105.65625 146.675781 102.476562 142.058594 C 99.015625 136.867188 96.199219 131.347656 94.023438 125.5 C 93.960938 125.308594 93.84375 125.152344 93.683594 125.03125 C 95.015625 124.71875 96.300781 124.855469 97.539062 125.441406 C 100.253906 126.753906 102.171875 129.609375 105.308594 129.785156 C 105.9375 132.238281 106.945312 134.519531 108.335938 136.636719 C 109.902344 139.140625 111.664062 141.527344 113.40625 143.90625 C 116.992188 148.800781 120.714844 153.566406 124.125 158.585938 C 130.566406 168.046875 135.945312 178.625 136.308594 190.289062 C 136.308594 190.660156 136.308594 191.03125 136.308594 191.402344 C 135.25 188.890625 134.015625 186.460938 132.734375 184.054688 Z M 136.621094 207.941406 C 137.050781 205.523438 137.453125 203.105469 137.765625 200.679688 C 137.6875 201.140625 137.621094 201.589844 137.5625 202.050781 C 137.558594 202.289062 137.628906 202.5 137.78125 202.683594 C 137.929688 202.867188 138.121094 202.984375 138.355469 203.027344 C 137.871094 204.6875 137.304688 206.324219 136.652344 207.941406 Z M 176.4375 177.871094 C 169.496094 183.175781 162.601562 188.546875 155.761719 193.988281 C 152.402344 196.675781 149.035156 199.394531 145.652344 202.148438 C 143.222656 204.074219 140.898438 206.117188 138.679688 208.285156 C 138.796875 207.980469 138.914062 207.6875 139.019531 207.382812 C 139.152344 207.292969 139.253906 207.175781 139.324219 207.03125 L 140.96875 203.949219 C 141.089844 204.277344 141.324219 204.46875 141.667969 204.527344 C 142.015625 204.582031 142.296875 204.476562 142.519531 204.203125 C 150.289062 194.535156 159.164062 186.011719 169.140625 178.632812 C 179.285156 171.285156 190.375 165.238281 199.960938 157.105469 C 205.042969 152.90625 209.390625 148.054688 213.007812 142.546875 C 213.136719 142.355469 213.1875 142.148438 213.15625 141.921875 C 213.703125 142.585938 214.253906 143.25 214.792969 143.925781 C 215.769531 145.160156 216.75 146.410156 217.730469 147.664062 C 203.75 157.460938 189.996094 167.53125 176.464844 177.871094 Z M 176.4375 177.871094 " fill-opacity="1" fill-rule="nonzero"/></g></svg>