<svg xmlns="http://www.w3.org/2000/svg" xmlns:xlink="http://www.w3.org/1999/xlink" width="500" zoomAndPan="magnify" viewBox="0 0 375 374.999991" height="500" preserveAspectRatio="xMidYMid meet" version="1.0"><path fill="#99a799" d="M 153.40625 217.8125 C 156.65625 214.464844 160.15625 211.398438 163.898438 208.613281 C 160.421875 210.683594 157.269531 213.164062 154.441406 216.0625 C 153.625 216.953125 152.914062 217.917969 152.304688 218.964844 C 152.632812 218.59375 152.992188 218.199219 153.40625 217.8125 Z M 153.40625 217.8125 " fill-opacity="1" fill-rule="nonzero"/><path fill="#99a799" d="M 105.046875 205.925781 C 104.847656 205.992188 104.6875 206.109375 104.566406 206.277344 C 104.441406 206.445312 104.382812 206.636719 104.382812 206.84375 C 104.382812 207.054688 104.441406 207.242188 104.566406 207.410156 C 104.6875 207.582031 104.847656 207.699219 105.046875 207.761719 C 105.246094 207.699219 105.40625 207.582031 105.527344 207.410156 C 105.648438 207.242188 105.710938 207.054688 105.710938 206.84375 C 105.710938 206.636719 105.648438 206.445312 105.527344 206.277344 C 105.40625 206.109375 105.246094 205.992188 105.046875 205.925781 Z M 105.046875 205.925781 " fill-opacity="1" fill-rule="nonzero"/><path fill="#99a799" d="M 354.921875 147.796875 C 354.710938 147.3125 354.488281 146.839844 354.253906 146.375 C 354.222656 146.214844 354.152344 146.078125 354.042969 145.957031 C 351.339844 140.867188 347.726562 136.53125 343.199219 132.960938 C 338.199219 128.867188 332.675781 125.503906 327.519531 121.605469 C 326.875 121.121094 324.058594 119.457031 325.160156 118.433594 C 326.265625 117.40625 328.0625 117.882812 329.222656 118.046875 C 333.378906 118.640625 337.378906 119.785156 341.21875 121.488281 C 341.570312 121.648438 341.902344 121.613281 342.207031 121.375 C 342.515625 121.136719 342.636719 120.828125 342.570312 120.445312 C 340.886719 111.496094 332.375 105.9375 323.941406 104.476562 C 321.484375 104.042969 319.007812 103.832031 316.515625 103.835938 C 314.25 103.835938 311.980469 104.078125 309.746094 104 C 307.808594 103.945312 305.574219 103.574219 304.222656 102.066406 C 302.441406 100.027344 306.273438 98.808594 307.65625 98.324219 C 310.285156 97.398438 312.992188 96.867188 315.78125 96.730469 C 318.566406 96.59375 321.3125 96.863281 324.019531 97.53125 C 324.402344 97.597656 324.714844 97.476562 324.949219 97.167969 C 325.1875 96.859375 325.226562 96.53125 325.066406 96.175781 C 318.101562 84.445312 302.585938 78.59375 289.636719 83.023438 C 285.953125 84.34375 282.558594 86.195312 279.460938 88.585938 C 279.652344 87.835938 279.902344 87.105469 280.210938 86.394531 C 280.515625 85.683594 280.875 85.003906 281.289062 84.347656 C 281.699219 83.695312 282.160156 83.078125 282.671875 82.496094 C 283.179688 81.914062 283.730469 81.375 284.324219 80.875 C 284.917969 80.378906 285.546875 79.933594 286.207031 79.535156 C 286.871094 79.136719 287.5625 78.792969 288.277344 78.5 C 288.996094 78.210938 289.730469 77.976562 290.484375 77.800781 C 291.238281 77.625 292 77.507812 292.769531 77.453125 C 292.929688 77.4375 293.074219 77.390625 293.210938 77.304688 C 293.34375 77.21875 293.449219 77.105469 293.53125 76.96875 C 293.609375 76.832031 293.652344 76.683594 293.65625 76.523438 C 293.664062 76.363281 293.632812 76.210938 293.5625 76.070312 C 292.597656 73.738281 289.789062 72.953125 287.546875 72.363281 C 284.636719 71.589844 281.675781 71.125 278.667969 70.960938 C 272.652344 70.605469 266.835938 71.507812 261.210938 73.671875 C 258.730469 74.613281 256.472656 75.941406 254.441406 77.644531 C 252.59375 79.25 250.378906 81.628906 250.785156 84.289062 C 251.375 88.226562 256.433594 88.535156 258.28125 91.535156 C 259.054688 92.554688 259.941406 93.464844 260.941406 94.261719 L 263.65625 96.882812 C 265.183594 98.925781 267.410156 102.039062 265.589844 104.554688 C 263.773438 107.066406 260.070312 104.824219 258.125 103.671875 C 252.632812 100.382812 246.519531 98.296875 240.046875 98.5 C 228.847656 98.855469 217.929688 106.789062 216.5625 118.375 C 216.375 119.886719 216.359375 121.398438 216.523438 122.914062 C 216.683594 124.429688 217.015625 125.90625 217.519531 127.34375 C 218.023438 128.78125 218.683594 130.144531 219.503906 131.429688 C 220.320312 132.714844 221.277344 133.886719 222.367188 134.953125 C 222.488281 135.058594 222.625 135.128906 222.78125 135.164062 C 222.9375 135.203125 223.09375 135.199219 223.25 135.160156 C 223.402344 135.117188 223.539062 135.042969 223.65625 134.933594 C 223.777344 134.828125 223.863281 134.695312 223.914062 134.546875 C 225.628906 128.859375 227.417969 123.09375 230.414062 117.929688 C 231.859375 115.378906 233.648438 113.09375 235.78125 111.082031 C 236.828125 110.113281 238.09375 108.90625 239.554688 108.671875 C 237.882812 111.121094 236.304688 113.636719 234.71875 116.160156 C 230.132812 123.640625 225.910156 131.320312 222.046875 139.207031 C 216.820312 149.777344 212.371094 160.664062 208.699219 171.871094 C 207.347656 176.0625 206.136719 180.292969 205.074219 184.558594 C 204.925781 171.078125 204.144531 157.628906 202.734375 144.21875 C 201.707031 134.546875 200.375 124.953125 198.527344 115.433594 C 198.292969 114.234375 198.050781 113.046875 197.789062 111.855469 C 199.03125 111.777344 200.238281 111.535156 201.40625 111.117188 C 202.578125 110.703125 203.671875 110.132812 204.679688 109.410156 C 205.691406 108.6875 206.582031 107.839844 207.355469 106.867188 C 208.128906 105.894531 208.75 104.832031 209.222656 103.683594 C 211.265625 98.769531 210.808594 93.160156 210.101562 88.015625 C 209.695312 85.113281 209.378906 82.027344 207.550781 79.648438 C 207.152344 79.15625 206.726562 78.695312 206.261719 78.265625 C 206.503906 78.359375 206.742188 78.359375 206.980469 78.265625 C 212.308594 75.847656 217.617188 72.664062 221.285156 67.992188 C 222.199219 66.875 222.957031 65.65625 223.554688 64.339844 C 224.152344 63.023438 224.570312 61.652344 224.808594 60.226562 C 225.046875 58.800781 225.101562 57.367188 224.964844 55.929688 C 224.832031 54.488281 224.511719 53.089844 224.011719 51.734375 C 221.796875 45.929688 217.027344 41.375 212.191406 37.640625 C 206.660156 33.328125 200.792969 29.539062 194.589844 26.269531 C 192.53125 25.183594 190.421875 24.207031 188.285156 23.367188 C 188.136719 23.21875 187.960938 23.148438 187.75 23.152344 C 182.777344 21.109375 177.621094 19.789062 172.277344 19.1875 C 171.988281 19.15625 171.757812 19.261719 171.589844 19.496094 C 171.433594 19.609375 171.339844 19.757812 171.304688 19.945312 C 171.269531 20.132812 171.304688 20.304688 171.40625 20.464844 C 172.171875 24.433594 172.382812 28.433594 172.039062 32.464844 C 171.691406 36.492188 170.804688 40.398438 169.375 44.179688 C 164.085938 37.410156 164.914062 27.875 163 19.902344 C 162.035156 15.949219 160.457031 11.953125 157.527344 9.03125 C 154.042969 5.558594 149.152344 4.476562 144.507812 3.5 C 141.210938 2.804688 137.882812 2.273438 134.535156 1.875 C 134.359375 1.777344 134.171875 1.757812 133.976562 1.816406 C 131.335938 1.515625 128.675781 1.304688 126.015625 1.199219 C 125.847656 1.222656 125.695312 1.285156 125.5625 1.386719 C 125.425781 1.488281 125.324219 1.617188 125.257812 1.773438 C 125.191406 1.925781 125.167969 2.089844 125.183594 2.257812 C 125.203125 2.425781 125.257812 2.578125 125.359375 2.714844 C 129.21875 7.535156 132.414062 12.757812 134.953125 18.386719 C 137.011719 23.058594 138.898438 28.78125 136.964844 33.761719 L 126.546875 20.695312 L 121.148438 13.925781 C 119.46875 11.808594 117.824219 9.660156 115.9375 7.71875 C 114.335938 6.023438 112.527344 4.59375 110.507812 3.429688 C 108.488281 2.265625 106.347656 1.414062 104.078125 0.878906 C 100.828125 0.175781 97.546875 -0.0390625 94.234375 0.230469 C 93.921875 0.09375 93.621094 0.117188 93.332031 0.296875 C 92.308594 0.386719 91.28125 0.511719 90.257812 0.65625 C 85.386719 1.460938 80.632812 2.707031 75.992188 4.390625 C 70.980469 6.101562 66.046875 8.074219 61.230469 10.28125 C 51.585938 14.628906 42.5 19.9375 33.976562 26.210938 C 26.519531 31.828125 19.585938 38.601562 16.285156 47.410156 C 15.6875 49.015625 14.980469 51.503906 16.835938 52.605469 C 18.90625 53.832031 20.949219 51.519531 22.3125 50.273438 C 25.941406 46.722656 29.878906 43.554688 34.121094 40.765625 C 36.15625 39.492188 38.3125 38.46875 40.582031 37.691406 C 43.164062 36.828125 45.980469 36.171875 48.445312 37.691406 C 50.582031 38.996094 52.148438 41.203125 53.746094 43.085938 L 59.460938 49.859375 L 70.902344 63.261719 L 71.085938 63.464844 C 71.144531 63.578125 71.226562 63.671875 71.328125 63.746094 C 74.230469 67.179688 77.355469 70.664062 81.332031 72.898438 C 83.253906 73.941406 85.300781 74.59375 87.472656 74.855469 C 89.644531 75.117188 91.789062 74.964844 93.902344 74.40625 C 98.1875 73.4375 102.222656 71.503906 106.566406 70.769531 C 108.675781 70.347656 110.757812 70.472656 112.804688 71.144531 C 114.738281 71.832031 116.789062 73.515625 115.058594 75.519531 C 113.636719 77.160156 111.324219 77.734375 109.253906 78.15625 C 106.351562 78.75 103.449219 79.210938 100.492188 79.511719 C 97.722656 79.796875 94.953125 79.949219 92.171875 79.976562 C 92.015625 79.988281 91.867188 80.039062 91.734375 80.125 C 91.597656 80.210938 91.492188 80.320312 91.414062 80.460938 C 91.332031 80.597656 91.289062 80.746094 91.285156 80.90625 C 91.277344 81.066406 91.3125 81.214844 91.378906 81.359375 C 97.183594 90.441406 104.785156 100.382812 115.917969 102.746094 C 127.996094 105.296875 138.636719 97.570312 149.371094 93.46875 C 152.34375 92.335938 155.613281 91.167969 158.832031 91.28125 L 159.21875 91.28125 C 159.339844 91.308594 159.464844 91.308594 159.585938 91.28125 C 162.613281 91.621094 165.449219 93.3125 167.90625 95.007812 C 172.964844 98.5 177.113281 103.101562 182.074219 106.710938 C 185.0625 108.921875 188.363281 110.464844 191.976562 111.332031 C 193.003906 115.722656 193.757812 120.203125 194.472656 124.652344 C 196.40625 136.507812 197.675781 148.472656 198.476562 160.4375 C 198.972656 167.808594 199.25 175.1875 199.359375 182.578125 C 199.007812 181.695312 198.570312 180.859375 198.042969 180.070312 C 195.371094 176.203125 190.886719 174.125 186.289062 173.628906 C 175.574219 172.46875 167.390625 180.304688 161.984375 188.699219 C 161.878906 188.796875 161.800781 188.910156 161.753906 189.046875 C 161.5 189.453125 161.25 189.851562 161.007812 190.257812 C 157.242188 196.617188 154.167969 203.296875 151.789062 210.296875 C 151.472656 211.207031 152.699219 211.796875 153.328125 211.195312 C 155.917969 208.742188 158.808594 206.71875 161.996094 205.121094 C 165.1875 203.527344 168.539062 202.425781 172.054688 201.824219 C 169.617188 202.996094 167.21875 204.261719 164.90625 205.691406 C 161.03125 207.949219 157.453125 210.605469 154.171875 213.664062 C 152.605469 215.117188 151.316406 216.78125 150.300781 218.664062 C 149.34375 220.617188 148.679688 222.667969 148.320312 224.816406 C 147.574219 228.800781 147.15625 232.863281 146.683594 236.90625 C 146.675781 236.988281 146.675781 237.070312 146.683594 237.15625 C 146.597656 237.929688 146.511719 238.703125 146.414062 239.46875 C 145.691406 245.175781 144.972656 250.878906 144.257812 256.578125 C 144.269531 256.824219 144.363281 257.039062 144.539062 257.214844 C 144.714844 257.390625 144.925781 257.484375 145.175781 257.496094 C 145.433594 257.496094 145.65625 257.40625 145.84375 257.230469 C 146.03125 257.050781 146.128906 256.835938 146.140625 256.578125 C 147.292969 247.765625 152.488281 240.136719 158.425781 233.808594 C 159.953125 232.183594 161.539062 230.617188 163.175781 229.089844 C 163.851562 228.460938 167.042969 224.910156 168.011719 226.292969 C 168.496094 226.941406 167.894531 228.09375 167.585938 228.691406 C 166.957031 229.882812 166.269531 231.042969 165.652344 232.222656 C 164.324219 234.582031 163.003906 236.941406 161.695312 239.304688 C 159.0625 244.015625 156.4375 248.730469 153.8125 253.445312 C 151.480469 257.621094 149.152344 261.992188 148.675781 266.828125 C 148.203125 271.664062 150.136719 276.171875 152.101562 280.488281 C 153.117188 282.671875 154.011719 284.90625 154.78125 287.1875 C 155.488281 289.464844 156.0625 291.773438 156.511719 294.113281 C 158.339844 303.476562 158.582031 313.195312 161.753906 322.261719 C 162.128906 323.351562 162.554688 324.425781 163.019531 325.492188 C 163.105469 325.671875 163.242188 325.800781 163.425781 325.882812 C 163.609375 325.960938 163.796875 325.96875 163.988281 325.90625 C 164.097656 325.902344 164.199219 325.875 164.296875 325.828125 C 164.394531 325.777344 164.476562 325.710938 164.546875 325.628906 C 164.617188 325.542969 164.664062 325.449219 164.695312 325.34375 C 164.722656 325.238281 164.730469 325.132812 164.710938 325.027344 C 164.71875 324.992188 164.71875 324.957031 164.710938 324.917969 C 164.421875 317.183594 167.246094 309.753906 171.484375 303.378906 C 175.941406 296.667969 181.976562 291.203125 188.167969 286.125 C 194.648438 280.804688 201.261719 275.699219 207.578125 270.1875 C 209.679688 268.347656 211.738281 266.492188 213.789062 264.605469 C 217.019531 278.257812 219.378906 292.058594 220.859375 306.011719 C 222.378906 320.445312 222.957031 334.917969 222.601562 349.429688 C 222.386719 357.574219 221.890625 365.695312 221.109375 373.800781 C 220.992188 374.980469 222.839844 374.972656 222.957031 373.800781 C 224.394531 359.261719 224.871094 344.6875 224.390625 330.085938 C 223.910156 315.542969 222.492188 301.09375 220.132812 286.734375 C 218.84375 278.828125 217.257812 270.980469 215.375 263.183594 L 217.648438 261.066406 C 220.863281 274.664062 223.207031 288.410156 224.679688 302.304688 C 226.199219 316.742188 226.777344 331.214844 226.421875 345.722656 C 226.21875 353.867188 225.714844 361.992188 224.902344 370.097656 C 224.785156 371.277344 226.632812 371.269531 226.75 370.097656 C 228.183594 355.554688 228.660156 340.976562 228.179688 326.371094 C 227.699219 311.832031 226.28125 297.382812 223.925781 283.03125 C 222.636719 275.15625 221.054688 267.339844 219.183594 259.574219 C 221.011719 257.835938 222.8125 256.066406 224.601562 254.277344 C 224.910156 254.191406 225.121094 254 225.238281 253.703125 C 225.242188 253.667969 225.242188 253.628906 225.238281 253.589844 L 226.371094 252.464844 C 237.011719 241.671875 247.921875 229.59375 251.671875 214.503906 C 254.671875 202.453125 252.28125 187.820312 242.523438 179.375 C 237.078125 174.675781 229.292969 172.042969 222.347656 174.867188 C 217.511719 176.800781 214 180.71875 210.558594 184.539062 C 211.359375 181.640625 212.230469 178.679688 213.140625 175.769531 C 215.632812 167.433594 218.695312 159.316406 222.328125 151.414062 C 223.851562 148.109375 225.601562 144.929688 227.582031 141.878906 C 227.664062 142.292969 227.792969 142.695312 227.957031 143.085938 C 228.683594 144.605469 229.816406 145.703125 231.351562 146.382812 C 233.035156 147.234375 234.824219 147.894531 236.574219 148.570312 C 240.445312 150.078125 244.386719 151.417969 248.40625 152.585938 C 248.542969 152.613281 248.679688 152.609375 248.816406 152.578125 C 248.953125 152.546875 249.078125 152.488281 249.1875 152.40625 C 249.300781 152.320312 249.386719 152.214844 249.453125 152.089844 C 249.519531 151.964844 249.558594 151.835938 249.566406 151.695312 C 249.644531 145.15625 249.710938 138.570312 250.859375 132.117188 C 251.398438 128.972656 252.246094 125.90625 253.394531 122.929688 C 253.847656 121.460938 254.570312 120.140625 255.5625 118.964844 C 255.941406 118.507812 256.429688 118.253906 257.023438 118.210938 C 257.71875 118.210938 258.132812 118.878906 258.394531 119.457031 C 259.738281 122.359375 259.363281 126.101562 258.761719 129.128906 C 258.078125 132.464844 256.886719 135.675781 255.988281 138.957031 C 254.496094 144.402344 253.917969 150.726562 257.535156 155.515625 C 258.398438 156.648438 259.445312 157.578125 260.671875 158.304688 C 261.902344 159.027344 263.222656 159.488281 264.632812 159.691406 C 268.003906 160.117188 271.382812 160.320312 274.78125 160.300781 L 280.109375 160.464844 C 281.367188 160.515625 283.222656 160.910156 284.269531 159.992188 C 285.507812 158.898438 284.703125 157.089844 284.335938 155.777344 C 283.890625 154.199219 283.367188 152.621094 282.914062 151.054688 C 280.980469 144.925781 278.929688 138.480469 279.710938 131.945312 C 279.808594 131.136719 279.957031 130.335938 280.15625 129.546875 C 280.277344 128.75 280.527344 128 280.902344 127.292969 C 281.65625 126.207031 282.914062 129.640625 283.070312 130.066406 C 284.046875 133.121094 284.644531 136.25 284.859375 139.449219 C 285.15625 142.707031 285.273438 145.988281 285.660156 149.238281 C 285.988281 152.0625 286.355469 155.175781 288.109375 157.515625 C 289.859375 159.855469 293.011719 160.738281 295.894531 161.289062 C 296.714844 161.445312 297.539062 161.578125 298.371094 161.695312 C 298.46875 161.714844 298.570312 161.714844 298.667969 161.695312 C 301.171875 162.035156 303.6875 162.175781 306.214844 162.121094 C 307.925781 162.074219 309.632812 161.945312 311.332031 161.722656 C 311.472656 161.714844 311.605469 161.679688 311.730469 161.613281 C 311.855469 161.546875 311.960938 161.457031 312.042969 161.34375 C 312.128906 161.230469 312.1875 161.105469 312.21875 160.96875 C 312.25 160.828125 312.25 160.691406 312.21875 160.554688 C 309.859375 153.210938 303.84375 146.714844 304.191406 138.636719 C 304.230469 137.742188 304.367188 136.859375 304.609375 135.996094 C 304.800781 135.269531 305.101562 134.0625 305.855469 133.65625 C 306.210938 133.546875 306.5625 133.546875 306.917969 133.65625 C 307.269531 133.765625 307.5625 133.964844 307.789062 134.253906 C 308.355469 135.007812 308.699219 135.847656 308.816406 136.78125 C 309.6875 141.015625 310.363281 145.292969 311.136719 149.546875 C 311.738281 152.824219 312.230469 156.609375 315.09375 158.765625 C 316.652344 159.78125 318.351562 160.441406 320.191406 160.746094 C 321.757812 161.113281 323.324219 161.519531 324.871094 161.984375 C 331.292969 163.8125 337.277344 166.585938 342.824219 170.304688 C 345.839844 172.3125 348.515625 174.699219 350.855469 177.464844 C 353.191406 180.234375 355.101562 183.273438 356.574219 186.582031 C 356.972656 187.5 358.230469 186.917969 358.296875 186.117188 L 358.296875 186.019531 C 358.488281 185.796875 358.5625 185.539062 358.519531 185.246094 C 358.519531 185.042969 358.441406 184.839844 358.402344 184.636719 C 359.34375 172.355469 359.953125 159.335938 354.921875 147.796875 Z M 356.808594 163.058594 C 357.261719 168.414062 357.304688 173.773438 356.933594 179.132812 C 356.21875 177.0625 355.367188 175.03125 354.507812 173.011719 C 352.988281 169.453125 351.460938 165.882812 349.757812 162.371094 C 346.332031 155.390625 342.066406 148.878906 336.089844 143.8125 C 333.667969 141.804688 331.148438 139.925781 328.535156 138.171875 C 332.625 138.199219 336.605469 138.871094 340.476562 140.195312 C 344.34375 141.519531 347.902344 143.425781 351.148438 145.910156 C 351.59375 146.238281 352.058594 146.585938 352.5625 147.03125 C 354.945312 152.117188 356.359375 157.460938 356.808594 163.058594 Z M 323.3125 117.910156 C 322.609375 119.378906 323.527344 120.8125 324.648438 121.722656 C 325.925781 122.773438 327.269531 123.742188 328.605469 124.710938 C 331.324219 126.644531 334.097656 128.519531 336.824219 130.464844 C 341.835938 134.03125 346.71875 137.96875 350.210938 143.085938 C 349.738281 142.777344 349.246094 142.476562 348.78125 142.195312 C 344.683594 139.679688 340.28125 137.945312 335.570312 136.992188 C 332.398438 136.371094 329.207031 136.207031 325.992188 136.507812 C 322.617188 134.234375 319.222656 131.964844 315.828125 129.738281 C 309.746094 125.753906 303.574219 121.90625 297.191406 118.414062 C 299.039062 117.5 300.972656 116.832031 302.992188 116.410156 C 306.289062 115.6875 309.625 115.21875 312.992188 115.007812 C 319.671875 114.5 326.34375 114.539062 333.015625 115.125 C 335.007812 115.21875 336.972656 115.515625 338.90625 116.015625 C 339.5 117.019531 339.976562 118.078125 340.335938 119.1875 C 337.398438 118.011719 334.371094 117.136719 331.253906 116.566406 C 328.980469 116.109375 324.601562 115.113281 323.3125 117.910156 Z M 322.261719 95.289062 C 317.867188 94.539062 313.519531 94.738281 309.210938 95.886719 C 307.945312 96.234375 306.707031 96.660156 305.5 97.171875 C 304.4375 97.542969 303.511719 98.125 302.710938 98.914062 C 301.019531 100.847656 302.199219 103.042969 304.007812 104.320312 C 305.910156 105.46875 307.96875 105.992188 310.1875 105.886719 C 312.625 105.886719 315.023438 105.664062 317.492188 105.722656 C 322.589844 105.828125 327.832031 106.769531 332.25 109.425781 C 334.179688 110.578125 335.867188 112.011719 337.308594 113.730469 C 336.253906 113.566406 335.183594 113.46875 334.15625 113.363281 C 331.101562 113.046875 328.023438 112.890625 324.957031 112.832031 C 317.792969 112.550781 310.683594 113.066406 303.632812 114.378906 C 300.8125 114.859375 298.148438 115.78125 295.632812 117.144531 L 295.273438 117.378906 L 294.90625 117.175781 C 288.679688 113.828125 282.230469 110.972656 275.5625 108.613281 C 276.371094 107.421875 277.289062 106.316406 278.308594 105.296875 C 280.671875 102.996094 283.28125 101.019531 286.136719 99.367188 C 291.9375 96.007812 298.035156 93.320312 304.433594 91.3125 C 307.925781 90.160156 311.464844 89.28125 315.007812 88.3125 C 315.476562 88.625 315.941406 88.945312 316.398438 89.28125 C 318.664062 90.964844 320.617188 92.960938 322.261719 95.257812 Z M 202.558594 192.972656 L 202.558594 192.917969 L 202.628906 192.917969 Z M 220.984375 49.722656 C 221.703125 50.910156 222.242188 52.171875 222.605469 53.507812 C 222.972656 54.847656 223.148438 56.207031 223.132812 57.59375 C 223.117188 58.980469 222.914062 60.339844 222.523438 61.667969 C 222.128906 63 221.5625 64.25 220.820312 65.421875 C 217.445312 70.710938 211.613281 74.125 206.03125 76.648438 C 205.929688 76.6875 205.839844 76.746094 205.761719 76.824219 C 205.6875 76.902344 205.628906 76.996094 205.59375 77.097656 C 205.558594 77.203125 205.542969 77.308594 205.554688 77.417969 C 205.566406 77.527344 205.597656 77.628906 205.652344 77.722656 C 205.09375 77.238281 204.523438 76.753906 203.953125 76.320312 L 199.609375 72.828125 L 198.234375 71.707031 C 198.414062 71.5625 198.582031 71.40625 198.738281 71.242188 C 199.539062 70.378906 200.183594 69.414062 200.671875 68.339844 C 201.984375 65.53125 202.953125 62.605469 203.574219 59.570312 C 204.386719 56.078125 204.96875 52.546875 205.449219 48.996094 C 206.042969 44.710938 206.621094 40.351562 206.84375 36.015625 L 208.226562 36.984375 C 213.074219 40.535156 217.996094 44.402344 220.984375 49.710938 Z M 205.027344 34.796875 C 204.804688 38.589844 204.425781 42.371094 203.960938 46.144531 C 203.160156 52.703125 202.222656 59.539062 199.820312 65.738281 C 199.394531 66.882812 198.847656 67.964844 198.1875 68.988281 C 197.800781 69.585938 197.3125 70.089844 196.726562 70.496094 C 193.503906 67.917969 190.277344 65.324219 187.054688 62.710938 L 187.160156 62.441406 C 187.773438 61.167969 188.246094 59.847656 188.574219 58.476562 C 190.246094 51.820312 190.09375 44.652344 189.734375 37.855469 C 189.578125 34.855469 189.335938 31.859375 189.027344 28.871094 C 188.910156 27.757812 188.816406 26.636719 188.671875 25.511719 C 194.417969 28.085938 199.867188 31.179688 205.027344 34.789062 Z M 181.011719 40.097656 C 180.625 36.730469 179.851562 33.449219 178.691406 30.261719 C 177.53125 27.074219 176.015625 24.066406 174.144531 21.238281 C 178.46875 21.898438 182.660156 23.042969 186.714844 24.683594 L 186.714844 24.875 C 186.824219 25.667969 186.917969 26.460938 187.007812 27.265625 C 187.304688 29.90625 187.558594 32.5625 187.730469 35.222656 C 188.195312 41.90625 188.449219 48.765625 187.316406 55.449219 C 187.085938 56.882812 186.742188 58.292969 186.289062 59.675781 C 186.101562 60.25 185.878906 60.808594 185.625 61.359375 L 185.566406 61.484375 C 184.703125 60.796875 183.84375 60.109375 182.972656 59.433594 C 181.386719 58.175781 179.773438 56.949219 178.136719 55.75 C 179.363281 53.332031 180.21875 50.792969 180.707031 48.125 C 181.195312 45.460938 181.296875 42.78125 181.011719 40.089844 Z M 155.960938 10.117188 C 162.128906 16.035156 161.832031 25.679688 163.214844 33.472656 C 164.066406 38.25 165.574219 42.980469 168.957031 46.578125 C 169.078125 46.683594 169.21875 46.75 169.371094 46.785156 C 169.527344 46.820312 169.679688 46.820312 169.835938 46.777344 C 169.988281 46.738281 170.121094 46.664062 170.238281 46.558594 C 170.355469 46.449219 170.441406 46.320312 170.496094 46.171875 C 171.9375 42.695312 172.933594 39.09375 173.476562 35.371094 C 174.023438 31.648438 174.101562 27.914062 173.71875 24.167969 C 173.910156 24.507812 174.105469 24.847656 174.289062 25.195312 C 176.277344 28.832031 177.71875 32.679688 178.601562 36.734375 C 179.171875 39.222656 179.394531 41.742188 179.269531 44.292969 C 179.144531 46.84375 178.683594 49.332031 177.875 51.753906 C 177.539062 52.753906 177.125 53.71875 176.636719 54.65625 C 173.476562 52.351562 170.171875 50.28125 166.722656 48.4375 C 161.589844 45.882812 156.242188 43.90625 150.679688 42.507812 C 150.679688 42.402344 150.726562 42.285156 150.746094 42.179688 C 150.96875 40.898438 151.085938 39.609375 151.09375 38.308594 C 151.144531 32.914062 149.546875 27.59375 147.457031 22.667969 C 144.523438 15.910156 140.769531 9.640625 136.191406 3.867188 C 138.261719 4.148438 140.320312 4.476562 142.371094 4.835938 C 147.050781 5.820312 152.4375 6.683594 155.960938 10.078125 Z M 109.1875 4.746094 C 113.789062 7.242188 116.921875 11.519531 120.105469 15.523438 L 131.160156 29.410156 L 136.558594 36.183594 C 136.664062 36.273438 136.78125 36.339844 136.914062 36.378906 C 137.046875 36.417969 137.183594 36.429688 137.320312 36.410156 C 137.460938 36.394531 137.589844 36.347656 137.707031 36.273438 C 137.824219 36.199219 137.921875 36.105469 138 35.988281 C 140.988281 30.417969 139.304688 23.925781 136.945312 18.453125 C 134.558594 12.96875 131.550781 7.847656 127.921875 3.09375 C 129.855469 3.199219 131.722656 3.363281 133.617188 3.578125 C 137.769531 8.628906 141.292969 14.085938 144.179688 19.953125 C 146.691406 24.6875 148.328125 29.707031 149.082031 35.011719 C 149.382812 37.363281 149.328125 39.707031 148.917969 42.042969 L 147.894531 41.773438 C 144.566406 40.890625 141.21875 40.011719 137.949219 38.871094 C 134.679688 37.730469 131.375 36.460938 128.144531 35.117188 C 125.832031 34.152344 123.53125 33.183594 121.21875 32.214844 C 121.085938 31.417969 120.910156 30.625 120.6875 29.847656 C 120.035156 27.285156 119.105469 24.828125 117.898438 22.476562 C 115.675781 18.179688 112.816406 14.351562 109.332031 10.996094 C 105.757812 7.453125 101.792969 4.425781 97.433594 1.914062 C 101.585938 1.886719 105.503906 2.832031 109.1875 4.746094 Z M 81.832031 4.476562 C 85.726562 3.289062 89.699219 2.496094 93.75 2.097656 C 98 4.203125 101.894531 6.832031 105.441406 9.980469 C 108.925781 12.925781 111.917969 16.3125 114.410156 20.136719 C 115.738281 22.191406 116.84375 24.359375 117.726562 26.644531 C 118.195312 27.867188 118.582031 29.117188 118.898438 30.386719 C 118.984375 30.726562 119.050781 31.066406 119.117188 31.355469 C 115.800781 30.019531 112.445312 28.761719 109.011719 27.738281 C 107.839844 27.390625 106.671875 27.0625 105.492188 26.769531 C 96.5625 22.003906 87.105469 18.777344 77.125 17.097656 C 70.117188 15.816406 63.054688 15.121094 55.933594 15.019531 L 55.71875 15.019531 C 64.089844 10.675781 72.792969 7.164062 81.832031 4.476562 Z M 19.253906 45.148438 C 21.425781 40.945312 24.230469 37.222656 27.671875 33.976562 C 34.769531 27.042969 43.492188 21.625 52.179688 16.90625 C 55.867188 16.785156 59.546875 16.878906 63.222656 17.1875 C 71.855469 17.773438 80.316406 19.304688 88.605469 21.78125 C 91.738281 22.726562 94.8125 23.851562 97.820312 25.144531 C 95.460938 24.726562 93.089844 24.40625 90.703125 24.179688 C 78.113281 22.84375 65.691406 23.757812 53.4375 26.925781 C 47.351562 28.507812 41.460938 30.632812 35.765625 33.300781 C 30.28125 35.882812 24.875 38.714844 21.480469 43.9375 C 20.335938 45.984375 19 47.894531 17.476562 49.675781 C 17.5625 49.304688 17.671875 48.9375 17.804688 48.582031 C 18.21875 47.40625 18.703125 46.261719 19.253906 45.148438 Z M 49.375 36.09375 C 45.109375 33.472656 39.558594 35.777344 35.542969 37.855469 C 31.269531 40.21875 27.355469 43.074219 23.800781 46.425781 C 22.902344 47.226562 22.023438 48.039062 21.132812 48.851562 C 20.429688 49.652344 19.632812 50.34375 18.742188 50.929688 C 20.128906 49.425781 21.332031 47.78125 22.351562 46.007812 C 23.832031 43.445312 25.765625 41.289062 28.152344 39.539062 C 33.085938 36.09375 38.929688 33.628906 44.597656 31.566406 C 56.167969 27.351562 68.113281 25.292969 80.429688 25.386719 C 86.792969 25.429688 93.09375 26.074219 99.332031 27.320312 C 98.363281 27.574219 97.394531 27.863281 96.429688 28.132812 C 92.359375 29.386719 88.363281 30.847656 84.445312 32.515625 C 76.804688 35.6875 69.308594 39.21875 61.910156 42.921875 C 60.535156 43.613281 59.164062 44.308594 57.796875 45.011719 L 54.382812 40.988281 C 52.972656 39.089844 51.304688 37.460938 49.375 36.09375 Z M 60.234375 47.875 L 59.035156 46.464844 C 63.058594 44.375 67.140625 42.382812 71.242188 40.4375 C 79.082031 36.550781 87.140625 33.203125 95.421875 30.386719 C 97.28125 29.792969 99.167969 29.308594 101.082031 28.925781 C 102.300781 28.648438 103.535156 28.542969 104.785156 28.617188 C 108.761719 29.632812 112.664062 30.886719 116.488281 32.371094 L 119.265625 33.484375 C 119.265625 33.617188 119.1875 33.753906 119.136719 33.890625 L 119.136719 33.996094 C 119.125 34.035156 119.109375 34.070312 119.089844 34.101562 L 118.914062 34.46875 C 118.652344 34.96875 118.347656 35.441406 118.007812 35.890625 C 117.164062 36.945312 116.230469 37.910156 115.210938 38.792969 C 112.539062 41.09375 109.683594 43.144531 106.652344 44.945312 C 99.65625 49.160156 92.429688 52.929688 84.96875 56.25 C 80.632812 58.242188 76.445312 60.0625 72.132812 61.8125 L 71.714844 61.328125 Z M 88.285156 73.148438 C 86.019531 72.992188 83.914062 72.328125 81.96875 71.15625 C 78.582031 69.222656 75.886719 66.261719 73.332031 63.292969 C 76.785156 61.898438 80.199219 60.390625 83.59375 58.882812 C 91.179688 55.550781 98.550781 51.804688 105.714844 47.644531 C 109.035156 45.730469 112.195312 43.582031 115.191406 41.191406 C 117.273438 39.480469 119.488281 37.488281 120.636719 34.992188 C 120.761719 34.710938 120.878906 34.429688 120.976562 34.152344 C 125.707031 36.085938 130.398438 38.195312 135.222656 39.953125 C 139.429688 41.460938 143.742188 42.585938 148.046875 43.726562 C 147.84375 43.949219 147.652344 44.171875 147.4375 44.363281 C 145.320312 46.207031 143.042969 47.816406 140.601562 49.199219 C 137.1875 51.289062 133.675781 53.203125 130.144531 55.0625 C 122.457031 59.113281 114.613281 62.886719 106.738281 66.550781 C 103.761719 67.925781 100.78125 69.285156 97.800781 70.632812 C 96.285156 71.320312 94.726562 71.929688 93.238281 72.675781 C 91.613281 73.0625 89.96875 73.21875 88.304688 73.148438 Z M 97.609375 87.125 C 96.292969 85.394531 95.054688 83.601562 93.867188 81.785156 C 98.957031 81.632812 104.003906 81.066406 109.003906 80.082031 C 112.175781 79.464844 118.191406 77.847656 117.53125 73.4375 C 116.914062 69.222656 110.832031 68.429688 107.464844 68.796875 C 106.863281 68.863281 106.265625 68.960938 105.664062 69.066406 C 113.527344 65.4375 121.34375 61.707031 129.03125 57.730469 C 132.738281 55.796875 136.414062 53.863281 140.011719 51.714844 C 142.78125 50.148438 145.414062 48.375 147.902344 46.394531 C 148.703125 45.769531 149.410156 45.050781 150.019531 44.238281 C 151.480469 44.644531 152.921875 45.050781 154.382812 45.484375 C 160.625 47.367188 166.472656 50.09375 171.929688 53.667969 C 173.21875 54.492188 174.464844 55.351562 175.671875 56.242188 C 175.644531 56.285156 175.617188 56.328125 175.585938 56.367188 L 175.304688 56.726562 L 174.859375 57.265625 C 174.511719 57.671875 174.164062 58.070312 173.804688 58.457031 C 169.144531 63.480469 164.089844 68.070312 158.640625 72.230469 C 151.203125 78.121094 143.207031 83.121094 134.652344 87.222656 C 126.003906 91.28125 116.527344 94.234375 106.882812 94.175781 C 105.917969 94.175781 104.863281 94.117188 103.847656 94.050781 C 101.566406 91.925781 99.496094 89.617188 97.628906 87.125 Z M 149.703125 91.398438 C 146.984375 92.367188 144.332031 93.59375 141.703125 94.8125 C 136.480469 97.242188 131.226562 99.882812 125.511719 100.972656 C 122.785156 101.507812 120.054688 101.542969 117.316406 101.085938 C 114.578125 100.628906 112.007812 99.703125 109.601562 98.316406 C 108.398438 97.625 107.25 96.855469 106.160156 96.003906 C 115.125 96.207031 124.003906 93.808594 132.214844 90.335938 C 141.195312 86.410156 149.578125 81.472656 157.363281 75.519531 C 163.382812 71.101562 168.988281 66.210938 174.179688 60.84375 C 175.269531 59.753906 176.277344 58.597656 177.207031 57.371094 C 179.832031 59.308594 182.394531 61.339844 184.945312 63.378906 C 184.945312 64.976562 184.945312 66.5625 184.832031 68.148438 C 184.757812 70.316406 184.371094 72.425781 183.667969 74.476562 C 182.964844 76.527344 181.980469 78.433594 180.710938 80.1875 C 176.542969 85.558594 169.714844 87.925781 163.234375 89.046875 C 162.046875 89.25 160.847656 89.414062 159.636719 89.542969 C 159.335938 89.542969 159.035156 89.484375 158.726562 89.484375 C 155.605469 89.566406 152.605469 90.203125 149.722656 91.398438 Z M 174.238281 97.734375 C 171.339844 95.191406 167.914062 92.316406 164.140625 90.703125 C 170.15625 89.628906 176.136719 87.511719 180.496094 83.148438 C 182.1875 81.378906 183.546875 79.382812 184.570312 77.160156 C 185.589844 74.933594 186.222656 72.605469 186.464844 70.167969 C 186.671875 68.394531 186.773438 66.617188 186.765625 64.832031 L 187.527344 65.449219 C 190.042969 67.46875 192.578125 69.472656 195.113281 71.484375 C 194.882812 71.695312 194.6875 71.933594 194.523438 72.199219 C 194.070312 73.019531 193.832031 73.894531 193.816406 74.832031 C 193.777344 77.210938 194.015625 79.558594 194.53125 81.882812 C 195.066406 84.707031 195.390625 87.558594 195.5 90.433594 C 195.648438 93.332031 195.078125 96.082031 193.785156 98.683594 C 192.941406 100.101562 191.878906 101.328125 190.597656 102.367188 C 189.316406 103.402344 187.890625 104.1875 186.328125 104.71875 C 185.429688 105.050781 184.515625 105.332031 183.582031 105.558594 C 180.332031 103.121094 177.222656 100.511719 174.257812 97.734375 Z M 185.664062 106.894531 C 188.796875 106.007812 191.476562 104.371094 193.699219 101.988281 C 194.6875 100.808594 195.476562 99.507812 196.070312 98.089844 C 196.664062 96.667969 197.035156 95.195312 197.179688 93.664062 C 197.878906 87.976562 196.136719 82.394531 195.703125 76.871094 C 195.703125 76.347656 195.632812 75.816406 195.644531 75.296875 C 195.644531 75.074219 195.644531 74.851562 195.644531 74.628906 C 195.644531 74.449219 195.671875 74.277344 195.722656 74.105469 C 195.769531 73.921875 195.816406 73.746094 195.875 73.5625 C 195.875 73.5625 195.875 73.46875 195.925781 73.4375 C 195.972656 73.410156 196.011719 73.265625 196.050781 73.1875 L 196.183594 72.972656 L 196.359375 72.800781 L 196.359375 72.75 L 196.425781 72.75 C 198.960938 74.773438 201.476562 76.8125 203.953125 78.902344 C 205.222656 79.886719 206.1875 81.109375 206.855469 82.570312 C 207.363281 83.996094 207.703125 85.464844 207.871094 86.96875 C 208.308594 89.601562 208.5625 92.25 208.625 94.917969 C 208.625 99.957031 207.519531 105.558594 202.9375 108.402344 C 198.351562 111.246094 192.472656 110.335938 187.839844 108.207031 C 187.257812 107.746094 186.445312 107.328125 185.679688 106.894531 Z M 194.6875 115.171875 C 194.464844 114.03125 194.230469 112.890625 193.980469 111.75 C 194.625 111.828125 195.253906 111.875 195.867188 111.894531 C 196.890625 116.390625 197.65625 120.964844 198.382812 125.511719 C 200.375 138.085938 201.6875 150.832031 202.441406 163.570312 C 202.984375 172.722656 203.226562 181.882812 203.167969 191.058594 C 202.320312 190.234375 201.695312 189.269531 201.292969 188.15625 C 201.28125 172.804688 200.425781 157.503906 198.730469 142.246094 C 197.734375 133.152344 196.457031 124.109375 194.707031 115.171875 Z M 171.472656 180.402344 C 173.324219 178.777344 175.402344 177.539062 177.710938 176.6875 C 180.023438 175.835938 182.40625 175.425781 184.871094 175.457031 C 189.144531 175.601562 193.691406 177.285156 196.273438 180.84375 C 198.207031 183.535156 198.613281 187.617188 200.335938 190.519531 C 198.835938 189.007812 197.222656 187.625 195.5 186.378906 C 189.878906 182.265625 182.984375 179.996094 176.019531 181.28125 C 172.757812 181.921875 169.738281 183.148438 166.957031 184.964844 C 168.339844 183.300781 169.863281 181.777344 171.53125 180.402344 Z M 161.433594 193.273438 C 162.042969 192.179688 162.691406 191.089844 163.367188 190.023438 C 166.800781 186.820312 170.78125 184.597656 175.3125 183.359375 C 178.769531 182.535156 182.210938 182.597656 185.632812 183.554688 C 188.269531 184.367188 190.753906 185.511719 193.085938 186.988281 C 195.417969 188.464844 197.515625 190.222656 199.378906 192.257812 C 199.976562 192.886719 200.566406 193.546875 201.128906 194.191406 L 201.207031 194.289062 C 200.238281 195.34375 199.269531 196.425781 198.304688 197.53125 C 197.023438 197.3125 195.734375 197.222656 194.433594 197.269531 C 191.035156 197.265625 187.6875 197.683594 184.394531 198.527344 C 182.363281 199.050781 180.367188 199.699219 178.410156 200.460938 C 178.421875 200.339844 178.410156 200.222656 178.375 200.105469 C 178.335938 199.992188 178.273438 199.890625 178.1875 199.800781 C 178.105469 199.714844 178.003906 199.648438 177.890625 199.609375 C 177.777344 199.566406 177.660156 199.550781 177.539062 199.5625 C 173.398438 199.632812 169.382812 200.355469 165.480469 201.738281 C 161.578125 203.121094 158 205.085938 154.742188 207.636719 C 156.640625 202.683594 158.890625 197.898438 161.492188 193.273438 Z M 181.640625 222.058594 C 181.011719 221.804688 180.332031 221.640625 179.703125 221.46875 C 177.105469 220.714844 174.453125 220.351562 171.746094 220.382812 C 167.914062 220.445312 164.273438 221.308594 160.824219 222.976562 C 156.21875 225.328125 152.394531 228.59375 149.355469 232.773438 C 149.179688 233.007812 149.023438 233.25 148.851562 233.480469 C 149.113281 231.476562 149.386719 229.472656 149.664062 227.472656 C 149.847656 226.207031 150.070312 224.949219 150.371094 223.710938 C 158.84375 213.972656 169.257812 205.25 181.714844 201.234375 C 185.203125 200.074219 188.78125 199.390625 192.453125 199.183594 C 193.609375 199.121094 194.765625 199.121094 195.925781 199.183594 L 196.792969 199.261719 C 193.894531 202.773438 191.1875 206.429688 188.671875 210.230469 C 186.222656 214.058594 183.871094 218.015625 181.695312 222.058594 Z M 154.375 216.0625 C 157.199219 213.164062 160.355469 210.683594 163.832031 208.613281 C 160.109375 211.402344 156.636719 214.464844 153.40625 217.8125 C 153.027344 218.199219 152.671875 218.59375 152.304688 218.980469 C 152.890625 217.9375 153.582031 216.960938 154.375 216.0625 Z M 158.550781 295.496094 C 157.75 290.601562 156.363281 285.875 154.394531 281.316406 C 152.390625 276.792969 149.992188 272.207031 150.417969 267.109375 C 150.84375 262.011719 153.570312 257.515625 155.980469 253.203125 L 164.179688 238.5 C 165.546875 236.050781 166.914062 233.601562 168.28125 231.160156 C 169.25 229.503906 170.796875 227.105469 169.460938 225.25 C 168.128906 223.394531 165.535156 224.484375 164.085938 225.714844 C 162.332031 227.183594 160.679688 228.808594 159.0625 230.425781 C 154.46875 235.019531 150.167969 240.242188 147.34375 246.140625 C 147.679688 243.289062 148.039062 240.433594 148.394531 237.582031 C 153.230469 229.785156 160.464844 223.179688 169.9375 222.339844 C 172.691406 222.09375 175.410156 222.296875 178.097656 222.949219 C 178.964844 223.152344 179.816406 223.402344 180.652344 223.703125 L 180.769531 223.703125 C 180.0625 225.046875 179.386719 226.402344 178.71875 227.765625 C 175.050781 235.332031 171.984375 243.132812 169.519531 251.171875 C 166.589844 260.765625 164.5 270.542969 163.253906 280.496094 C 161.808594 292.152344 161.429688 303.84375 162.109375 315.566406 C 162.109375 316.292969 162.207031 317.019531 162.257812 317.753906 C 160.359375 310.488281 159.867188 302.859375 158.582031 295.496094 Z M 163.929688 315.226562 C 163.441406 306.394531 163.546875 297.566406 164.25 288.746094 C 165.089844 278.363281 166.839844 268.136719 169.492188 258.066406 C 171.726562 249.613281 174.628906 241.398438 178.195312 233.414062 C 179.5 230.511719 180.902344 227.609375 182.394531 224.707031 C 182.597656 224.882812 182.800781 225.046875 182.992188 225.230469 C 184.425781 226.578125 185.753906 228.023438 186.976562 229.5625 C 191.136719 234.78125 194 240.632812 195.574219 247.117188 C 197.925781 256.789062 196.824219 266.984375 193.640625 276.386719 C 193.167969 277.789062 192.675781 279.171875 192.105469 280.542969 L 189.300781 282.796875 C 178.621094 291.414062 167.519531 301.609375 163.957031 315.21875 Z M 194.996094 278.289062 C 198.253906 269.113281 199.675781 259.277344 197.992188 249.613281 C 197.371094 246.03125 196.34375 242.570312 194.910156 239.226562 C 193.476562 235.886719 191.675781 232.753906 189.511719 229.835938 C 187.722656 227.324219 185.65625 225.066406 183.3125 223.0625 C 184.847656 220.207031 186.457031 217.40625 188.148438 214.660156 C 190.929688 210.179688 193.96875 205.882812 197.257812 201.765625 C 197.75 201.121094 198.253906 200.511719 198.769531 199.9375 L 198.992188 200.121094 C 200.601562 201.507812 202.113281 202.996094 203.515625 204.589844 C 206.078125 207.484375 208.289062 210.625 210.144531 214.015625 C 211.996094 217.40625 213.453125 220.960938 214.503906 224.679688 C 217.734375 236.148438 216.554688 248.269531 212.722656 259.441406 C 212.117188 261.238281 211.445312 263.007812 210.703125 264.75 C 210.667969 264.839844 210.636719 264.933594 210.617188 265.03125 L 208.449219 266.964844 C 204.046875 270.871094 199.523438 274.597656 194.996094 278.289062 Z M 217.773438 258.394531 C 217.578125 258.484375 217.429688 258.625 217.328125 258.8125 C 216.121094 259.964844 214.90625 261.109375 213.683594 262.246094 C 217.773438 251.265625 219.574219 239.4375 217.222656 227.84375 C 216.347656 223.640625 214.984375 219.609375 213.132812 215.738281 C 211.28125 211.867188 208.992188 208.273438 206.273438 204.957031 C 204.691406 202.996094 202.964844 201.167969 201.097656 199.472656 C 200.78125 199.183594 200.402344 198.789062 200.003906 198.4375 C 201.09375 197.179688 202.222656 195.957031 203.382812 194.761719 C 203.796875 194.339844 204.269531 193.941406 204.667969 193.496094 L 204.667969 193.449219 C 204.777344 193.367188 204.863281 193.265625 204.917969 193.140625 L 205.617188 192.074219 C 206.851562 191.023438 208.027344 189.902344 209.136719 188.71875 C 209.308594 188.628906 209.4375 188.492188 209.511719 188.3125 C 210.066406 187.722656 210.605469 187.121094 211.148438 186.523438 L 211.515625 186.824219 C 212.25 187.453125 212.964844 188.109375 213.652344 188.757812 C 216.042969 191.125 218.179688 193.707031 220.066406 196.496094 C 222.765625 200.472656 224.886719 204.738281 226.429688 209.289062 C 228.355469 215.101562 229.269531 221.066406 229.167969 227.183594 C 228.957031 235.023438 227.449219 242.601562 224.640625 249.921875 C 224.320312 250.792969 223.984375 251.652344 223.671875 252.515625 C 221.714844 254.515625 219.734375 256.472656 217.734375 258.394531 Z M 219.398438 178.613281 C 220.746094 177.609375 222.214844 176.84375 223.804688 176.316406 C 225.398438 175.789062 227.035156 175.527344 228.710938 175.527344 C 230.5625 175.597656 232.367188 175.925781 234.121094 176.515625 C 235.875 177.105469 237.511719 177.929688 239.03125 178.988281 C 249.625 186.070312 252.71875 200.460938 250.308594 212.328125 C 247.351562 226.972656 237.019531 238.867188 226.921875 249.292969 C 229.191406 243.003906 230.550781 236.523438 231.003906 229.855469 C 231.378906 223.390625 230.660156 217.054688 228.847656 210.839844 C 227.597656 206.585938 225.859375 202.546875 223.628906 198.71875 C 221.398438 194.886719 218.746094 191.382812 215.664062 188.195312 C 214.667969 187.082031 213.589844 186.058594 212.425781 185.121094 C 214.496094 182.695312 216.808594 180.527344 219.359375 178.613281 Z M 216.082031 161.589844 C 213.390625 168.6875 211.070312 175.933594 209.039062 183.253906 C 208.640625 184.648438 208.261719 186.050781 207.90625 187.460938 C 207.230469 188.175781 206.515625 188.863281 205.789062 189.53125 C 206.390625 186.84375 207.039062 184.171875 207.722656 181.511719 C 210.992188 169.640625 215.207031 158.109375 220.367188 146.925781 C 224.367188 138.199219 228.804688 129.699219 233.683594 121.429688 C 236.09375 117.339844 238.585938 113.296875 241.257812 109.378906 C 241.480469 109.773438 241.59375 110.199219 241.59375 110.65625 C 241.550781 111.914062 241.230469 113.097656 240.628906 114.207031 C 239.941406 115.609375 239.175781 116.953125 238.375 118.277344 C 236.738281 120.945312 234.949219 123.5 233.269531 126.121094 C 231.566406 128.699219 230.125 131.414062 228.945312 134.265625 C 228.339844 135.691406 227.898438 137.164062 227.621094 138.683594 C 222.433594 145.496094 219.050781 153.695312 216.042969 161.589844 Z M 259.5 155.019531 C 255.347656 150.351562 256.597656 143.519531 258.191406 138.105469 C 259.316406 134.832031 260.203125 131.492188 260.851562 128.09375 C 261.328125 124.960938 261.433594 121.324219 259.972656 118.421875 C 259.707031 117.800781 259.289062 117.300781 258.722656 116.929688 C 258.15625 116.554688 257.535156 116.371094 256.859375 116.371094 C 256.191406 116.464844 255.574219 116.695312 255.011719 117.0625 C 254.445312 117.429688 253.984375 117.898438 253.628906 118.472656 C 252.765625 119.742188 252.09375 121.105469 251.605469 122.5625 C 251.03125 124.046875 250.539062 125.558594 250.125 127.097656 C 248.40625 133.480469 247.988281 140.136719 247.84375 146.722656 C 247.84375 147.96875 247.796875 149.207031 247.785156 150.457031 C 244.5625 149.488281 241.371094 148.414062 238.210938 147.226562 C 236.449219 146.558594 234.691406 145.882812 232.96875 145.109375 C 231.625 144.5 230.203125 143.714844 229.632812 142.265625 C 229.300781 141.316406 229.222656 140.351562 229.390625 139.363281 C 229.488281 139.191406 229.519531 139.007812 229.476562 138.8125 C 229.542969 138.433594 229.632812 138.066406 229.726562 137.699219 C 230.140625 136.167969 230.683594 134.683594 231.351562 133.25 C 232.757812 130.355469 234.371094 127.582031 236.1875 124.933594 C 237.957031 122.261719 239.765625 119.613281 241.304688 116.808594 C 242.515625 114.582031 244.050781 111.75 243.171875 109.136719 C 242.972656 108.515625 242.625 107.992188 242.125 107.566406 C 241.625 107.144531 241.054688 106.882812 240.40625 106.789062 C 239.605469 106.746094 238.828125 106.859375 238.074219 107.128906 C 237.320312 107.394531 236.648438 107.796875 236.054688 108.335938 C 233.683594 110.210938 231.667969 112.414062 230.007812 114.941406 C 226.4375 120.242188 224.390625 126.402344 222.53125 132.484375 C 221.746094 131.5625 221.058594 130.566406 220.472656 129.503906 C 219.882812 128.441406 219.40625 127.332031 219.042969 126.175781 C 218.679688 125.015625 218.433594 123.832031 218.304688 122.625 C 218.175781 121.417969 218.171875 120.210938 218.285156 119.003906 C 218.429688 117.65625 218.707031 116.335938 219.117188 115.046875 C 219.53125 113.753906 220.070312 112.519531 220.734375 111.339844 C 221.402344 110.160156 222.179688 109.058594 223.070312 108.039062 C 223.960938 107.019531 224.945312 106.097656 226.023438 105.277344 C 228.316406 103.519531 230.84375 102.214844 233.601562 101.359375 C 236.363281 100.503906 239.183594 100.152344 242.070312 100.308594 C 245.230469 100.464844 248.289062 101.109375 251.246094 102.242188 C 252.746094 102.8125 254.191406 103.496094 255.582031 104.292969 C 256.898438 105.035156 258.152344 105.878906 259.527344 106.496094 C 260.941406 107.242188 262.445312 107.539062 264.035156 107.386719 C 264.765625 107.269531 265.429688 106.988281 266.027344 106.546875 C 266.625 106.105469 267.085938 105.550781 267.410156 104.882812 C 268.996094 101.59375 266.992188 98.34375 265.050781 95.75 C 265.007812 95.671875 264.953125 95.601562 264.886719 95.539062 L 260.097656 90.914062 C 259.710938 90.546875 259.796875 90.507812 259.46875 90.0625 C 258.9375 89.378906 258.316406 88.792969 257.601562 88.304688 C 256.257812 87.335938 254.632812 86.6875 253.425781 85.539062 C 252.871094 85.082031 252.546875 84.5 252.457031 83.789062 C 252.339844 82.480469 253.328125 81.261719 254.140625 80.355469 C 255.777344 78.574219 257.691406 77.175781 259.886719 76.15625 C 264.875 73.847656 270.117188 72.695312 275.613281 72.695312 C 278.742188 72.640625 281.839844 72.9375 284.90625 73.582031 C 286.347656 73.871094 287.765625 74.257812 289.152344 74.742188 C 289.8125 74.957031 290.417969 75.28125 290.960938 75.710938 C 290.0625 75.871094 289.183594 76.101562 288.320312 76.402344 C 287.460938 76.707031 286.632812 77.078125 285.832031 77.515625 C 285.03125 77.953125 284.269531 78.453125 283.554688 79.015625 C 282.835938 79.578125 282.167969 80.195312 281.550781 80.867188 C 280.933594 81.539062 280.375 82.257812 279.875 83.023438 C 279.375 83.785156 278.941406 84.585938 278.570312 85.417969 C 278.203125 86.253906 277.902344 87.113281 277.671875 87.996094 C 277.445312 88.878906 277.289062 89.773438 277.207031 90.683594 C 277.140625 91.5625 278.175781 91.796875 278.773438 91.339844 C 284.453125 86.71875 291.078125 83.390625 298.515625 83.363281 C 303.519531 83.367188 308.226562 84.550781 312.636719 86.910156 C 310.246094 87.511719 307.886719 88.207031 305.554688 88.953125 C 299.078125 90.902344 292.859375 93.484375 286.898438 96.691406 C 283.859375 98.339844 281.027344 100.292969 278.40625 102.550781 C 277.207031 103.597656 276.105469 104.742188 275.109375 105.984375 C 274.613281 106.605469 274.152344 107.25 273.726562 107.917969 C 273.722656 107.941406 273.722656 107.964844 273.726562 107.988281 C 272.332031 107.523438 270.929688 107.085938 269.519531 106.679688 C 269.308594 106.6875 269.117188 106.757812 268.953125 106.886719 C 268.785156 107.019531 268.671875 107.183594 268.617188 107.390625 C 268.5625 107.59375 268.570312 107.792969 268.644531 107.992188 C 268.71875 108.191406 268.847656 108.347656 269.023438 108.460938 C 270.351562 108.835938 271.664062 109.242188 272.972656 109.667969 C 272.882812 109.910156 272.816406 110.144531 272.738281 110.386719 C 270.1875 118.664062 269.304688 127.523438 269.101562 136.152344 C 268.988281 140.273438 269.109375 144.386719 269.460938 148.492188 C 269.675781 151.683594 270.203125 154.824219 271.035156 157.914062 L 271.183594 158.359375 C 269.90625 158.308594 268.617188 158.25 267.3125 158.175781 C 264.382812 157.972656 261.5 157.3125 259.460938 155.019531 Z M 295.566406 159.375 C 294.023438 159.140625 292.570312 158.648438 291.203125 157.902344 C 288.609375 156.308594 288.058594 153.066406 287.671875 150.261719 C 287.21875 146.964844 287.09375 143.628906 286.820312 140.308594 C 286.636719 137.03125 286.101562 133.804688 285.226562 130.636719 C 284.878906 129.121094 284.261719 127.726562 283.367188 126.449219 C 282.527344 125.484375 281.125 124.785156 279.964844 125.695312 C 278.804688 126.605469 278.523438 128.597656 278.253906 129.875 C 277.929688 131.445312 277.765625 133.035156 277.757812 134.640625 C 277.808594 137.9375 278.257812 141.179688 279.113281 144.363281 C 279.933594 147.660156 281 150.890625 282.015625 154.140625 C 282.246094 154.902344 282.46875 155.667969 282.683594 156.433594 C 282.808594 156.847656 283.457031 158.367188 283.089844 158.667969 C 282.722656 158.96875 281.503906 158.667969 281.152344 158.667969 L 278.253906 158.550781 L 273.289062 158.386719 C 272.488281 155.976562 271.964844 153.507812 271.714844 150.980469 C 271.261719 147.121094 271.042969 143.253906 271.054688 139.371094 C 270.914062 130.734375 271.835938 122.214844 273.824219 113.808594 C 274.066406 112.578125 274.390625 111.371094 274.789062 110.183594 C 281.5625 112.570312 288.105469 115.472656 294.425781 118.886719 C 294.335938 119.488281 294.257812 120.085938 294.203125 120.695312 C 294.066406 122.253906 294.019531 123.808594 294.007812 125.375 C 294.105469 132.730469 294.703125 140.042969 295.808594 147.3125 C 296.207031 150.296875 296.648438 153.277344 297.132812 156.25 C 297.324219 157.402344 297.480469 158.5625 297.691406 159.710938 C 296.898438 159.644531 296.214844 159.5 295.527344 159.375 Z M 316.84375 157.796875 C 313.46875 155.863281 313.273438 151.132812 312.65625 147.765625 C 312.238281 145.484375 311.832031 143.203125 311.417969 140.917969 C 311.179688 138.792969 310.738281 136.710938 310.09375 134.671875 C 309.960938 134.273438 309.773438 133.902344 309.535156 133.558594 C 309.292969 133.214844 309.007812 132.914062 308.675781 132.65625 C 308.34375 132.398438 307.984375 132.195312 307.59375 132.042969 C 307.203125 131.890625 306.796875 131.800781 306.378906 131.769531 C 304.347656 131.769531 303.429688 133.617188 302.914062 135.300781 C 301.589844 139.644531 302.742188 144.316406 304.492188 148.355469 C 306.242188 152.398438 308.59375 156.007812 310.09375 160.070312 C 306.996094 160.394531 303.898438 160.414062 300.796875 160.136719 L 299.550781 160.011719 C 298.941406 156.644531 298.410156 153.242188 297.925781 149.894531 C 296.839844 142.882812 296.140625 135.832031 295.828125 128.742188 C 295.664062 125.765625 295.738281 122.796875 296.046875 119.835938 C 301.53125 122.824219 306.871094 126.082031 312.105469 129.457031 C 315.527344 131.664062 318.921875 133.917969 322.296875 136.230469 L 324.949219 138 C 325.992188 141.414062 325.972656 145.175781 325.914062 148.707031 C 325.859375 152.234375 325.546875 155.667969 325.140625 159.132812 C 325.140625 159.488281 325.054688 159.839844 325.007812 160.1875 C 324.039062 159.90625 323.074219 159.636719 322.058594 159.382812 C 320.253906 159.082031 318.523438 158.554688 316.863281 157.796875 Z M 327.125 160.835938 L 326.765625 160.726562 C 327.660156 154.921875 327.957031 149.085938 327.65625 143.222656 C 327.582031 141.980469 327.441406 140.75 327.230469 139.527344 C 328.894531 140.660156 330.539062 141.820312 332.144531 143.027344 C 335.390625 145.421875 338.292969 148.179688 340.847656 151.296875 C 343.148438 154.261719 345.144531 157.414062 346.847656 160.757812 C 348.847656 164.558594 350.570312 168.496094 352.261719 172.449219 C 353.421875 175.148438 354.59375 177.855469 355.492188 180.652344 C 349.15625 170.738281 338.140625 164.394531 327.125 160.835938 Z M 327.125 160.835938 " fill-opacity="1" fill-rule="nonzero"/></svg>