<svg xmlns="http://www.w3.org/2000/svg" xmlns:xlink="http://www.w3.org/1999/xlink" width="500" zoomAndPan="magnify" viewBox="0 0 375 374.999991" height="500" preserveAspectRatio="xMidYMid meet" version="1.0"><defs><clipPath id="id1"><path d="M 25 0 L 350.625 0 L 350.625 375 L 25 375 Z M 25 0 " clip-rule="nonzero"/></clipPath></defs><g clip-path="url(#id1)"><path fill="#000000" d="M 169.523438 0.675781 C 163.550781 0.710938 157.640625 2.605469 152.265625 5.714844 C 145.09375 9.859375 138.554688 16.109375 132.449219 23.957031 C 120.238281 39.652344 109.773438 61.878906 102.65625 87.867188 L 103.386719 88.074219 L 58.84375 102.582031 C 58.113281 102.820312 57.429688 103.15625 56.792969 103.585938 C 56.15625 104.019531 55.59375 104.53125 55.105469 105.125 C 54.613281 105.714844 54.214844 106.363281 53.90625 107.070312 C 53.601562 107.773438 53.398438 108.507812 53.296875 109.269531 L 25.253906 327.398438 C 25.1875 327.910156 25.171875 328.417969 25.203125 328.933594 C 25.234375 329.445312 25.3125 329.949219 25.441406 330.445312 C 25.566406 330.945312 25.738281 331.425781 25.957031 331.890625 C 26.175781 332.355469 26.433594 332.792969 26.738281 333.210938 C 27.039062 333.625 27.375 334.007812 27.75 334.359375 C 28.125 334.710938 28.527344 335.027344 28.960938 335.300781 C 29.394531 335.578125 29.847656 335.808594 30.328125 335.996094 C 30.804688 336.1875 31.292969 336.328125 31.800781 336.425781 L 231.8125 374.484375 C 232.40625 374.59375 233.003906 374.632812 233.609375 374.609375 C 234.320312 374.644531 235.023438 374.585938 235.722656 374.433594 L 344.253906 350.410156 C 344.75 350.300781 345.230469 350.144531 345.695312 349.945312 C 346.164062 349.742188 346.609375 349.5 347.027344 349.21875 C 347.449219 348.933594 347.84375 348.613281 348.203125 348.257812 C 348.566406 347.902344 348.890625 347.515625 349.179688 347.097656 C 349.46875 346.679688 349.714844 346.238281 349.921875 345.773438 C 350.128906 345.3125 350.292969 344.832031 350.410156 344.335938 C 350.523438 343.84375 350.59375 343.34375 350.617188 342.835938 C 350.640625 342.328125 350.617188 341.824219 350.546875 341.320312 C 350.546875 341.320312 341.039062 275.371094 331.507812 209.191406 C 326.742188 176.097656 321.960938 142.941406 318.367188 117.949219 C 316.570312 105.449219 315.074219 94.988281 314.011719 87.597656 C 313.484375 83.902344 313.0625 80.984375 312.773438 78.953125 C 312.628906 77.9375 312.515625 77.128906 312.441406 76.585938 C 312.363281 76.039062 312.257812 75.136719 312.34375 75.933594 C 312.253906 75.105469 312.042969 74.3125 311.710938 73.550781 C 309.859375 69.304688 305.929688 66.804688 303.398438 65.9375 C 302.542969 65.644531 301.664062 65.496094 300.761719 65.492188 C 301.761719 65.492188 300.570312 65.484375 299.742188 65.429688 C 298.917969 65.375 297.777344 65.289062 296.4375 65.191406 C 293.757812 64.996094 290.277344 64.722656 286.839844 64.460938 C 281.492188 64.050781 278.328125 63.8125 276.257812 63.648438 C 274.804688 62.160156 272.625 59.914062 268.757812 55.992188 C 266.269531 53.464844 263.710938 50.871094 261.605469 48.777344 C 259.730469 46.90625 258.652344 45.835938 257.363281 44.707031 C 255.609375 42.949219 253.589844 41.710938 251.054688 41.261719 C 251.050781 41.257812 251.042969 41.261719 251.039062 41.261719 C 250.503906 41.125 249.957031 41.046875 249.402344 41.023438 C 248.707031 40.996094 248.015625 41.058594 247.335938 41.210938 C 247.074219 41.269531 246.816406 41.335938 246.558594 41.417969 C 246.515625 41.429688 246.472656 41.441406 246.429688 41.449219 L 231.828125 46.21875 C 229.628906 37.835938 226.621094 30.414062 222.421875 24.367188 C 217.605469 17.433594 210.957031 12.101562 202.875 10.371094 C 199.015625 9.542969 195.160156 9.8125 191.449219 10.75 C 187.058594 6.054688 181.75 2.621094 175.496094 1.28125 C 173.511719 0.855469 171.511719 0.664062 169.523438 0.675781 Z M 169.523438 16.917969 C 170.40625 16.914062 171.253906 17.011719 172.078125 17.1875 C 173.492188 17.488281 174.890625 18.171875 176.273438 19.0625 C 172.777344 22.023438 169.460938 25.492188 166.28125 29.46875 C 156.636719 41.519531 148.082031 57.855469 140.886719 75.855469 L 121.53125 82.164062 C 127.992188 62.308594 136.40625 45.367188 145.289062 33.949219 C 150.472656 27.289062 155.761719 22.484375 160.417969 19.792969 C 163.902344 17.777344 166.863281 16.921875 169.523438 16.917969 Z M 201.285156 26.878906 C 203.929688 27.914062 206.496094 29.957031 209.058594 33.648438 C 211.910156 37.761719 214.457031 43.828125 216.335938 51.253906 L 207.976562 53.988281 C 206.726562 43.851562 204.535156 34.738281 201.285156 26.878906 Z M 185.921875 32.28125 C 188.886719 39.207031 191.121094 48.355469 192.214844 59.121094 L 161.511719 69.132812 C 166.996094 57.445312 172.992188 47.113281 178.976562 39.640625 C 181.34375 36.679688 183.675781 34.292969 185.921875 32.28125 Z M 240.28125 60.582031 L 226.265625 356.859375 L 42.367188 321.871094 L 68.777344 116.453125 Z M 256.285156 66.511719 C 256.597656 66.828125 256.859375 67.097656 257.171875 67.414062 C 262.113281 72.429688 266.769531 77.203125 266.769531 77.203125 C 267.460938 77.910156 268.253906 78.472656 269.148438 78.894531 C 270.042969 79.3125 270.980469 79.558594 271.96875 79.636719 C 271.96875 79.636719 278.707031 80.15625 285.601562 80.683594 C 289.046875 80.949219 292.53125 81.214844 295.246094 81.414062 C 295.824219 81.457031 296.191406 81.476562 296.691406 81.511719 C 296.980469 83.542969 297.386719 86.316406 297.902344 89.902344 C 298.960938 97.296875 300.472656 107.769531 302.269531 120.265625 C 305.863281 145.265625 310.628906 178.417969 315.394531 211.511719 C 324.390625 273.953125 332.367188 329.335938 333.351562 336.171875 L 242.585938 356.242188 Z M 169.695312 122.445312 C 144.507812 122.457031 124.625 131.246094 111.441406 144.960938 C 98.25 158.6875 91.800781 176.964844 91.800781 195.316406 C 91.800781 217.597656 103.671875 230.820312 113.667969 239.382812 C 118.664062 243.664062 123.148438 247.148438 125.917969 250.300781 C 128.6875 253.449219 129.84375 255.6875 129.84375 259.46875 C 129.84375 260.472656 129.324219 262.238281 128.476562 263.25 C 127.628906 264.261719 126.816406 264.980469 124.011719 264.980469 C 119.375 264.980469 112.019531 261.90625 106.308594 258.355469 C 100.597656 254.804688 96.632812 251.300781 96.632812 251.300781 C 96.375 251.074219 96.109375 250.867188 95.828125 250.675781 C 95.546875 250.480469 95.253906 250.308594 94.949219 250.152344 C 94.648438 250 94.335938 249.863281 94.015625 249.746094 C 93.695312 249.632812 93.371094 249.535156 93.039062 249.460938 C 92.707031 249.386719 92.371094 249.332031 92.03125 249.296875 C 91.691406 249.265625 91.351562 249.253906 91.011719 249.261719 C 90.671875 249.273438 90.332031 249.304688 89.996094 249.355469 C 89.660156 249.410156 89.328125 249.480469 89 249.574219 C 88.671875 249.667969 88.351562 249.78125 88.039062 249.917969 C 87.726562 250.050781 87.421875 250.203125 87.128906 250.375 C 86.835938 250.546875 86.554688 250.738281 86.285156 250.945312 C 86.015625 251.152344 85.757812 251.378906 85.515625 251.617188 C 85.273438 251.855469 85.046875 252.109375 84.839844 252.378906 C 84.628906 252.648438 84.4375 252.925781 84.261719 253.21875 C 84.085938 253.511719 83.929688 253.8125 83.792969 254.125 C 83.65625 254.4375 83.539062 254.753906 83.441406 255.082031 L 74.335938 285.703125 C 73.960938 286.972656 73.898438 288.253906 74.148438 289.554688 C 74.398438 290.851562 74.933594 292.023438 75.753906 293.058594 C 75.753906 293.058594 95.699219 317.679688 133.117188 317.691406 C 149.273438 317.691406 163.933594 311.253906 174.175781 299.925781 C 184.421875 288.597656 190.210938 272.636719 190.210938 254.097656 C 190.210938 229.738281 176.238281 214.421875 163.929688 204.488281 C 157.773438 199.519531 151.953125 195.542969 148.246094 192.234375 C 144.535156 188.925781 143.683594 187.109375 143.683594 186.023438 C 143.683594 185.199219 143.894531 182.953125 145.144531 181.300781 C 146.394531 179.652344 148.746094 177.394531 157.414062 177.394531 C 168.882812 177.394531 179.199219 182.8125 179.199219 182.8125 C 179.722656 183.097656 180.273438 183.324219 180.847656 183.488281 C 181.421875 183.652344 182.007812 183.753906 182.605469 183.789062 C 183.203125 183.824219 183.796875 183.792969 184.386719 183.699219 C 184.976562 183.605469 185.550781 183.445312 186.105469 183.222656 C 186.660156 183.003906 187.183594 182.722656 187.679688 182.386719 C 188.171875 182.046875 188.621094 181.660156 189.03125 181.226562 C 189.441406 180.789062 189.796875 180.3125 190.097656 179.796875 C 190.402344 179.28125 190.648438 178.742188 190.832031 178.171875 L 203.78125 138.238281 C 203.921875 137.804688 204.023438 137.363281 204.089844 136.914062 C 204.15625 136.464844 204.1875 136.011719 204.175781 135.554688 C 204.167969 135.101562 204.117188 134.648438 204.03125 134.203125 C 203.949219 133.753906 203.824219 133.316406 203.667969 132.890625 C 203.507812 132.464844 203.3125 132.054688 203.085938 131.660156 C 202.859375 131.265625 202.597656 130.890625 202.308594 130.539062 C 202.019531 130.191406 201.699219 129.867188 201.355469 129.570312 C 201.011719 129.269531 200.644531 129.003906 200.253906 128.769531 C 200.253906 128.769531 196.886719 126.8125 191.753906 125.273438 C 186.632812 123.738281 179.214844 122.335938 169.695312 122.445312 Z M 169.839844 138.683594 C 177.136719 138.597656 182.195312 139.679688 185.871094 140.703125 L 178.070312 164.777344 C 172.746094 162.953125 165.519531 161.121094 157.414062 161.121094 C 145.246094 161.121094 136.644531 165.582031 132.179688 171.480469 C 127.710938 177.382812 127.410156 183.535156 127.410156 186.023438 C 127.410156 194.039062 132.394531 199.921875 137.40625 204.390625 C 142.421875 208.863281 148.234375 212.730469 153.710938 217.152344 C 164.667969 225.996094 173.9375 235.628906 173.9375 254.097656 C 173.9375 269.289062 169.320312 281.042969 162.117188 289.007812 C 154.914062 296.972656 145.085938 301.417969 133.117188 301.417969 C 106.621094 301.414062 94.675781 289.097656 91.402344 285.417969 L 95.773438 270.734375 C 96.789062 271.425781 96.574219 271.457031 97.710938 272.164062 C 104.644531 276.476562 113.675781 281.253906 124.011719 281.253906 C 131.117188 281.253906 137.292969 278.058594 140.949219 273.691406 C 144.605469 269.320312 146.113281 264.261719 146.113281 259.46875 C 146.113281 251.351562 142.5 244.523438 138.136719 239.558594 C 133.773438 234.59375 128.761719 230.902344 124.25 227.035156 C 115.226562 219.304688 108.074219 212.351562 108.074219 195.316406 C 108.074219 180.769531 113.160156 166.671875 123.183594 156.242188 C 133.207031 145.8125 148.226562 138.699219 169.742188 138.699219 C 169.777344 138.695312 169.808594 138.691406 169.839844 138.683594 Z M 169.839844 138.683594 " fill-opacity="1" fill-rule="nonzero"/></g></svg>