<svg xmlns="http://www.w3.org/2000/svg" xmlns:xlink="http://www.w3.org/1999/xlink" width="500" zoomAndPan="magnify" viewBox="0 0 375 374.999991" height="500" preserveAspectRatio="xMidYMid meet" version="1.0"><path fill="#100f0d" d="M 276.511719 237.5 L 362.5 237.5 L 362.5 281.25 C 362.5 284.695312 359.695312 287.5 356.25 287.5 L 326.511719 287.5 Z M 358.027344 345.527344 C 356.84375 346.707031 355.277344 347.355469 353.605469 347.355469 C 351.9375 347.355469 350.371094 346.707031 349.1875 345.527344 L 274.058594 270.398438 L 282.894531 261.558594 L 358.027344 336.6875 C 360.460938 339.125 360.460938 343.089844 358.027344 345.527344 Z M 18.75 287.5 C 15.304688 287.5 12.5 284.695312 12.5 281.25 L 12.5 237.5 L 213.929688 237.5 L 226.667969 240.683594 L 273.484375 287.5 Z M 230.121094 362.5 L 144.875 362.5 L 155.292969 300 L 219.707031 300 Z M 18.75 12.5 L 356.25 12.5 C 359.695312 12.5 362.5 15.304688 362.5 18.75 L 362.5 50 L 12.5 50 L 12.5 18.75 C 12.5 15.304688 15.304688 12.5 18.75 12.5 Z M 253.1875 214.171875 L 248.480469 195.347656 C 245.617188 183.894531 236.691406 175.128906 225.1875 172.476562 L 182.65625 162.660156 C 180.558594 162.171875 178.355469 162.804688 176.832031 164.332031 C 175.308594 165.855469 174.675781 168.054688 175.160156 170.15625 L 184.976562 212.6875 C 186.035156 217.28125 188.078125 221.449219 190.867188 225 L 12.5 225 L 12.5 62.5 L 362.5 62.5 L 362.5 225 L 264.011719 225 Z M 227.949219 228.117188 L 210.878906 223.851562 C 204.007812 222.132812 198.75 216.78125 197.15625 209.878906 L 189.585938 177.085938 L 222.378906 184.65625 C 229.28125 186.25 234.632812 191.507812 236.351562 198.378906 L 240.617188 215.449219 Z M 238.703125 235.042969 L 247.542969 226.207031 L 274.058594 252.71875 L 265.21875 261.558594 Z M 375 281.25 L 375 18.75 C 375 8.410156 366.589844 0 356.25 0 L 18.75 0 C 8.410156 0 0 8.410156 0 18.75 L 0 281.25 C 0 291.589844 8.410156 300 18.75 300 L 142.621094 300 L 132.207031 362.5 L 106.25 362.5 C 102.796875 362.5 100 365.296875 100 368.75 C 100 372.203125 102.796875 375 106.25 375 L 268.75 375 C 272.203125 375 275 372.203125 275 368.75 C 275 365.296875 272.203125 362.5 268.75 362.5 L 242.792969 362.5 L 232.375 300 L 285.984375 300 L 340.347656 354.367188 C 343.890625 357.90625 348.597656 359.855469 353.605469 359.855469 C 358.613281 359.855469 363.324219 357.90625 366.863281 354.367188 C 374.175781 347.054688 374.175781 335.160156 366.863281 327.851562 L 339.011719 300 L 356.25 300 C 366.589844 300 375 291.589844 375 281.25 " fill-opacity="1" fill-rule="nonzero"/><path fill="#100f0d" d="M 200 250 L 175 250 C 171.546875 250 168.75 252.796875 168.75 256.25 C 168.75 259.703125 171.546875 262.5 175 262.5 L 200 262.5 C 203.453125 262.5 206.25 259.703125 206.25 256.25 C 206.25 252.796875 203.453125 250 200 250 " fill-opacity="1" fill-rule="nonzero"/><path fill="#100f0d" d="M 31.25 37.5 C 34.703125 37.5 37.5 34.703125 37.5 31.25 C 37.5 27.796875 34.703125 25 31.25 25 C 27.796875 25 25 27.796875 25 31.25 C 25 34.703125 27.796875 37.5 31.25 37.5 " fill-opacity="1" fill-rule="nonzero"/><path fill="#100f0d" d="M 56.25 37.5 C 59.703125 37.5 62.5 34.703125 62.5 31.25 C 62.5 27.796875 59.703125 25 56.25 25 C 52.796875 25 50 27.796875 50 31.25 C 50 34.703125 52.796875 37.5 56.25 37.5 " fill-opacity="1" fill-rule="nonzero"/><path fill="#100f0d" d="M 81.25 37.5 C 84.703125 37.5 87.5 34.703125 87.5 31.25 C 87.5 27.796875 84.703125 25 81.25 25 C 77.796875 25 75 27.796875 75 31.25 C 75 34.703125 77.796875 37.5 81.25 37.5 " fill-opacity="1" fill-rule="nonzero"/><path fill="#100f0d" d="M 68.75 87.5 L 81.25 87.5 C 84.703125 87.5 87.5 84.703125 87.5 81.25 C 87.5 77.796875 84.703125 75 81.25 75 L 68.75 75 C 65.296875 75 62.5 77.796875 62.5 81.25 C 62.5 84.703125 65.296875 87.5 68.75 87.5 " fill-opacity="1" fill-rule="nonzero"/><path fill="#100f0d" d="M 106.25 87.5 L 118.75 87.5 C 122.203125 87.5 125 84.703125 125 81.25 C 125 77.796875 122.203125 75 118.75 75 L 106.25 75 C 102.796875 75 100 77.796875 100 81.25 C 100 84.703125 102.796875 87.5 106.25 87.5 " fill-opacity="1" fill-rule="nonzero"/><path fill="#100f0d" d="M 43.75 200 L 37.5 200 L 37.5 193.75 C 37.5 190.296875 34.703125 187.5 31.25 187.5 C 27.796875 187.5 25 190.296875 25 193.75 L 25 206.25 C 25 209.703125 27.796875 212.5 31.25 212.5 L 43.75 212.5 C 47.203125 212.5 50 209.703125 50 206.25 C 50 202.796875 47.203125 200 43.75 200 " fill-opacity="1" fill-rule="nonzero"/><path fill="#100f0d" d="M 81.25 200 L 68.75 200 C 65.296875 200 62.5 202.796875 62.5 206.25 C 62.5 209.703125 65.296875 212.5 68.75 212.5 L 81.25 212.5 C 84.703125 212.5 87.5 209.703125 87.5 206.25 C 87.5 202.796875 84.703125 200 81.25 200 " fill-opacity="1" fill-rule="nonzero"/><path fill="#100f0d" d="M 118.75 200 L 106.25 200 C 102.796875 200 100 202.796875 100 206.25 C 100 209.703125 102.796875 212.5 106.25 212.5 L 118.75 212.5 C 122.203125 212.5 125 209.703125 125 206.25 C 125 202.796875 122.203125 200 118.75 200 " fill-opacity="1" fill-rule="nonzero"/><path fill="#100f0d" d="M 156.25 75 L 143.75 75 C 140.296875 75 137.5 77.796875 137.5 81.25 C 137.5 84.703125 140.296875 87.5 143.75 87.5 L 150 87.5 L 150 93.75 C 150 97.203125 152.796875 100 156.25 100 C 159.703125 100 162.5 97.203125 162.5 93.75 L 162.5 81.25 C 162.5 77.796875 159.703125 75 156.25 75 " fill-opacity="1" fill-rule="nonzero"/><path fill="#100f0d" d="M 156.25 112.5 C 152.796875 112.5 150 115.296875 150 118.75 L 150 131.25 C 150 134.703125 152.796875 137.5 156.25 137.5 C 159.703125 137.5 162.5 134.703125 162.5 131.25 L 162.5 118.75 C 162.5 115.296875 159.703125 112.5 156.25 112.5 " fill-opacity="1" fill-rule="nonzero"/><path fill="#100f0d" d="M 156.25 150 C 152.796875 150 150 152.796875 150 156.25 L 150 168.75 C 150 172.203125 152.796875 175 156.25 175 C 159.703125 175 162.5 172.203125 162.5 168.75 L 162.5 156.25 C 162.5 152.796875 159.703125 150 156.25 150 " fill-opacity="1" fill-rule="nonzero"/><path fill="#100f0d" d="M 156.25 187.5 C 152.796875 187.5 150 190.296875 150 193.75 L 150 200 L 143.75 200 C 140.296875 200 137.5 202.796875 137.5 206.25 C 137.5 209.703125 140.296875 212.5 143.75 212.5 L 156.25 212.5 C 159.703125 212.5 162.5 209.703125 162.5 206.25 L 162.5 193.75 C 162.5 190.296875 159.703125 187.5 156.25 187.5 " fill-opacity="1" fill-rule="nonzero"/><path fill="#100f0d" d="M 31.25 100 C 34.703125 100 37.5 97.203125 37.5 93.75 L 37.5 87.5 L 43.75 87.5 C 47.203125 87.5 50 84.703125 50 81.25 C 50 77.796875 47.203125 75 43.75 75 L 31.25 75 C 27.796875 75 25 77.796875 25 81.25 L 25 93.75 C 25 97.203125 27.796875 100 31.25 100 " fill-opacity="1" fill-rule="nonzero"/><path fill="#100f0d" d="M 31.25 137.5 C 34.703125 137.5 37.5 134.703125 37.5 131.25 L 37.5 118.75 C 37.5 115.296875 34.703125 112.5 31.25 112.5 C 27.796875 112.5 25 115.296875 25 118.75 L 25 131.25 C 25 134.703125 27.796875 137.5 31.25 137.5 " fill-opacity="1" fill-rule="nonzero"/><path fill="#100f0d" d="M 31.25 175 C 34.703125 175 37.5 172.203125 37.5 168.75 L 37.5 156.25 C 37.5 152.796875 34.703125 150 31.25 150 C 27.796875 150 25 152.796875 25 156.25 L 25 168.75 C 25 172.203125 27.796875 175 31.25 175 " fill-opacity="1" fill-rule="nonzero"/><path fill="#100f0d" d="M 218.75 137.5 L 181.25 137.5 C 177.796875 137.5 175 140.296875 175 143.75 C 175 147.203125 177.796875 150 181.25 150 L 218.75 150 C 222.203125 150 225 147.203125 225 143.75 C 225 140.296875 222.203125 137.5 218.75 137.5 " fill-opacity="1" fill-rule="nonzero"/><path fill="#100f0d" d="M 343.75 137.5 L 243.75 137.5 C 240.296875 137.5 237.5 140.296875 237.5 143.75 C 237.5 147.203125 240.296875 150 243.75 150 L 343.75 150 C 347.203125 150 350 147.203125 350 143.75 C 350 140.296875 347.203125 137.5 343.75 137.5 " fill-opacity="1" fill-rule="nonzero"/><path fill="#100f0d" d="M 343.75 162.5 L 256.25 162.5 C 252.796875 162.5 250 165.296875 250 168.75 C 250 172.203125 252.796875 175 256.25 175 L 343.75 175 C 347.203125 175 350 172.203125 350 168.75 C 350 165.296875 347.203125 162.5 343.75 162.5 " fill-opacity="1" fill-rule="nonzero"/><path fill="#100f0d" d="M 337.5 112.5 L 187.5 112.5 L 187.5 87.5 L 337.5 87.5 Z M 343.75 75 L 181.25 75 C 177.796875 75 175 77.796875 175 81.25 L 175 118.75 C 175 122.203125 177.796875 125 181.25 125 L 343.75 125 C 347.203125 125 350 122.203125 350 118.75 L 350 81.25 C 350 77.796875 347.203125 75 343.75 75 " fill-opacity="1" fill-rule="nonzero"/><path fill="#100f0d" d="M 125 175 L 62.5 175 L 62.5 112.5 L 125 112.5 Z M 137.5 106.25 C 137.5 102.796875 134.703125 100 131.25 100 L 56.25 100 C 52.796875 100 50 102.796875 50 106.25 L 50 181.25 C 50 184.703125 52.796875 187.5 56.25 187.5 L 131.25 187.5 C 134.703125 187.5 137.5 184.703125 137.5 181.25 L 137.5 106.25 " fill-opacity="1" fill-rule="nonzero"/></svg>