<svg xmlns="http://www.w3.org/2000/svg" xmlns:xlink="http://www.w3.org/1999/xlink" width="500" zoomAndPan="magnify" viewBox="0 0 375 374.999991" height="500" preserveAspectRatio="xMidYMid meet" version="1.0"><defs><clipPath id="id1"><path d="M 25.078125 0 L 349.828125 0 L 349.828125 375 L 25.078125 375 Z M 25.078125 0 " clip-rule="nonzero"/></clipPath></defs><g clip-path="url(#id1)"><path fill="#000000" d="M 56.246094 370.125 C 56.414062 370.816406 56.695312 371.457031 57.085938 372.054688 C 57.476562 372.648438 57.957031 373.164062 58.523438 373.59375 C 59.089844 374.023438 59.714844 374.347656 60.390625 374.566406 C 61.070312 374.785156 61.765625 374.882812 62.476562 374.863281 L 311.804688 374.863281 C 312.515625 374.882812 313.210938 374.785156 313.890625 374.566406 C 314.570312 374.347656 315.191406 374.023438 315.757812 373.59375 C 316.324219 373.164062 316.804688 372.648438 317.195312 372.054688 C 317.585938 371.457031 317.867188 370.816406 318.039062 370.125 L 349.203125 245.421875 C 349.441406 244.492188 349.460938 243.554688 349.265625 242.613281 C 349.066406 241.671875 348.671875 240.820312 348.082031 240.0625 C 347.46875 239.28125 346.710938 238.683594 345.808594 238.265625 C 344.910156 237.847656 343.964844 237.65625 342.972656 237.691406 L 336.050781 237.691406 C 335.925781 236.835938 335.761719 235.984375 335.558594 235.144531 C 335.355469 234.300781 335.113281 233.46875 334.835938 232.648438 C 334.5625 231.828125 334.25 231.019531 333.898438 230.226562 C 333.550781 229.433594 333.167969 228.65625 332.75 227.898438 C 332.332031 227.140625 331.882812 226.398438 331.398438 225.679688 C 330.917969 224.960938 330.402344 224.265625 329.855469 223.59375 C 329.3125 222.917969 328.738281 222.269531 328.136719 221.648438 C 327.53125 221.027344 326.902344 220.433594 326.25 219.867188 C 325.59375 219.300781 324.914062 218.761719 324.210938 218.257812 C 323.507812 217.75 322.785156 217.277344 322.039062 216.835938 C 321.292969 216.394531 320.53125 215.988281 319.75 215.613281 C 318.96875 215.238281 318.171875 214.902344 317.359375 214.597656 C 316.546875 214.292969 315.722656 214.027344 314.890625 213.796875 C 314.054688 213.570312 313.210938 213.375 312.359375 213.222656 C 311.507812 213.066406 310.648438 212.949219 309.785156 212.871094 C 308.921875 212.792969 308.058594 212.753906 307.191406 212.75 L 224.539062 212.75 L 224.539062 202.714844 C 226.707031 201.472656 228.804688 200.125 230.835938 198.675781 C 232.863281 197.222656 234.816406 195.671875 236.691406 194.023438 C 238.566406 192.375 240.351562 190.636719 242.050781 188.804688 C 243.75 186.976562 245.351562 185.066406 246.859375 183.078125 C 248.363281 181.085938 249.765625 179.027344 251.066406 176.894531 C 252.363281 174.761719 253.554688 172.570312 254.632812 170.320312 C 255.710938 168.066406 256.671875 165.765625 257.519531 163.417969 C 258.363281 161.070312 259.089844 158.683594 259.695312 156.261719 C 261.082031 156.019531 262.4375 155.664062 263.765625 155.191406 C 265.089844 154.71875 266.367188 154.136719 267.59375 153.449219 C 268.820312 152.761719 269.980469 151.972656 271.078125 151.089844 C 272.171875 150.203125 273.183594 149.230469 274.113281 148.175781 C 275.042969 147.117188 275.878906 145.992188 276.617188 144.792969 C 277.355469 143.59375 277.988281 142.34375 278.515625 141.039062 C 279.042969 139.734375 279.457031 138.394531 279.757812 137.019531 C 280.058594 135.644531 280.238281 134.253906 280.304688 132.847656 C 280.371094 131.441406 280.316406 130.039062 280.144531 128.640625 C 279.972656 127.242188 279.683594 125.871094 279.277344 124.523438 C 278.871094 123.175781 278.359375 121.871094 277.730469 120.609375 C 277.105469 119.347656 276.378906 118.148438 275.550781 117.011719 C 274.722656 115.871094 273.804688 114.8125 272.796875 113.832031 C 271.789062 112.847656 270.703125 111.957031 269.546875 111.160156 C 268.386719 110.359375 267.167969 109.664062 265.890625 109.074219 C 264.613281 108.480469 263.296875 108 261.941406 107.628906 L 261.941406 99.398438 C 262.84375 99.078125 263.71875 98.691406 264.5625 98.238281 C 265.40625 97.785156 266.210938 97.269531 266.976562 96.691406 C 267.742188 96.113281 268.457031 95.480469 269.125 94.789062 C 269.792969 94.101562 270.40625 93.367188 270.960938 92.585938 C 271.515625 91.800781 272.007812 90.984375 272.433594 90.125 C 272.863281 89.265625 273.222656 88.382812 273.515625 87.46875 C 273.808594 86.554688 274.027344 85.625 274.179688 84.675781 C 274.328125 83.730469 274.402344 82.777344 274.40625 81.816406 C 274.429688 80.003906 274.367188 78.199219 274.214844 76.394531 C 274.0625 74.589844 273.820312 72.796875 273.492188 71.015625 C 273.164062 69.234375 272.75 67.472656 272.246094 65.734375 C 271.746094 63.992188 271.160156 62.28125 270.492188 60.597656 C 269.824219 58.917969 269.074219 57.269531 268.242188 55.660156 C 267.414062 54.050781 266.503906 52.488281 265.519531 50.96875 C 264.539062 49.449219 263.480469 47.980469 262.351562 46.5625 C 261.226562 45.144531 260.03125 43.789062 258.769531 42.488281 C 257.507812 41.191406 256.1875 39.957031 254.804688 38.785156 C 253.421875 37.617188 251.984375 36.519531 250.496094 35.488281 C 249.003906 34.460938 247.46875 33.507812 245.882812 32.628906 C 244.300781 31.753906 242.675781 30.953125 241.015625 30.238281 C 239.351562 29.519531 237.660156 28.882812 235.9375 28.332031 C 234.210938 27.777344 232.464844 27.3125 230.695312 26.933594 C 228.925781 26.550781 227.140625 26.257812 225.339844 26.050781 C 223.542969 25.847656 221.738281 25.730469 219.929688 25.703125 L 162.207031 25.703125 C 159.148438 25.675781 156.117188 25.386719 153.105469 24.832031 C 150.097656 24.277344 147.160156 23.472656 144.289062 22.410156 C 141.421875 21.34375 138.664062 20.042969 136.023438 18.503906 C 133.378906 16.960938 130.886719 15.203125 128.550781 13.230469 L 115.148438 2.195312 C 114.71875 1.847656 114.246094 1.5625 113.742188 1.339844 C 113.234375 1.117188 112.707031 0.964844 112.160156 0.882812 C 111.609375 0.800781 111.0625 0.789062 110.511719 0.855469 C 109.960938 0.917969 109.429688 1.054688 108.914062 1.261719 C 108.398438 1.476562 107.917969 1.757812 107.476562 2.101562 C 107.035156 2.445312 106.644531 2.84375 106.3125 3.292969 C 105.976562 3.742188 105.707031 4.230469 105.503906 4.753906 C 105.300781 5.273438 105.171875 5.816406 105.113281 6.375 L 100.375 54.820312 C 99.464844 64.558594 99.589844 74.285156 100.75 84 C 100.953125 85.660156 101.371094 87.265625 102.003906 88.8125 C 102.636719 90.363281 103.464844 91.800781 104.484375 93.128906 C 105.503906 94.457031 106.679688 95.625 108.015625 96.636719 C 109.347656 97.648438 110.789062 98.464844 112.34375 99.085938 L 112.34375 107.628906 C 110.984375 108 109.667969 108.484375 108.390625 109.078125 C 107.117188 109.671875 105.898438 110.367188 104.738281 111.167969 C 103.582031 111.96875 102.5 112.859375 101.492188 113.84375 C 100.484375 114.828125 99.566406 115.886719 98.738281 117.027344 C 97.914062 118.167969 97.1875 119.367188 96.5625 120.628906 C 95.9375 121.890625 95.425781 123.195312 95.019531 124.546875 C 94.617188 125.894531 94.332031 127.265625 94.160156 128.664062 C 93.988281 130.0625 93.9375 131.464844 94.003906 132.871094 C 94.070312 134.277344 94.253906 135.667969 94.558594 137.042969 C 94.859375 138.417969 95.273438 139.757812 95.804688 141.0625 C 96.332031 142.367188 96.96875 143.617188 97.710938 144.816406 C 98.449219 146.011719 99.285156 147.140625 100.21875 148.195312 C 101.148438 149.25 102.164062 150.21875 103.257812 151.105469 C 104.355469 151.988281 105.515625 152.773438 106.746094 153.460938 C 107.972656 154.148438 109.253906 154.726562 110.578125 155.195312 C 111.90625 155.667969 113.261719 156.023438 114.648438 156.261719 C 115.261719 158.679688 115.988281 161.0625 116.839844 163.40625 C 117.6875 165.75 118.652344 168.046875 119.730469 170.296875 C 120.808594 172.546875 121.996094 174.734375 123.292969 176.863281 C 124.589844 178.992188 125.992188 181.054688 127.492188 183.042969 C 128.996094 185.03125 130.59375 186.941406 132.289062 188.773438 C 133.984375 190.601562 135.765625 192.34375 137.632812 193.992188 C 139.5 195.644531 141.445312 197.199219 143.46875 198.65625 C 145.492188 200.113281 147.582031 201.464844 149.742188 202.714844 L 149.742188 212.75 L 66.589844 212.75 C 65.722656 212.746094 64.851562 212.78125 63.984375 212.855469 C 63.117188 212.929688 62.257812 213.042969 61.398438 213.191406 C 60.542969 213.34375 59.695312 213.53125 58.855469 213.757812 C 58.015625 213.984375 57.1875 214.25 56.371094 214.546875 C 55.554688 214.847656 54.75 215.183594 53.964844 215.558594 C 53.179688 215.929688 52.410156 216.335938 51.660156 216.777344 C 50.910156 217.21875 50.179688 217.691406 49.472656 218.195312 C 48.765625 218.703125 48.078125 219.238281 47.417969 219.804688 C 46.757812 220.371094 46.125 220.964844 45.519531 221.589844 C 44.910156 222.214844 44.332031 222.863281 43.785156 223.539062 C 43.234375 224.214844 42.71875 224.910156 42.230469 225.632812 C 41.742188 226.355469 41.289062 227.09375 40.871094 227.859375 C 40.449219 228.621094 40.0625 229.398438 39.710938 230.195312 C 39.359375 230.992188 39.046875 231.800781 38.765625 232.625 C 38.488281 233.449219 38.246094 234.285156 38.042969 235.132812 C 37.839844 235.976562 37.671875 236.832031 37.542969 237.691406 L 31.3125 237.691406 C 30.351562 237.6875 29.441406 237.890625 28.574219 238.308594 C 27.710938 238.722656 26.980469 239.308594 26.386719 240.0625 C 25.796875 240.820312 25.402344 241.671875 25.207031 242.613281 C 25.007812 243.554688 25.027344 244.492188 25.265625 245.421875 Z M 306.945312 362.390625 L 67.339844 362.390625 L 39.289062 250.160156 L 334.992188 250.160156 Z M 323.398438 237.691406 L 240.746094 237.691406 C 243.023438 233.730469 244.851562 229.574219 246.230469 225.222656 L 307.191406 225.222656 C 308.109375 225.222656 309.023438 225.300781 309.925781 225.453125 C 310.832031 225.605469 311.71875 225.828125 312.585938 226.125 C 313.457031 226.421875 314.292969 226.789062 315.101562 227.222656 C 315.910156 227.65625 316.679688 228.152344 317.40625 228.710938 C 318.132812 229.273438 318.8125 229.886719 319.4375 230.558594 C 320.0625 231.226562 320.632812 231.945312 321.140625 232.707031 C 321.652344 233.472656 322.09375 234.273438 322.472656 235.109375 C 322.851562 235.945312 323.160156 236.804688 323.398438 237.691406 Z M 236.132812 112.992188 L 199.609375 112.992188 C 199.199219 112.992188 198.792969 113.03125 198.390625 113.113281 C 197.992188 113.191406 197.601562 113.308594 197.222656 113.464844 C 196.84375 113.621094 196.484375 113.816406 196.144531 114.042969 C 195.804688 114.269531 195.488281 114.527344 195.199219 114.816406 C 194.910156 115.105469 194.652344 115.421875 194.425781 115.761719 C 194.199219 116.101562 194.003906 116.460938 193.847656 116.839844 C 193.691406 117.21875 193.574219 117.609375 193.496094 118.011719 C 193.414062 118.410156 193.375 118.816406 193.375 119.226562 L 193.375 125.460938 L 180.910156 125.460938 L 180.910156 119.226562 C 180.910156 118.816406 180.867188 118.410156 180.789062 118.011719 C 180.707031 117.609375 180.589844 117.21875 180.433594 116.839844 C 180.277344 116.460938 180.085938 116.101562 179.859375 115.761719 C 179.628906 115.421875 179.371094 115.105469 179.082031 114.816406 C 178.792969 114.527344 178.476562 114.269531 178.136719 114.042969 C 177.796875 113.816406 177.4375 113.621094 177.058594 113.464844 C 176.683594 113.308594 176.292969 113.191406 175.890625 113.113281 C 175.488281 113.03125 175.085938 112.992188 174.675781 112.992188 L 138.273438 112.992188 L 124.808594 108.503906 L 124.808594 99.585938 L 139.644531 96.53125 C 146.472656 95.097656 153.332031 94.949219 160.214844 96.09375 L 177.917969 99.085938 C 184.148438 100.121094 190.382812 100.121094 196.617188 99.085938 L 214.566406 96.09375 C 221.339844 94.972656 228.089844 95.078125 234.824219 96.40625 L 249.722656 99.398438 L 249.722656 108.503906 Z M 230.773438 125.460938 L 230.773438 137.933594 L 205.839844 137.933594 L 205.839844 125.460938 Z M 168.441406 125.460938 L 168.441406 137.933594 L 143.507812 137.933594 L 143.507812 125.460938 Z M 264.308594 122.90625 C 264.882812 123.484375 265.398438 124.113281 265.847656 124.792969 C 266.300781 125.472656 266.679688 126.1875 266.992188 126.941406 C 267.304688 127.695312 267.539062 128.472656 267.695312 129.273438 C 267.855469 130.074219 267.933594 130.882812 267.933594 131.695312 C 267.933594 132.511719 267.855469 133.320312 267.695312 134.121094 C 267.539062 134.921875 267.304688 135.699219 266.992188 136.453125 C 266.679688 137.207031 266.300781 137.921875 265.847656 138.601562 C 265.398438 139.28125 264.882812 139.910156 264.308594 140.488281 C 263.488281 141.300781 262.574219 141.988281 261.566406 142.546875 C 261.566406 140.988281 261.566406 139.492188 261.566406 137.933594 L 261.566406 120.972656 C 262.582031 121.472656 263.496094 122.117188 264.308594 122.90625 Z M 112.65625 56.003906 L 116.207031 19.464844 L 120.820312 23.269531 C 123.714844 25.652344 126.789062 27.773438 130.046875 29.625 C 133.304688 31.480469 136.695312 33.039062 140.222656 34.308594 C 143.75 35.578125 147.359375 36.539062 151.050781 37.1875 C 154.742188 37.835938 158.460938 38.164062 162.207031 38.171875 L 219.429688 38.171875 C 220.84375 38.183594 222.25 38.265625 223.65625 38.417969 C 225.058594 38.566406 226.453125 38.789062 227.835938 39.078125 C 229.21875 39.367188 230.582031 39.722656 231.929688 40.148438 C 233.277344 40.570312 234.601562 41.058594 235.898438 41.613281 C 237.199219 42.167969 238.46875 42.789062 239.707031 43.46875 C 240.945312 44.148438 242.144531 44.886719 243.308594 45.6875 C 244.476562 46.484375 245.597656 47.339844 246.679688 48.25 C 247.757812 49.160156 248.792969 50.121094 249.777344 51.132812 C 250.765625 52.144531 251.699219 53.203125 252.578125 54.304688 C 253.460938 55.410156 254.285156 56.554688 255.050781 57.742188 C 255.820312 58.925781 256.527344 60.148438 257.175781 61.402344 C 257.824219 62.660156 258.40625 63.945312 258.929688 65.257812 C 259.449219 66.570312 259.902344 67.90625 260.292969 69.265625 C 260.679688 70.625 261 71.996094 261.253906 73.386719 C 261.507812 74.777344 261.691406 76.175781 261.804688 77.585938 C 261.917969 78.992188 261.964844 80.402344 261.941406 81.816406 C 261.941406 82.203125 261.90625 82.585938 261.835938 82.96875 C 261.769531 83.347656 261.664062 83.71875 261.523438 84.078125 C 261.386719 84.441406 261.214844 84.785156 261.011719 85.117188 C 260.808594 85.445312 260.578125 85.753906 260.316406 86.039062 C 260.054688 86.324219 259.773438 86.585938 259.464844 86.816406 C 259.15625 87.050781 258.828125 87.253906 258.480469 87.425781 C 258.136719 87.597656 257.777344 87.734375 257.402344 87.839844 C 257.03125 87.945312 256.652344 88.015625 256.269531 88.050781 L 237.007812 84.1875 C 232.5625 83.296875 228.074219 82.839844 223.542969 82.8125 C 219.753906 82.835938 215.996094 83.167969 212.261719 83.8125 L 194.308594 86.742188 C 189.53125 87.558594 184.753906 87.558594 179.972656 86.742188 L 162.207031 83.8125 C 153.867188 82.429688 145.554688 82.59375 137.277344 84.3125 L 118.578125 88.050781 C 117.855469 87.992188 117.164062 87.808594 116.507812 87.507812 C 115.847656 87.207031 115.261719 86.800781 114.742188 86.296875 C 114.226562 85.789062 113.808594 85.210938 113.492188 84.558594 C 113.175781 83.910156 112.980469 83.222656 112.902344 82.503906 C 111.878906 73.679688 111.796875 64.84375 112.65625 56.003906 Z M 106.109375 131.695312 C 106.117188 130.046875 106.4375 128.457031 107.074219 126.9375 C 107.714844 125.414062 108.617188 124.070312 109.789062 122.90625 C 110.550781 122.144531 111.402344 121.5 112.34375 120.972656 L 112.34375 137.933594 C 112.34375 139.492188 112.34375 140.988281 112.34375 142.546875 C 111.390625 141.996094 110.527344 141.332031 109.753906 140.554688 C 108.976562 139.777344 108.316406 138.914062 107.765625 137.960938 C 107.21875 137.007812 106.804688 136 106.523438 134.9375 C 106.242188 133.875 106.105469 132.796875 106.109375 131.695312 Z M 124.808594 137.933594 L 124.808594 121.597656 L 131.042969 123.714844 L 131.042969 144.167969 C 131.042969 144.574219 131.082031 144.980469 131.164062 145.382812 C 131.242188 145.785156 131.359375 146.175781 131.515625 146.550781 C 131.671875 146.929688 131.867188 147.289062 132.09375 147.628906 C 132.320312 147.972656 132.578125 148.285156 132.867188 148.574219 C 133.15625 148.863281 133.472656 149.125 133.8125 149.351562 C 134.152344 149.578125 134.511719 149.769531 134.890625 149.925781 C 135.269531 150.082031 135.660156 150.203125 136.058594 150.28125 C 136.460938 150.363281 136.867188 150.402344 137.277344 150.402344 L 174.675781 150.402344 C 175.085938 150.402344 175.488281 150.363281 175.890625 150.28125 C 176.292969 150.203125 176.683594 150.082031 177.058594 149.925781 C 177.4375 149.769531 177.796875 149.578125 178.136719 149.351562 C 178.476562 149.125 178.792969 148.863281 179.082031 148.574219 C 179.371094 148.285156 179.628906 147.972656 179.859375 147.628906 C 180.085938 147.289062 180.277344 146.929688 180.433594 146.550781 C 180.589844 146.175781 180.707031 145.785156 180.789062 145.382812 C 180.867188 144.980469 180.910156 144.574219 180.910156 144.167969 L 180.910156 137.933594 L 193.375 137.933594 L 193.375 144.167969 C 193.375 144.574219 193.414062 144.980469 193.496094 145.382812 C 193.574219 145.785156 193.691406 146.175781 193.847656 146.550781 C 194.003906 146.929688 194.199219 147.289062 194.425781 147.628906 C 194.652344 147.972656 194.910156 148.285156 195.199219 148.574219 C 195.488281 148.863281 195.804688 149.125 196.144531 149.351562 C 196.484375 149.578125 196.84375 149.769531 197.222656 149.925781 C 197.601562 150.082031 197.992188 150.203125 198.390625 150.28125 C 198.792969 150.363281 199.199219 150.402344 199.609375 150.402344 L 237.007812 150.402344 C 237.417969 150.402344 237.820312 150.363281 238.222656 150.28125 C 238.625 150.203125 239.015625 150.082031 239.390625 149.925781 C 239.769531 149.769531 240.128906 149.578125 240.46875 149.351562 C 240.808594 149.125 241.125 148.863281 241.414062 148.574219 C 241.703125 148.285156 241.960938 147.972656 242.191406 147.628906 C 242.417969 147.289062 242.609375 146.929688 242.765625 146.550781 C 242.921875 146.175781 243.039062 145.785156 243.121094 145.382812 C 243.199219 144.980469 243.242188 144.574219 243.242188 144.167969 L 243.242188 123.714844 L 249.472656 121.660156 L 249.472656 137.933594 C 249.484375 140.78125 249.300781 143.621094 248.917969 146.449219 C 248.535156 149.273438 247.964844 152.058594 247.199219 154.804688 C 246.433594 157.554688 245.480469 160.234375 244.347656 162.851562 C 243.210938 165.464844 241.902344 167.992188 240.417969 170.425781 C 238.933594 172.859375 237.289062 175.179688 235.484375 177.386719 C 233.679688 179.597656 231.734375 181.667969 229.644531 183.609375 C 227.554688 185.546875 225.339844 187.332031 223.003906 188.964844 C 220.667969 190.597656 218.226562 192.0625 215.691406 193.359375 C 214.507812 193.96875 213.308594 194.539062 212.089844 195.074219 C 210.871094 195.605469 209.636719 196.097656 208.386719 196.550781 C 207.140625 197.003906 205.875 197.417969 204.601562 197.789062 C 203.324219 198.160156 202.039062 198.492188 200.738281 198.785156 C 199.441406 199.074219 198.136719 199.320312 196.824219 199.527344 C 195.511719 199.734375 194.191406 199.898438 192.871094 200.023438 C 191.546875 200.144531 190.21875 200.222656 188.890625 200.261719 C 187.5625 200.296875 186.234375 200.292969 184.90625 200.246094 C 183.578125 200.199219 182.25 200.109375 180.929688 199.976562 C 179.605469 199.84375 178.289062 199.667969 176.976562 199.449219 C 175.667969 199.234375 174.363281 198.976562 173.066406 198.675781 C 171.773438 198.375 170.488281 198.035156 169.214844 197.652344 C 167.941406 197.269531 166.683594 196.847656 165.4375 196.382812 C 164.191406 195.921875 162.960938 195.417969 161.746094 194.875 C 160.535156 194.335938 159.335938 193.753906 158.160156 193.136719 C 156.984375 192.519531 155.828125 191.863281 154.691406 191.171875 C 153.558594 190.476562 152.445312 189.75 151.359375 188.988281 C 150.269531 188.222656 149.207031 187.425781 148.167969 186.59375 C 147.132812 185.761719 146.121094 184.898438 145.140625 184.003906 C 144.15625 183.109375 143.207031 182.179688 142.28125 181.222656 C 141.359375 180.265625 140.46875 179.28125 139.609375 178.269531 C 138.75 177.253906 137.921875 176.214844 137.128906 175.144531 C 136.335938 174.078125 135.578125 172.988281 134.851562 171.871094 C 134.128906 170.757812 133.441406 169.621094 132.792969 168.460938 C 132.140625 167.300781 131.527344 166.121094 130.953125 164.921875 C 130.375 163.722656 129.839844 162.507812 129.34375 161.277344 C 128.84375 160.042969 128.386719 158.792969 127.96875 157.53125 C 127.550781 156.269531 127.175781 154.996094 126.839844 153.710938 C 126.5 152.421875 126.207031 151.128906 125.953125 149.820312 C 125.699219 148.515625 125.488281 147.203125 125.320312 145.886719 C 125.148438 144.566406 125.023438 143.242188 124.9375 141.917969 C 124.851562 140.589844 124.808594 139.261719 124.808594 137.933594 Z M 155.976562 225.222656 C 156.382812 225.222656 156.789062 225.183594 157.191406 225.101562 C 157.59375 225.023438 157.984375 224.902344 158.359375 224.746094 C 158.738281 224.589844 159.097656 224.398438 159.4375 224.171875 C 159.777344 223.945312 160.09375 223.683594 160.382812 223.394531 C 160.671875 223.105469 160.929688 222.792969 161.15625 222.449219 C 161.386719 222.109375 161.578125 221.75 161.734375 221.371094 C 161.890625 220.996094 162.007812 220.605469 162.089844 220.203125 C 162.167969 219.800781 162.207031 219.394531 162.207031 218.988281 L 162.207031 208.449219 C 170.277344 211.296875 178.585938 212.730469 187.140625 212.75 C 195.707031 212.746094 204.015625 211.292969 212.074219 208.386719 L 212.074219 218.988281 C 212.074219 219.394531 212.113281 219.800781 212.195312 220.203125 C 212.273438 220.605469 212.390625 220.996094 212.546875 221.371094 C 212.707031 221.75 212.898438 222.109375 213.125 222.449219 C 213.351562 222.792969 213.609375 223.105469 213.898438 223.394531 C 214.1875 223.683594 214.503906 223.945312 214.84375 224.171875 C 215.183594 224.398438 215.542969 224.589844 215.921875 224.746094 C 216.300781 224.902344 216.691406 225.023438 217.089844 225.101562 C 217.492188 225.183594 217.898438 225.222656 218.308594 225.222656 L 233.265625 225.222656 C 231.429688 229.726562 229 233.882812 225.972656 237.691406 L 148.058594 237.691406 C 145.035156 233.882812 142.605469 229.726562 140.765625 225.222656 Z M 66.839844 225.222656 L 127.800781 225.222656 C 129.183594 229.574219 131.011719 233.730469 133.285156 237.691406 L 50.386719 237.691406 C 50.621094 236.804688 50.929688 235.945312 51.308594 235.109375 C 51.6875 234.273438 52.132812 233.472656 52.640625 232.707031 C 53.152344 231.945312 53.71875 231.226562 54.347656 230.558594 C 54.972656 229.886719 55.652344 229.273438 56.378906 228.710938 C 57.105469 228.152344 57.875 227.65625 58.683594 227.222656 C 59.492188 226.789062 60.328125 226.421875 61.195312 226.125 C 62.066406 225.828125 62.953125 225.605469 63.855469 225.453125 C 64.761719 225.300781 65.671875 225.222656 66.589844 225.222656 Z M 66.839844 225.222656 " fill-opacity="1" fill-rule="nonzero"/></g><path fill="#000000" d="M 96.574219 311.578125 L 146.4375 342.75 L 153.046875 332.152344 L 111.65625 306.277344 L 153.046875 280.402344 L 146.4375 269.800781 L 96.574219 300.976562 C 95.660156 301.546875 94.941406 302.304688 94.421875 303.246094 C 93.902344 304.191406 93.640625 305.199219 93.644531 306.277344 C 93.640625 307.355469 93.902344 308.363281 94.421875 309.304688 C 94.941406 310.25 95.660156 311.003906 96.574219 311.578125 Z M 96.574219 311.578125 " fill-opacity="1" fill-rule="nonzero"/><path fill="#000000" d="M 227.84375 342.75 L 277.710938 311.578125 C 278.625 311.003906 279.339844 310.25 279.859375 309.304688 C 280.382812 308.363281 280.640625 307.355469 280.640625 306.277344 C 280.640625 305.199219 280.382812 304.191406 279.859375 303.246094 C 279.339844 302.304688 278.625 301.546875 277.710938 300.976562 L 227.84375 269.800781 L 221.238281 280.402344 L 262.625 306.277344 L 221.238281 332.152344 Z M 227.84375 342.75 " fill-opacity="1" fill-rule="nonzero"/><path fill="#000000" d="M 162.835938 340.851562 L 200.238281 266.007812 L 211.390625 271.582031 L 173.988281 346.425781 Z M 162.835938 340.851562 " fill-opacity="1" fill-rule="nonzero"/></svg>